<svg width="998" height="411" viewBox="0 0 998 411" fill="none" xmlns="http://www.w3.org/2000/svg">
<rect width="998" height="411" fill="#ECECEC"/>
<rect width="998" height="411" fill="white"/>
<rect x="40.5" y="75.5" width="251" height="295" rx="27.5" fill="#FFF7CE" stroke="#C4AC32" stroke-width="3"/>
<path d="M159.37 44.032H157.534L152.818 58H150.874L145.978 45.76H145.798L141.01 58H139.138L134.242 44.032H132.478V41.98H140.038V44.032H136.978L140.326 54.148H140.506L145.258 41.98H146.95L151.954 54.148H152.134L155.086 44.032H152.17V41.98H159.37V44.032ZM176.466 49.972C176.466 52.396 175.746 54.4 174.306 55.984C172.866 57.568 170.91 58.36 168.438 58.36C166.014 58.36 164.106 57.592 162.714 56.056C161.346 54.52 160.662 52.54 160.662 50.116C160.662 47.788 161.334 45.796 162.678 44.14C164.022 42.46 165.99 41.62 168.582 41.62C171.198 41.62 173.166 42.448 174.486 44.104C175.806 45.736 176.466 47.692 176.466 49.972ZM173.802 49.936C173.802 48.112 173.334 46.636 172.398 45.508C171.486 44.356 170.19 43.78 168.51 43.78C166.83 43.78 165.534 44.368 164.622 45.544C163.734 46.72 163.29 48.196 163.29 49.972C163.29 51.724 163.734 53.2 164.622 54.4C165.51 55.6 166.806 56.2 168.51 56.2C170.214 56.2 171.522 55.612 172.434 54.436C173.346 53.236 173.802 51.736 173.802 49.936ZM186.643 58H178.507V55.948H181.315V35.284H178.471V33.232H183.835V55.948H186.643V58ZM196.71 32.872C197.454 32.872 198.114 32.944 198.69 33.088C199.29 33.232 199.866 33.544 200.418 34.024L201.03 37.732L198.978 37.984L198.294 35.248C197.814 35.056 197.202 34.96 196.458 34.96C194.562 34.96 193.614 36.232 193.614 38.776V41.98H197.754V43.996H193.614V55.948H197.25V58H188.286V55.948H191.058V43.996H188.754V41.98H191.058V38.992C191.058 37.12 191.61 35.632 192.714 34.528C193.842 33.424 195.174 32.872 196.71 32.872Z" fill="black"/>
<rect x="80.5" y="115.5" width="171" height="53" rx="6.5" fill="#F8BEE0" stroke="#B828C5" stroke-width="3"/>
<rect x="80.5" y="196.5" width="171" height="53" rx="6.5" fill="#F8BEE0" stroke="#B828C5" stroke-width="3"/>
<rect x="80.5" y="275.5" width="171" height="53" rx="6.5" fill="#F8BEE0" stroke="#B828C5" stroke-width="3"/>
<path d="M146.728 134.248H144.968L139.4 153H137.512L132.04 136.36H131.912L126.6 153H124.712L118.76 134.248H117V132.2H124.2V134.248H121.256L125.64 149.192H125.768L130.568 134.248H128.488V132.2H135.656V134.248H133.576L138.44 149.288H138.568L142.6 134.248H139.592V132.2H146.728V134.248ZM148.061 139.848C148.807 139.357 149.597 139.005 150.429 138.792C151.261 138.579 152.146 138.472 153.085 138.472C156.477 138.472 158.173 140.061 158.173 143.24V150.024C158.173 151.048 158.578 151.56 159.389 151.56C159.751 151.56 160.071 151.496 160.349 151.368L160.381 152.84C159.805 153.16 159.186 153.32 158.525 153.32C156.839 153.32 155.975 152.36 155.933 150.44V150.376C155.485 151.144 154.845 151.827 154.013 152.424C153.202 153.021 152.221 153.32 151.069 153.32C150.13 153.32 149.17 153.032 148.189 152.456C147.229 151.88 146.749 150.835 146.749 149.32C146.749 147.528 147.453 146.355 148.861 145.8C150.29 145.224 151.805 144.936 153.405 144.936C153.831 144.936 154.258 144.947 154.685 144.968C155.133 144.989 155.549 145.021 155.933 145.064V143.784C155.933 142.76 155.709 141.928 155.261 141.288C154.834 140.648 153.981 140.328 152.701 140.328C151.655 140.328 150.738 140.52 149.949 140.904L149.405 143.368L147.549 143.144L148.061 139.848ZM155.933 147.656V146.568C155.527 146.547 155.101 146.515 154.653 146.472C154.205 146.429 153.746 146.408 153.277 146.408C152.21 146.408 151.239 146.579 150.365 146.92C149.511 147.24 149.085 147.955 149.085 149.064C149.085 149.981 149.373 150.611 149.949 150.952C150.525 151.293 151.122 151.464 151.741 151.464C152.722 151.464 153.639 151.123 154.493 150.44C155.367 149.757 155.847 148.829 155.933 147.656ZM168.81 153H161.578V151.176H164.074V132.808H161.546V130.984H166.314V151.176H168.81V153ZM185.726 153H179.006V151.176H181.15L177.246 146.344H174.718V151.176H176.766V153H169.982V151.176H172.446V132.808H169.918V130.984H174.718V144.616H177.278L180.542 140.584H178.334V138.76H184.99V140.584H182.814L179.006 145.288L183.71 151.176H185.726V153ZM199.451 148.904C199.259 150.12 198.651 151.165 197.627 152.04C196.603 152.893 195.217 153.32 193.467 153.32C191.462 153.32 189.841 152.691 188.603 151.432C187.366 150.173 186.747 148.392 186.747 146.088C186.747 143.869 187.334 142.045 188.507 140.616C189.681 139.187 191.27 138.472 193.275 138.472C195.238 138.472 196.731 139.091 197.755 140.328C198.779 141.565 199.302 143.027 199.323 144.712C199.323 145.267 199.259 145.832 199.131 146.408H189.115C189.243 149.736 190.747 151.4 193.627 151.4C194.758 151.4 195.643 151.133 196.283 150.6C196.923 150.067 197.35 149.363 197.563 148.488L199.451 148.904ZM196.955 144.744C197.062 143.677 196.806 142.675 196.187 141.736C195.59 140.797 194.598 140.328 193.211 140.328C191.889 140.328 190.918 140.765 190.299 141.64C189.681 142.515 189.297 143.549 189.147 144.744H196.955ZM209.651 138.504C210.675 138.504 211.485 138.749 212.083 139.24L212.627 142.824L210.803 143.048L210.259 140.616C209.896 140.488 209.533 140.424 209.171 140.424C208.339 140.424 207.645 140.776 207.091 141.48C206.536 142.163 206.259 143.059 206.259 144.168V151.176H209.555V153H201.523V151.176H204.019V140.584H201.459V138.76H206.131V141.32C206.408 140.531 206.856 139.869 207.475 139.336C208.115 138.781 208.84 138.504 209.651 138.504Z" fill="black"/>
<path d="M134.832 234H119.344V231.952H121.968V215.248H119.344V213.2H134.544L135.184 219.088L133.136 219.312L132.496 215.248H124.304V222.416H134.128V224.464H124.304V231.952H132.784L133.424 227.888L135.44 228.112L134.832 234ZM154.861 234H147.661V232.176H150.125V225.552C150.125 224.016 149.815 222.939 149.197 222.32C148.578 221.68 147.789 221.36 146.829 221.36C145.549 221.36 144.514 221.787 143.725 222.64C142.957 223.472 142.551 224.432 142.509 225.52V232.176H145.005V234H137.773V232.176H140.269V221.584H137.709V219.76H142.509V222.288C143.533 220.411 145.197 219.472 147.501 219.472C148.887 219.472 150.05 219.899 150.989 220.752C151.927 221.605 152.397 222.981 152.397 224.88V232.176H154.861V234ZM169.076 229.904C168.884 231.12 168.276 232.165 167.252 233.04C166.228 233.893 164.842 234.32 163.092 234.32C161.087 234.32 159.466 233.691 158.228 232.432C156.991 231.173 156.372 229.392 156.372 227.088C156.372 224.869 156.959 223.045 158.132 221.616C159.306 220.187 160.895 219.472 162.9 219.472C164.863 219.472 166.356 220.091 167.38 221.328C168.404 222.565 168.927 224.027 168.948 225.712C168.948 226.267 168.884 226.832 168.756 227.408H158.74C158.868 230.736 160.372 232.4 163.252 232.4C164.383 232.4 165.268 232.133 165.908 231.6C166.548 231.067 166.975 230.363 167.188 229.488L169.076 229.904ZM166.58 225.744C166.687 224.677 166.431 223.675 165.812 222.736C165.215 221.797 164.223 221.328 162.836 221.328C161.514 221.328 160.543 221.765 159.924 222.64C159.306 223.515 158.922 224.549 158.772 225.744H166.58ZM197.516 234H190.7V232.176H192.78V225.552C192.78 224.016 192.47 222.939 191.852 222.32C191.254 221.68 190.486 221.36 189.548 221.36C188.246 221.36 187.244 221.851 186.54 222.832C185.836 223.813 185.473 224.752 185.452 225.648V232.176H187.916V234H181.132V232.176H183.18V225.552C183.18 223.995 182.881 222.907 182.284 222.288C181.686 221.669 180.929 221.36 180.012 221.36C178.689 221.36 177.676 221.84 176.972 222.8C176.289 223.739 175.926 224.667 175.884 225.584V232.176H178.508V234H171.148V232.176H173.644V221.584H171.116V219.76H175.884V222.416C176.353 221.563 176.982 220.859 177.772 220.304C178.561 219.749 179.521 219.472 180.652 219.472C181.761 219.472 182.721 219.749 183.532 220.304C184.364 220.859 184.929 221.723 185.228 222.896C185.654 221.893 186.284 221.072 187.116 220.432C187.969 219.792 189.014 219.472 190.252 219.472C191.617 219.472 192.748 219.899 193.644 220.752C194.561 221.605 195.02 222.981 195.02 224.88V232.176H197.516V234ZM213.127 221.584H211.431L206.407 234L204.487 238.992H206.919V240.816H199.687V238.992H202.343L204.199 233.968L199.015 221.584H197.319V219.76H203.911V221.584H201.415L205.415 231.152H205.607L209.159 221.584H206.855V219.76H213.127V221.584Z" fill="black"/>
<path d="M130.944 294.248H128.224V310.952H130.816V313H123.424V310.952H125.856V297.704H125.728L118.752 311.944H117.504L110.368 297.608H110.24V310.952H112.736V313H105.376V310.952H108V294.248H105.28V292.2H110.048L118.144 308.488H118.272L126.144 292.2H130.944V294.248ZM146.701 305.864C146.701 308.019 146.061 309.8 144.781 311.208C143.501 312.616 141.762 313.32 139.565 313.32C137.41 313.32 135.714 312.637 134.477 311.272C133.261 309.907 132.653 308.147 132.653 305.992C132.653 303.923 133.25 302.152 134.445 300.68C135.639 299.187 137.389 298.44 139.693 298.44C142.018 298.44 143.767 299.176 144.941 300.648C146.114 302.099 146.701 303.837 146.701 305.864ZM144.333 305.832C144.333 304.211 143.917 302.899 143.085 301.896C142.274 300.872 141.122 300.36 139.629 300.36C138.135 300.36 136.983 300.883 136.173 301.928C135.383 302.973 134.989 304.285 134.989 305.864C134.989 307.421 135.383 308.733 136.173 309.8C136.962 310.867 138.114 311.4 139.629 311.4C141.143 311.4 142.306 310.877 143.117 309.832C143.927 308.765 144.333 307.432 144.333 305.832ZM164.995 313H160.291V310.12C159.822 310.973 159.182 311.72 158.371 312.36C157.56 313 156.504 313.32 155.203 313.32C153.368 313.32 151.886 312.701 150.755 311.464C149.646 310.205 149.091 308.467 149.091 306.248C149.091 304.349 149.582 302.579 150.563 300.936C151.544 299.293 153.198 298.472 155.523 298.472C157.742 298.472 159.331 299.336 160.291 301.064V292.808H156.835V290.984H162.531V311.176H164.995V313ZM160.291 306.696V304.424C160.248 303.229 159.811 302.259 158.979 301.512C158.147 300.765 157.166 300.392 156.035 300.392C154.456 300.392 153.294 300.968 152.547 302.12C151.822 303.272 151.459 304.595 151.459 306.088C151.459 307.837 151.864 309.16 152.675 310.056C153.507 310.952 154.542 311.4 155.779 311.4C157.059 311.4 158.115 310.888 158.947 309.864C159.8 308.819 160.248 307.763 160.291 306.696ZM179.358 308.904C179.166 310.12 178.558 311.165 177.534 312.04C176.51 312.893 175.123 313.32 173.374 313.32C171.368 313.32 169.747 312.691 168.51 311.432C167.272 310.173 166.654 308.392 166.654 306.088C166.654 303.869 167.24 302.045 168.414 300.616C169.587 299.187 171.176 298.472 173.182 298.472C175.144 298.472 176.638 299.091 177.662 300.328C178.686 301.565 179.208 303.027 179.23 304.712C179.23 305.267 179.166 305.832 179.038 306.408H169.022C169.15 309.736 170.654 311.4 173.534 311.4C174.664 311.4 175.55 311.133 176.19 310.6C176.83 310.067 177.256 309.363 177.47 308.488L179.358 308.904ZM176.862 304.744C176.968 303.677 176.712 302.675 176.094 301.736C175.496 300.797 174.504 300.328 173.118 300.328C171.795 300.328 170.824 300.765 170.206 301.64C169.587 302.515 169.203 303.549 169.054 304.744H176.862ZM188.341 313H181.109V311.176H183.605V292.808H181.077V290.984H185.845V311.176H188.341V313ZM191.081 297.672C191.678 297.267 192.457 296.893 193.417 296.552C194.398 296.189 195.422 296.008 196.489 296.008C198.174 296.008 199.561 296.445 200.649 297.32C201.758 298.195 202.313 299.453 202.313 301.096C202.313 302.141 202.014 303.112 201.417 304.008C200.841 304.883 199.806 305.555 198.313 306.024V306.152C200.211 306.472 201.502 307.123 202.185 308.104C202.867 309.085 203.209 310.184 203.209 311.4C203.209 313.256 202.601 314.739 201.385 315.848C200.19 316.957 198.547 317.512 196.457 317.512C194.494 317.512 193.001 317.075 191.977 316.2C190.953 315.325 190.313 314.259 190.057 313L191.881 312.36C192.179 313.213 192.67 313.949 193.353 314.568C194.035 315.187 195.049 315.496 196.393 315.496C198.099 315.496 199.241 315.059 199.817 314.184C200.414 313.309 200.713 312.339 200.713 311.272C200.713 310.013 200.265 309.032 199.369 308.328C198.473 307.624 196.905 307.24 194.665 307.176V305.448C196.67 305.363 198.035 304.893 198.761 304.04C199.486 303.165 199.849 302.28 199.849 301.384C199.849 300.339 199.507 299.517 198.825 298.92C198.163 298.323 197.235 298.024 196.041 298.024C194.995 298.024 193.971 298.291 192.969 298.824L192.393 301.416L190.537 301.192L191.081 297.672ZM225.905 302.568C225.905 305.619 224.966 308.125 223.089 310.088C221.233 312.029 218.662 313 215.377 313H205.969V310.984H208.593V294.216H205.969V292.2H215.281C218.673 292.2 221.286 293.181 223.121 295.144C224.977 297.085 225.905 299.56 225.905 302.568ZM223.409 302.6C223.409 300.083 222.705 298.056 221.297 296.52C219.91 294.984 217.894 294.216 215.249 294.216H210.929V310.984H215.249C217.894 310.984 219.91 310.237 221.297 308.744C222.705 307.229 223.409 305.181 223.409 302.6Z" fill="black"/>
<rect x="369.5" y="75.5" width="251" height="295" rx="27.5" fill="#FFF7CE" stroke="#C4AC32" stroke-width="3"/>
<path d="M458.713 58H453.421V54.76C452.893 55.72 452.173 56.56 451.261 57.28C450.349 58 449.161 58.36 447.697 58.36C445.633 58.36 443.965 57.664 442.693 56.272C441.445 54.856 440.821 52.9 440.821 50.404C440.821 48.268 441.373 46.276 442.477 44.428C443.581 42.58 445.441 41.656 448.057 41.656C450.553 41.656 452.341 42.628 453.421 44.572V35.284H449.533V33.232H455.941V55.948H458.713V58ZM453.421 50.908V48.352C453.373 47.008 452.881 45.916 451.945 45.076C451.009 44.236 449.905 43.816 448.633 43.816C446.857 43.816 445.549 44.464 444.709 45.76C443.893 47.056 443.485 48.544 443.485 50.224C443.485 52.192 443.941 53.68 444.853 54.688C445.789 55.696 446.953 56.2 448.345 56.2C449.785 56.2 450.973 55.624 451.909 54.472C452.869 53.296 453.373 52.108 453.421 50.908ZM469.435 41.692C470.587 41.692 471.499 41.968 472.171 42.52L472.783 46.552L470.731 46.804L470.119 44.068C469.711 43.924 469.303 43.852 468.895 43.852C467.959 43.852 467.179 44.248 466.555 45.04C465.931 45.808 465.619 46.816 465.619 48.064V55.948H469.327V58H460.291V55.948H463.099V44.032H460.219V41.98H465.475V44.86C465.787 43.972 466.291 43.228 466.987 42.628C467.707 42.004 468.523 41.692 469.435 41.692ZM477.244 43.204C478.084 42.652 478.972 42.256 479.908 42.016C480.844 41.776 481.84 41.656 482.896 41.656C486.712 41.656 488.62 43.444 488.62 47.02V54.652C488.62 55.804 489.076 56.38 489.988 56.38C490.396 56.38 490.756 56.308 491.068 56.164L491.104 57.82C490.456 58.18 489.76 58.36 489.016 58.36C487.12 58.36 486.148 57.28 486.1 55.12V55.048C485.596 55.912 484.876 56.68 483.94 57.352C483.028 58.024 481.924 58.36 480.628 58.36C479.572 58.36 478.492 58.036 477.388 57.388C476.308 56.74 475.768 55.564 475.768 53.86C475.768 51.844 476.56 50.524 478.144 49.9C479.752 49.252 481.456 48.928 483.256 48.928C483.736 48.928 484.216 48.94 484.696 48.964C485.2 48.988 485.668 49.024 486.1 49.072V47.632C486.1 46.48 485.848 45.544 485.344 44.824C484.864 44.104 483.904 43.744 482.464 43.744C481.288 43.744 480.256 43.96 479.368 44.392L478.756 47.164L476.668 46.912L477.244 43.204ZM486.1 51.988V50.764C485.644 50.74 485.164 50.704 484.66 50.656C484.156 50.608 483.64 50.584 483.112 50.584C481.912 50.584 480.82 50.776 479.836 51.16C478.876 51.52 478.396 52.324 478.396 53.572C478.396 54.604 478.72 55.312 479.368 55.696C480.016 56.08 480.688 56.272 481.384 56.272C482.488 56.272 483.52 55.888 484.48 55.12C485.464 54.352 486.004 53.308 486.1 51.988ZM510.846 44.032H508.254V57.784C508.254 60.304 507.558 62.308 506.166 63.796C504.798 65.284 502.866 66.028 500.37 66.028C498.69 66.028 497.178 65.644 495.834 64.876C494.514 64.108 493.638 62.92 493.206 61.312L495.222 60.304C495.63 61.552 496.338 62.452 497.346 63.004C498.354 63.58 499.398 63.868 500.478 63.868C502.014 63.868 503.262 63.328 504.222 62.248C505.206 61.192 505.698 59.668 505.698 57.676V54.724C505.218 55.66 504.522 56.476 503.61 57.172C502.698 57.868 501.486 58.216 499.974 58.216C498.078 58.216 496.458 57.544 495.114 56.2C493.77 54.856 493.098 52.924 493.098 50.404C493.098 48.268 493.674 46.276 494.826 44.428C495.978 42.58 497.79 41.656 500.262 41.656C502.806 41.656 504.618 42.604 505.698 44.5V41.98H510.846V44.032ZM505.698 51.088V48.316C505.698 46.972 505.23 45.892 504.294 45.076C503.382 44.236 502.266 43.816 500.946 43.816C499.146 43.816 497.838 44.464 497.022 45.76C496.23 47.056 495.834 48.544 495.834 50.224C495.834 52.192 496.278 53.656 497.166 54.616C498.078 55.576 499.194 56.056 500.514 56.056C502.05 56.056 503.286 55.528 504.222 54.472C505.158 53.416 505.65 52.288 505.698 51.088ZM528.589 49.972C528.589 52.396 527.869 54.4 526.429 55.984C524.989 57.568 523.033 58.36 520.561 58.36C518.137 58.36 516.229 57.592 514.837 56.056C513.469 54.52 512.785 52.54 512.785 50.116C512.785 47.788 513.457 45.796 514.801 44.14C516.145 42.46 518.113 41.62 520.705 41.62C523.321 41.62 525.289 42.448 526.609 44.104C527.929 45.736 528.589 47.692 528.589 49.972ZM525.925 49.936C525.925 48.112 525.457 46.636 524.521 45.508C523.609 44.356 522.313 43.78 520.633 43.78C518.953 43.78 517.657 44.368 516.745 45.544C515.857 46.72 515.413 48.196 515.413 49.972C515.413 51.724 515.857 53.2 516.745 54.4C517.633 55.6 518.929 56.2 520.633 56.2C522.337 56.2 523.645 55.612 524.557 54.436C525.469 53.236 525.925 51.736 525.925 49.936ZM550.214 58H542.114V55.948H544.886V48.496C544.886 46.768 544.538 45.556 543.842 44.86C543.146 44.14 542.258 43.78 541.178 43.78C539.738 43.78 538.574 44.26 537.686 45.22C536.822 46.156 536.366 47.236 536.318 48.46V55.948H539.126V58H530.99V55.948H533.798V44.032H530.918V41.98H536.318V44.824C537.47 42.712 539.342 41.656 541.934 41.656C543.494 41.656 544.802 42.136 545.858 43.096C546.914 44.056 547.442 45.604 547.442 47.74V55.948H550.214V58Z" fill="black"/>
<rect x="409.5" y="115.5" width="171" height="53" rx="6.5" fill="#F8BEE0" stroke="#B828C5" stroke-width="3"/>
<rect x="409.5" y="196.5" width="171" height="53" rx="6.5" fill="#F8BEE0" stroke="#B828C5" stroke-width="3"/>
<rect x="409.5" y="275.5" width="171" height="53" rx="6.5" fill="#F8BEE0" stroke="#B828C5" stroke-width="3"/>
<path d="M476.12 138.184L474.008 138.408L473.368 134.248H465.304V142.344H474.872V144.392H465.304V150.952H468.984V153H460.344V150.952H462.968V134.248H460.344V132.2H475.448L476.12 138.184ZM484.716 153H477.484V151.176H479.98V132.808H477.452V130.984H482.22V151.176H484.716V153ZM501.002 140.584H499.306L494.282 153L492.362 157.992H494.794V159.816H487.562V157.992H490.218L492.074 152.968L486.89 140.584H485.194V138.76H491.786V140.584H489.29L493.29 150.152H493.482L497.034 140.584H494.73V138.76H501.002V140.584ZM514.795 148.904C514.603 150.12 513.995 151.165 512.971 152.04C511.947 152.893 510.56 153.32 508.811 153.32C506.806 153.32 505.184 152.691 503.947 151.432C502.71 150.173 502.091 148.392 502.091 146.088C502.091 143.869 502.678 142.045 503.851 140.616C505.024 139.187 506.614 138.472 508.619 138.472C510.582 138.472 512.075 139.091 513.099 140.328C514.123 141.565 514.646 143.027 514.667 144.712C514.667 145.267 514.603 145.832 514.475 146.408H504.459C504.587 149.736 506.091 151.4 508.971 151.4C510.102 151.4 510.987 151.133 511.627 150.6C512.267 150.067 512.694 149.363 512.907 148.488L514.795 148.904ZM512.299 144.744C512.406 143.677 512.15 142.675 511.531 141.736C510.934 140.797 509.942 140.328 508.555 140.328C507.232 140.328 506.262 140.765 505.643 141.64C505.024 142.515 504.64 143.549 504.491 144.744H512.299ZM524.994 138.504C526.018 138.504 526.829 138.749 527.426 139.24L527.97 142.824L526.146 143.048L525.602 140.616C525.24 140.488 524.877 140.424 524.514 140.424C523.682 140.424 522.989 140.776 522.434 141.48C521.88 142.163 521.602 143.059 521.602 144.168V151.176H524.898V153H516.866V151.176H519.362V140.584H516.802V138.76H521.474V141.32C521.752 140.531 522.2 139.869 522.818 139.336C523.458 138.781 524.184 138.504 524.994 138.504Z" fill="black"/>
<path d="M463.832 234H448.344V231.952H450.968V215.248H448.344V213.2H463.544L464.184 219.088L462.136 219.312L461.496 215.248H453.304V222.416H463.128V224.464H453.304V231.952H461.784L462.424 227.888L464.44 228.112L463.832 234ZM483.861 234H476.661V232.176H479.125V225.552C479.125 224.016 478.815 222.939 478.197 222.32C477.578 221.68 476.789 221.36 475.829 221.36C474.549 221.36 473.514 221.787 472.725 222.64C471.957 223.472 471.551 224.432 471.509 225.52V232.176H474.005V234H466.773V232.176H469.269V221.584H466.709V219.76H471.509V222.288C472.533 220.411 474.197 219.472 476.501 219.472C477.887 219.472 479.05 219.899 479.989 220.752C480.927 221.605 481.397 222.981 481.397 224.88V232.176H483.861V234ZM498.076 229.904C497.884 231.12 497.276 232.165 496.252 233.04C495.228 233.893 493.842 234.32 492.092 234.32C490.087 234.32 488.466 233.691 487.228 232.432C485.991 231.173 485.372 229.392 485.372 227.088C485.372 224.869 485.959 223.045 487.132 221.616C488.306 220.187 489.895 219.472 491.9 219.472C493.863 219.472 495.356 220.091 496.38 221.328C497.404 222.565 497.927 224.027 497.948 225.712C497.948 226.267 497.884 226.832 497.756 227.408H487.74C487.868 230.736 489.372 232.4 492.252 232.4C493.383 232.4 494.268 232.133 494.908 231.6C495.548 231.067 495.975 230.363 496.188 229.488L498.076 229.904ZM495.58 225.744C495.687 224.677 495.431 223.675 494.812 222.736C494.215 221.797 493.223 221.328 491.836 221.328C490.514 221.328 489.543 221.765 488.924 222.64C488.306 223.515 487.922 224.549 487.772 225.744H495.58ZM526.516 234H519.7V232.176H521.78V225.552C521.78 224.016 521.47 222.939 520.852 222.32C520.254 221.68 519.486 221.36 518.548 221.36C517.246 221.36 516.244 221.851 515.54 222.832C514.836 223.813 514.473 224.752 514.452 225.648V232.176H516.916V234H510.132V232.176H512.18V225.552C512.18 223.995 511.881 222.907 511.284 222.288C510.686 221.669 509.929 221.36 509.012 221.36C507.689 221.36 506.676 221.84 505.972 222.8C505.289 223.739 504.926 224.667 504.884 225.584V232.176H507.508V234H500.148V232.176H502.644V221.584H500.116V219.76H504.884V222.416C505.353 221.563 505.982 220.859 506.772 220.304C507.561 219.749 508.521 219.472 509.652 219.472C510.761 219.472 511.721 219.749 512.532 220.304C513.364 220.859 513.929 221.723 514.228 222.896C514.654 221.893 515.284 221.072 516.116 220.432C516.969 219.792 518.014 219.472 519.252 219.472C520.617 219.472 521.748 219.899 522.644 220.752C523.561 221.605 524.02 222.981 524.02 224.88V232.176H526.516V234ZM542.127 221.584H540.431L535.407 234L533.487 238.992H535.919V240.816H528.687V238.992H531.343L533.199 233.968L528.015 221.584H526.319V219.76H532.911V221.584H530.415L534.415 231.152H534.607L538.159 221.584H535.855V219.76H542.127V221.584Z" fill="black"/>
<path d="M459.944 294.248H457.224V310.952H459.816V313H452.424V310.952H454.856V297.704H454.728L447.752 311.944H446.504L439.368 297.608H439.24V310.952H441.736V313H434.376V310.952H437V294.248H434.28V292.2H439.048L447.144 308.488H447.272L455.144 292.2H459.944V294.248ZM475.701 305.864C475.701 308.019 475.061 309.8 473.781 311.208C472.501 312.616 470.762 313.32 468.565 313.32C466.41 313.32 464.714 312.637 463.477 311.272C462.261 309.907 461.653 308.147 461.653 305.992C461.653 303.923 462.25 302.152 463.445 300.68C464.639 299.187 466.389 298.44 468.693 298.44C471.018 298.44 472.767 299.176 473.941 300.648C475.114 302.099 475.701 303.837 475.701 305.864ZM473.333 305.832C473.333 304.211 472.917 302.899 472.085 301.896C471.274 300.872 470.122 300.36 468.629 300.36C467.135 300.36 465.983 300.883 465.173 301.928C464.383 302.973 463.989 304.285 463.989 305.864C463.989 307.421 464.383 308.733 465.173 309.8C465.962 310.867 467.114 311.4 468.629 311.4C470.143 311.4 471.306 310.877 472.117 309.832C472.927 308.765 473.333 307.432 473.333 305.832ZM493.995 313H489.291V310.12C488.822 310.973 488.182 311.72 487.371 312.36C486.56 313 485.504 313.32 484.203 313.32C482.368 313.32 480.886 312.701 479.755 311.464C478.646 310.205 478.091 308.467 478.091 306.248C478.091 304.349 478.582 302.579 479.563 300.936C480.544 299.293 482.198 298.472 484.523 298.472C486.742 298.472 488.331 299.336 489.291 301.064V292.808H485.835V290.984H491.531V311.176H493.995V313ZM489.291 306.696V304.424C489.248 303.229 488.811 302.259 487.979 301.512C487.147 300.765 486.166 300.392 485.035 300.392C483.456 300.392 482.294 300.968 481.547 302.12C480.822 303.272 480.459 304.595 480.459 306.088C480.459 307.837 480.864 309.16 481.675 310.056C482.507 310.952 483.542 311.4 484.779 311.4C486.059 311.4 487.115 310.888 487.947 309.864C488.8 308.819 489.248 307.763 489.291 306.696ZM508.358 308.904C508.166 310.12 507.558 311.165 506.534 312.04C505.51 312.893 504.123 313.32 502.374 313.32C500.368 313.32 498.747 312.691 497.51 311.432C496.272 310.173 495.654 308.392 495.654 306.088C495.654 303.869 496.24 302.045 497.414 300.616C498.587 299.187 500.176 298.472 502.182 298.472C504.144 298.472 505.638 299.091 506.662 300.328C507.686 301.565 508.208 303.027 508.23 304.712C508.23 305.267 508.166 305.832 508.038 306.408H498.022C498.15 309.736 499.654 311.4 502.534 311.4C503.664 311.4 504.55 311.133 505.19 310.6C505.83 310.067 506.256 309.363 506.47 308.488L508.358 308.904ZM505.862 304.744C505.968 303.677 505.712 302.675 505.094 301.736C504.496 300.797 503.504 300.328 502.118 300.328C500.795 300.328 499.824 300.765 499.206 301.64C498.587 302.515 498.203 303.549 498.054 304.744H505.862ZM517.341 313H510.109V311.176H512.605V292.808H510.077V290.984H514.845V311.176H517.341V313ZM520.081 297.672C520.678 297.267 521.457 296.893 522.417 296.552C523.398 296.189 524.422 296.008 525.489 296.008C527.174 296.008 528.561 296.445 529.649 297.32C530.758 298.195 531.313 299.453 531.313 301.096C531.313 302.141 531.014 303.112 530.417 304.008C529.841 304.883 528.806 305.555 527.313 306.024V306.152C529.211 306.472 530.502 307.123 531.185 308.104C531.867 309.085 532.209 310.184 532.209 311.4C532.209 313.256 531.601 314.739 530.385 315.848C529.19 316.957 527.547 317.512 525.457 317.512C523.494 317.512 522.001 317.075 520.977 316.2C519.953 315.325 519.313 314.259 519.057 313L520.881 312.36C521.179 313.213 521.67 313.949 522.353 314.568C523.035 315.187 524.049 315.496 525.393 315.496C527.099 315.496 528.241 315.059 528.817 314.184C529.414 313.309 529.713 312.339 529.713 311.272C529.713 310.013 529.265 309.032 528.369 308.328C527.473 307.624 525.905 307.24 523.665 307.176V305.448C525.67 305.363 527.035 304.893 527.761 304.04C528.486 303.165 528.849 302.28 528.849 301.384C528.849 300.339 528.507 299.517 527.825 298.92C527.163 298.323 526.235 298.024 525.041 298.024C523.995 298.024 522.971 298.291 521.969 298.824L521.393 301.416L519.537 301.192L520.081 297.672ZM554.905 302.568C554.905 305.619 553.966 308.125 552.089 310.088C550.233 312.029 547.662 313 544.377 313H534.969V310.984H537.593V294.216H534.969V292.2H544.281C547.673 292.2 550.286 293.181 552.121 295.144C553.977 297.085 554.905 299.56 554.905 302.568ZM552.409 302.6C552.409 300.083 551.705 298.056 550.297 296.52C548.91 294.984 546.894 294.216 544.249 294.216H539.929V310.984H544.249C546.894 310.984 548.91 310.237 550.297 308.744C551.705 307.229 552.409 305.181 552.409 302.6Z" fill="black"/>
<rect x="698.5" y="75.5" width="251" height="295" rx="27.5" fill="#FFF7CE" stroke="#C4AC32" stroke-width="3"/>
<path d="M794.461 49.54C794.461 50.956 794.209 52.348 793.705 53.716C793.225 55.06 792.445 56.176 791.365 57.064C790.309 57.928 788.905 58.36 787.153 58.36C784.729 58.36 782.965 57.46 781.861 55.66V63.616H785.569V65.668H776.497V63.616H779.341V44.032H776.461V41.98H781.861V45.328C782.341 44.368 783.037 43.516 783.949 42.772C784.861 42.028 786.061 41.656 787.549 41.656C789.613 41.656 791.281 42.352 792.553 43.744C793.825 45.136 794.461 47.068 794.461 49.54ZM791.797 49.756C791.797 47.836 791.329 46.372 790.393 45.364C789.457 44.332 788.293 43.816 786.901 43.816C785.461 43.816 784.273 44.392 783.337 45.544C782.401 46.672 781.909 47.848 781.861 49.072V51.448C781.861 52.792 782.329 53.92 783.265 54.832C784.201 55.744 785.329 56.2 786.649 56.2C788.449 56.2 789.757 55.552 790.573 54.256C791.389 52.96 791.797 51.46 791.797 49.756ZM804.678 58H796.542V55.948H799.35V35.284H796.506V33.232H801.87V55.948H804.678V58ZM808.301 43.204C809.141 42.652 810.029 42.256 810.965 42.016C811.901 41.776 812.897 41.656 813.953 41.656C817.769 41.656 819.677 43.444 819.677 47.02V54.652C819.677 55.804 820.133 56.38 821.045 56.38C821.453 56.38 821.813 56.308 822.125 56.164L822.161 57.82C821.513 58.18 820.817 58.36 820.073 58.36C818.177 58.36 817.205 57.28 817.157 55.12V55.048C816.653 55.912 815.933 56.68 814.997 57.352C814.085 58.024 812.981 58.36 811.685 58.36C810.629 58.36 809.549 58.036 808.445 57.388C807.365 56.74 806.825 55.564 806.825 53.86C806.825 51.844 807.617 50.524 809.201 49.9C810.809 49.252 812.513 48.928 814.313 48.928C814.793 48.928 815.273 48.94 815.753 48.964C816.257 48.988 816.725 49.024 817.157 49.072V47.632C817.157 46.48 816.905 45.544 816.401 44.824C815.921 44.104 814.961 43.744 813.521 43.744C812.345 43.744 811.313 43.96 810.425 44.392L809.813 47.164L807.725 46.912L808.301 43.204ZM817.157 51.988V50.764C816.701 50.74 816.221 50.704 815.717 50.656C815.213 50.608 814.697 50.584 814.169 50.584C812.969 50.584 811.877 50.776 810.893 51.16C809.933 51.52 809.453 52.324 809.453 53.572C809.453 54.604 809.777 55.312 810.425 55.696C811.073 56.08 811.745 56.272 812.441 56.272C813.545 56.272 814.577 55.888 815.537 55.12C816.521 54.352 817.061 53.308 817.157 51.988ZM840.086 44.032H838.178L832.526 58L830.366 63.616H833.102V65.668H824.966V63.616H827.954L830.042 57.964L824.21 44.032H822.302V41.98H829.718V44.032H826.91L831.41 54.796H831.626L835.622 44.032H833.03V41.98H840.086V44.032ZM855.603 53.392C855.387 54.76 854.703 55.936 853.551 56.92C852.399 57.88 850.839 58.36 848.871 58.36C846.615 58.36 844.791 57.652 843.399 56.236C842.007 54.82 841.311 52.816 841.311 50.224C841.311 47.728 841.971 45.676 843.291 44.068C844.611 42.46 846.399 41.656 848.655 41.656C850.863 41.656 852.543 42.352 853.695 43.744C854.847 45.136 855.435 46.78 855.459 48.676C855.459 49.3 855.387 49.936 855.243 50.584H843.975C844.119 54.328 845.811 56.2 849.051 56.2C850.323 56.2 851.319 55.9 852.039 55.3C852.759 54.7 853.239 53.908 853.479 52.924L855.603 53.392ZM852.795 48.712C852.915 47.512 852.627 46.384 851.931 45.328C851.259 44.272 850.143 43.744 848.583 43.744C847.095 43.744 846.003 44.236 845.307 45.22C844.611 46.204 844.179 47.368 844.011 48.712H852.795ZM867.078 41.692C868.23 41.692 869.142 41.968 869.814 42.52L870.426 46.552L868.374 46.804L867.762 44.068C867.354 43.924 866.946 43.852 866.538 43.852C865.602 43.852 864.822 44.248 864.198 45.04C863.574 45.808 863.262 46.816 863.262 48.064V55.948H866.97V58H857.934V55.948H860.742V44.032H857.862V41.98H863.118V44.86C863.43 43.972 863.934 43.228 864.63 42.628C865.35 42.004 866.166 41.692 867.078 41.692Z" fill="black"/>
<rect x="738.5" y="115.5" width="171" height="53" rx="6.5" fill="#F8BEE0" stroke="#B828C5" stroke-width="3"/>
<rect x="738.5" y="196.5" width="171" height="53" rx="6.5" fill="#F8BEE0" stroke="#B828C5" stroke-width="3"/>
<rect x="738.5" y="275.5" width="171" height="53" rx="6.5" fill="#F8BEE0" stroke="#B828C5" stroke-width="3"/>
<path d="M804.728 134.248H802.968L797.4 153H795.512L790.04 136.36H789.912L784.6 153H782.712L776.76 134.248H775V132.2H782.2V134.248H779.256L783.64 149.192H783.768L788.568 134.248H786.488V132.2H793.656V134.248H791.576L796.44 149.288H796.568L800.6 134.248H797.592V132.2H804.728V134.248ZM806.061 139.848C806.807 139.357 807.597 139.005 808.429 138.792C809.261 138.579 810.146 138.472 811.085 138.472C814.477 138.472 816.173 140.061 816.173 143.24V150.024C816.173 151.048 816.578 151.56 817.389 151.56C817.751 151.56 818.071 151.496 818.349 151.368L818.381 152.84C817.805 153.16 817.186 153.32 816.525 153.32C814.839 153.32 813.975 152.36 813.933 150.44V150.376C813.485 151.144 812.845 151.827 812.013 152.424C811.202 153.021 810.221 153.32 809.069 153.32C808.13 153.32 807.17 153.032 806.189 152.456C805.229 151.88 804.749 150.835 804.749 149.32C804.749 147.528 805.453 146.355 806.861 145.8C808.29 145.224 809.805 144.936 811.405 144.936C811.831 144.936 812.258 144.947 812.685 144.968C813.133 144.989 813.549 145.021 813.933 145.064V143.784C813.933 142.76 813.709 141.928 813.261 141.288C812.834 140.648 811.981 140.328 810.701 140.328C809.655 140.328 808.738 140.52 807.949 140.904L807.405 143.368L805.549 143.144L806.061 139.848ZM813.933 147.656V146.568C813.527 146.547 813.101 146.515 812.653 146.472C812.205 146.429 811.746 146.408 811.277 146.408C810.21 146.408 809.239 146.579 808.365 146.92C807.511 147.24 807.085 147.955 807.085 149.064C807.085 149.981 807.373 150.611 807.949 150.952C808.525 151.293 809.122 151.464 809.741 151.464C810.722 151.464 811.639 151.123 812.493 150.44C813.367 149.757 813.847 148.829 813.933 147.656ZM826.81 153H819.578V151.176H822.074V132.808H819.546V130.984H824.314V151.176H826.81V153ZM843.726 153H837.006V151.176H839.15L835.246 146.344H832.718V151.176H834.766V153H827.982V151.176H830.446V132.808H827.918V130.984H832.718V144.616H835.278L838.542 140.584H836.334V138.76H842.99V140.584H840.814L837.006 145.288L841.71 151.176H843.726V153ZM857.451 148.904C857.259 150.12 856.651 151.165 855.627 152.04C854.603 152.893 853.217 153.32 851.467 153.32C849.462 153.32 847.841 152.691 846.603 151.432C845.366 150.173 844.747 148.392 844.747 146.088C844.747 143.869 845.334 142.045 846.507 140.616C847.681 139.187 849.27 138.472 851.275 138.472C853.238 138.472 854.731 139.091 855.755 140.328C856.779 141.565 857.302 143.027 857.323 144.712C857.323 145.267 857.259 145.832 857.131 146.408H847.115C847.243 149.736 848.747 151.4 851.627 151.4C852.758 151.4 853.643 151.133 854.283 150.6C854.923 150.067 855.35 149.363 855.563 148.488L857.451 148.904ZM854.955 144.744C855.062 143.677 854.806 142.675 854.187 141.736C853.59 140.797 852.598 140.328 851.211 140.328C849.889 140.328 848.918 140.765 848.299 141.64C847.681 142.515 847.297 143.549 847.147 144.744H854.955ZM867.651 138.504C868.675 138.504 869.485 138.749 870.083 139.24L870.627 142.824L868.803 143.048L868.259 140.616C867.896 140.488 867.533 140.424 867.171 140.424C866.339 140.424 865.645 140.776 865.091 141.48C864.536 142.163 864.259 143.059 864.259 144.168V151.176H867.555V153H859.523V151.176H862.019V140.584H859.459V138.76H864.131V141.32C864.408 140.531 864.856 139.869 865.475 139.336C866.115 138.781 866.84 138.504 867.651 138.504Z" fill="black"/>
<path d="M797.408 219.568C797.408 221.744 796.747 223.408 795.424 224.56C794.101 225.691 792.416 226.256 790.368 226.256H786.304V231.952H789.888V234H781.344V231.952H783.968V215.248H781.344V213.2H790.176C792.757 213.2 794.603 213.829 795.712 215.088C796.843 216.347 797.408 217.84 797.408 219.568ZM794.912 219.632C794.912 218.288 794.517 217.221 793.728 216.432C792.939 215.643 791.691 215.248 789.984 215.248H786.304V224.208H790.08C793.301 224.208 794.912 222.683 794.912 219.632ZM806.247 234H799.015V232.176H801.511V213.808H798.983V211.984H803.751V232.176H806.247V234ZM809.467 220.848C810.214 220.357 811.003 220.005 811.835 219.792C812.667 219.579 813.552 219.472 814.491 219.472C817.883 219.472 819.579 221.061 819.579 224.24V231.024C819.579 232.048 819.984 232.56 820.795 232.56C821.158 232.56 821.478 232.496 821.755 232.368L821.787 233.84C821.211 234.16 820.592 234.32 819.931 234.32C818.246 234.32 817.382 233.36 817.339 231.44V231.376C816.891 232.144 816.251 232.827 815.419 233.424C814.608 234.021 813.627 234.32 812.475 234.32C811.536 234.32 810.576 234.032 809.595 233.456C808.635 232.88 808.155 231.835 808.155 230.32C808.155 228.528 808.859 227.355 810.267 226.8C811.696 226.224 813.211 225.936 814.811 225.936C815.238 225.936 815.664 225.947 816.091 225.968C816.539 225.989 816.955 226.021 817.339 226.064V224.784C817.339 223.76 817.115 222.928 816.667 222.288C816.24 221.648 815.387 221.328 814.107 221.328C813.062 221.328 812.144 221.52 811.355 221.904L810.811 224.368L808.955 224.144L809.467 220.848ZM817.339 228.656V227.568C816.934 227.547 816.507 227.515 816.059 227.472C815.611 227.429 815.152 227.408 814.683 227.408C813.616 227.408 812.646 227.579 811.771 227.92C810.918 228.24 810.491 228.955 810.491 230.064C810.491 230.981 810.779 231.611 811.355 231.952C811.931 232.293 812.528 232.464 813.147 232.464C814.128 232.464 815.046 232.123 815.899 231.44C816.774 230.757 817.254 229.829 817.339 228.656ZM837.72 221.584H836.024L831 234L829.08 238.992H831.512V240.816H824.28V238.992H826.936L828.792 233.968L823.608 221.584H821.912V219.76H828.504V221.584H826.008L830.008 231.152H830.2L833.752 221.584H831.448V219.76H837.72V221.584ZM851.514 229.904C851.322 231.12 850.714 232.165 849.69 233.04C848.666 233.893 847.279 234.32 845.53 234.32C843.524 234.32 841.903 233.691 840.666 232.432C839.428 231.173 838.81 229.392 838.81 227.088C838.81 224.869 839.396 223.045 840.57 221.616C841.743 220.187 843.332 219.472 845.338 219.472C847.3 219.472 848.794 220.091 849.818 221.328C850.842 222.565 851.364 224.027 851.386 225.712C851.386 226.267 851.322 226.832 851.194 227.408H841.178C841.306 230.736 842.81 232.4 845.69 232.4C846.82 232.4 847.706 232.133 848.346 231.6C848.986 231.067 849.412 230.363 849.626 229.488L851.514 229.904ZM849.018 225.744C849.124 224.677 848.868 223.675 848.25 222.736C847.652 221.797 846.66 221.328 845.274 221.328C843.951 221.328 842.98 221.765 842.362 222.64C841.743 223.515 841.359 224.549 841.21 225.744H849.018ZM861.713 219.504C862.737 219.504 863.548 219.749 864.145 220.24L864.689 223.824L862.865 224.048L862.321 221.616C861.958 221.488 861.596 221.424 861.233 221.424C860.401 221.424 859.708 221.776 859.153 222.48C858.598 223.163 858.321 224.059 858.321 225.168V232.176H861.617V234H853.585V232.176H856.081V221.584H853.521V219.76H858.193V222.32C858.47 221.531 858.918 220.869 859.537 220.336C860.177 219.781 860.902 219.504 861.713 219.504Z" fill="black"/>
<path d="M788.944 294.248H786.224V310.952H788.816V313H781.424V310.952H783.856V297.704H783.728L776.752 311.944H775.504L768.368 297.608H768.24V310.952H770.736V313H763.376V310.952H766V294.248H763.28V292.2H768.048L776.144 308.488H776.272L784.144 292.2H788.944V294.248ZM804.701 305.864C804.701 308.019 804.061 309.8 802.781 311.208C801.501 312.616 799.762 313.32 797.565 313.32C795.41 313.32 793.714 312.637 792.477 311.272C791.261 309.907 790.653 308.147 790.653 305.992C790.653 303.923 791.25 302.152 792.445 300.68C793.639 299.187 795.389 298.44 797.693 298.44C800.018 298.44 801.767 299.176 802.941 300.648C804.114 302.099 804.701 303.837 804.701 305.864ZM802.333 305.832C802.333 304.211 801.917 302.899 801.085 301.896C800.274 300.872 799.122 300.36 797.629 300.36C796.135 300.36 794.983 300.883 794.173 301.928C793.383 302.973 792.989 304.285 792.989 305.864C792.989 307.421 793.383 308.733 794.173 309.8C794.962 310.867 796.114 311.4 797.629 311.4C799.143 311.4 800.306 310.877 801.117 309.832C801.927 308.765 802.333 307.432 802.333 305.832ZM822.995 313H818.291V310.12C817.822 310.973 817.182 311.72 816.371 312.36C815.56 313 814.504 313.32 813.203 313.32C811.368 313.32 809.886 312.701 808.755 311.464C807.646 310.205 807.091 308.467 807.091 306.248C807.091 304.349 807.582 302.579 808.563 300.936C809.544 299.293 811.198 298.472 813.523 298.472C815.742 298.472 817.331 299.336 818.291 301.064V292.808H814.835V290.984H820.531V311.176H822.995V313ZM818.291 306.696V304.424C818.248 303.229 817.811 302.259 816.979 301.512C816.147 300.765 815.166 300.392 814.035 300.392C812.456 300.392 811.294 300.968 810.547 302.12C809.822 303.272 809.459 304.595 809.459 306.088C809.459 307.837 809.864 309.16 810.675 310.056C811.507 310.952 812.542 311.4 813.779 311.4C815.059 311.4 816.115 310.888 816.947 309.864C817.8 308.819 818.248 307.763 818.291 306.696ZM837.358 308.904C837.166 310.12 836.558 311.165 835.534 312.04C834.51 312.893 833.123 313.32 831.374 313.32C829.368 313.32 827.747 312.691 826.51 311.432C825.272 310.173 824.654 308.392 824.654 306.088C824.654 303.869 825.24 302.045 826.414 300.616C827.587 299.187 829.176 298.472 831.182 298.472C833.144 298.472 834.638 299.091 835.662 300.328C836.686 301.565 837.208 303.027 837.23 304.712C837.23 305.267 837.166 305.832 837.038 306.408H827.022C827.15 309.736 828.654 311.4 831.534 311.4C832.664 311.4 833.55 311.133 834.19 310.6C834.83 310.067 835.256 309.363 835.47 308.488L837.358 308.904ZM834.862 304.744C834.968 303.677 834.712 302.675 834.094 301.736C833.496 300.797 832.504 300.328 831.118 300.328C829.795 300.328 828.824 300.765 828.206 301.64C827.587 302.515 827.203 303.549 827.054 304.744H834.862ZM846.341 313H839.109V311.176H841.605V292.808H839.077V290.984H843.845V311.176H846.341V313ZM849.081 297.672C849.678 297.267 850.457 296.893 851.417 296.552C852.398 296.189 853.422 296.008 854.489 296.008C856.174 296.008 857.561 296.445 858.649 297.32C859.758 298.195 860.313 299.453 860.313 301.096C860.313 302.141 860.014 303.112 859.417 304.008C858.841 304.883 857.806 305.555 856.313 306.024V306.152C858.211 306.472 859.502 307.123 860.185 308.104C860.867 309.085 861.209 310.184 861.209 311.4C861.209 313.256 860.601 314.739 859.385 315.848C858.19 316.957 856.547 317.512 854.457 317.512C852.494 317.512 851.001 317.075 849.977 316.2C848.953 315.325 848.313 314.259 848.057 313L849.881 312.36C850.179 313.213 850.67 313.949 851.353 314.568C852.035 315.187 853.049 315.496 854.393 315.496C856.099 315.496 857.241 315.059 857.817 314.184C858.414 313.309 858.713 312.339 858.713 311.272C858.713 310.013 858.265 309.032 857.369 308.328C856.473 307.624 854.905 307.24 852.665 307.176V305.448C854.67 305.363 856.035 304.893 856.761 304.04C857.486 303.165 857.849 302.28 857.849 301.384C857.849 300.339 857.507 299.517 856.825 298.92C856.163 298.323 855.235 298.024 854.041 298.024C852.995 298.024 851.971 298.291 850.969 298.824L850.393 301.416L848.537 301.192L849.081 297.672ZM883.905 302.568C883.905 305.619 882.966 308.125 881.089 310.088C879.233 312.029 876.662 313 873.377 313H863.969V310.984H866.593V294.216H863.969V292.2H873.281C876.673 292.2 879.286 293.181 881.121 295.144C882.977 297.085 883.905 299.56 883.905 302.568ZM881.409 302.6C881.409 300.083 880.705 298.056 879.297 296.52C877.91 294.984 875.894 294.216 873.249 294.216H868.929V310.984H873.249C875.894 310.984 877.91 310.237 879.297 308.744C880.705 307.229 881.409 305.181 881.409 302.6Z" fill="black"/>
</svg>
