<svg width="920" height="594" viewBox="0 0 920 594" fill="none" xmlns="http://www.w3.org/2000/svg">
<rect width="920" height="594" fill="#EDEDED"/>
<rect width="920" height="594" fill="white"/>
<rect x="163" y="485" width="591" height="71" rx="15" fill="#F4F4F4"/>
<rect x="408.508" y="500" width="101.985" height="41" rx="20.5" fill="#A3F096"/>
<path d="M457.313 518.478L455.993 518.618L455.593 516.018H450.553V521.078H456.533V522.358H450.553V526.458H452.853V527.738H447.453V526.458H449.093V516.018H447.453V514.738H456.893L457.313 518.478ZM462.685 527.738H458.165V526.598H459.725V515.118H458.145V513.978H461.125V526.598H462.685V527.738ZM472.864 519.978H471.804L468.664 527.738L467.464 530.858H468.984V531.998H464.464V530.858H466.124L467.284 527.718L464.044 519.978H462.984V518.838H467.104V519.978H465.544L468.044 525.958H468.164L470.384 519.978H468.944V518.838H472.864V519.978Z" fill="black"/>
<rect x="520.237" y="500" width="101.985" height="41" rx="20.5" fill="#96E4EF"/>
<path d="M556.218 527.738H551.598V526.458H553.338L552.398 523.958H546.838L545.838 526.458H547.718V527.738H543.138V526.458H544.358L548.618 516.018H546.538V514.738H550.238L554.898 526.458H556.218V527.738ZM551.978 522.818L549.738 516.858H549.618L547.278 522.818H551.978ZM563.172 525.338C562.932 527.071 561.992 527.938 560.352 527.938C559.459 527.938 558.772 527.684 558.292 527.178C557.825 526.671 557.592 525.984 557.592 525.118V519.958H556.152V518.838H557.592V515.978H558.992V518.838H562.472V519.958H558.992V524.938C558.992 525.471 559.105 525.904 559.332 526.238C559.572 526.558 559.959 526.718 560.492 526.718C560.839 526.718 561.159 526.611 561.452 526.398C561.759 526.184 561.979 525.718 562.112 524.998L563.172 525.338ZM570.594 525.338C570.354 527.071 569.414 527.938 567.774 527.938C566.88 527.938 566.194 527.684 565.714 527.178C565.247 526.671 565.014 525.984 565.014 525.118V519.958H563.574V518.838H565.014V515.978H566.414V518.838H569.894V519.958H566.414V524.938C566.414 525.471 566.527 525.904 566.754 526.238C566.994 526.558 567.38 526.718 567.914 526.718C568.26 526.718 568.58 526.611 568.874 526.398C569.18 526.184 569.4 525.718 569.534 524.998L570.594 525.338ZM572.316 519.518C572.782 519.211 573.276 518.991 573.796 518.858C574.316 518.724 574.869 518.658 575.456 518.658C577.576 518.658 578.636 519.651 578.636 521.638V525.878C578.636 526.518 578.889 526.838 579.396 526.838C579.622 526.838 579.822 526.798 579.996 526.718L580.016 527.638C579.656 527.838 579.269 527.938 578.856 527.938C577.802 527.938 577.262 527.338 577.236 526.138V526.098C576.956 526.578 576.556 527.004 576.036 527.378C575.529 527.751 574.916 527.938 574.196 527.938C573.609 527.938 573.009 527.758 572.396 527.398C571.796 527.038 571.496 526.384 571.496 525.438C571.496 524.318 571.936 523.584 572.816 523.238C573.709 522.878 574.656 522.698 575.656 522.698C575.922 522.698 576.189 522.704 576.456 522.718C576.736 522.731 576.996 522.751 577.236 522.778V521.978C577.236 521.338 577.096 520.818 576.816 520.418C576.549 520.018 576.016 519.818 575.216 519.818C574.562 519.818 573.989 519.938 573.496 520.178L573.156 521.718L571.996 521.578L572.316 519.518ZM577.236 524.398V523.718C576.982 523.704 576.716 523.684 576.436 523.658C576.156 523.631 575.869 523.618 575.576 523.618C574.909 523.618 574.302 523.724 573.756 523.938C573.222 524.138 572.956 524.584 572.956 525.278C572.956 525.851 573.136 526.244 573.496 526.458C573.856 526.671 574.229 526.778 574.616 526.778C575.229 526.778 575.802 526.564 576.336 526.138C576.882 525.711 577.182 525.131 577.236 524.398ZM588.924 524.738C588.804 525.511 588.45 526.238 587.864 526.918C587.29 527.598 586.39 527.938 585.164 527.938C583.937 527.938 582.957 527.544 582.224 526.758C581.49 525.958 581.124 524.844 581.124 523.418C581.124 522.191 581.47 521.091 582.164 520.118C582.857 519.144 583.897 518.658 585.284 518.658C585.87 518.658 586.41 518.724 586.904 518.858C587.397 518.991 587.87 519.231 588.324 519.578L588.664 521.718L587.504 521.858L587.164 520.358C586.63 520.024 585.997 519.858 585.264 519.858C584.317 519.858 583.637 520.198 583.224 520.878C582.81 521.558 582.604 522.378 582.604 523.338C582.604 524.404 582.837 525.238 583.304 525.838C583.77 526.438 584.444 526.738 585.324 526.738C586.657 526.738 587.457 525.984 587.724 524.478L588.924 524.738ZM599.782 527.738H595.582V526.598H596.922L594.482 523.578H592.902V526.598H594.182V527.738H589.942V526.598H591.482V515.118H589.902V513.978H592.902V522.498H594.502L596.542 519.978H595.162V518.838H599.322V519.978H597.962L595.582 522.918L598.522 526.598H599.782V527.738Z" fill="black"/>
<rect x="631.967" y="500" width="101.985" height="41" rx="20.5" fill="#C5BCFF"/>
<path d="M673.03 521.218C673.03 523.124 672.443 524.691 671.27 525.918C670.11 527.131 668.503 527.738 666.45 527.738H660.57V526.478H662.21V515.998H660.57V514.738H666.39C668.51 514.738 670.143 515.351 671.29 516.578C672.45 517.791 673.03 519.338 673.03 521.218ZM671.47 521.238C671.47 519.664 671.03 518.398 670.15 517.438C669.283 516.478 668.023 515.998 666.37 515.998H663.67V526.478H666.37C668.023 526.478 669.283 526.011 670.15 525.078C671.03 524.131 671.47 522.851 671.47 521.238ZM679.511 518.678C680.151 518.678 680.658 518.831 681.031 519.138L681.371 521.378L680.231 521.518L679.891 519.998C679.664 519.918 679.438 519.878 679.211 519.878C678.691 519.878 678.258 520.098 677.911 520.538C677.564 520.964 677.391 521.524 677.391 522.218V526.598H679.451V527.738H674.431V526.598H675.991V519.978H674.391V518.838H677.311V520.438C677.484 519.944 677.764 519.531 678.151 519.198C678.551 518.851 679.004 518.678 679.511 518.678ZM683.85 519.518C684.316 519.211 684.81 518.991 685.33 518.858C685.85 518.724 686.403 518.658 686.99 518.658C689.11 518.658 690.17 519.651 690.17 521.638V525.878C690.17 526.518 690.423 526.838 690.93 526.838C691.156 526.838 691.356 526.798 691.53 526.718L691.55 527.638C691.19 527.838 690.803 527.938 690.39 527.938C689.336 527.938 688.796 527.338 688.77 526.138V526.098C688.49 526.578 688.09 527.004 687.57 527.378C687.063 527.751 686.45 527.938 685.73 527.938C685.143 527.938 684.543 527.758 683.93 527.398C683.33 527.038 683.03 526.384 683.03 525.438C683.03 524.318 683.47 523.584 684.35 523.238C685.243 522.878 686.19 522.698 687.19 522.698C687.456 522.698 687.723 522.704 687.99 522.718C688.27 522.731 688.53 522.751 688.77 522.778V521.978C688.77 521.338 688.63 520.818 688.35 520.418C688.083 520.018 687.55 519.818 686.75 519.818C686.096 519.818 685.523 519.938 685.03 520.178L684.69 521.718L683.53 521.578L683.85 519.518ZM688.77 524.398V523.718C688.516 523.704 688.25 523.684 687.97 523.658C687.69 523.631 687.403 523.618 687.11 523.618C686.443 523.618 685.836 523.724 685.29 523.938C684.756 524.138 684.49 524.584 684.49 525.278C684.49 525.851 684.67 526.244 685.03 526.458C685.39 526.671 685.763 526.778 686.15 526.778C686.763 526.778 687.336 526.564 687.87 526.138C688.416 525.711 688.716 525.131 688.77 524.398ZM706.646 519.978H705.626L703.006 527.738H701.926L699.206 520.938H699.106L696.446 527.738H695.406L692.686 519.978H691.706V518.838H695.906V519.978H694.206L696.066 525.598H696.166L698.806 518.838H699.746L702.526 525.598H702.626L704.266 519.978H702.646V518.838H706.646V519.978Z" fill="black"/>
<rect x="296.779" y="500" width="101.985" height="41" rx="20.5" fill="#FFD18C"/>
<path d="M345.094 516.018H343.994L340.514 527.738H339.334L335.914 517.338H335.834L332.514 527.738H331.334L327.614 516.018H326.514V514.738H331.014V516.018H329.174L331.914 525.358H331.994L334.994 516.018H333.694V514.738H338.174V516.018H336.874L339.914 525.418H339.994L342.514 516.018H340.634V514.738H345.094V516.018ZM345.927 519.518C346.394 519.211 346.887 518.991 347.407 518.858C347.927 518.724 348.481 518.658 349.067 518.658C351.187 518.658 352.247 519.651 352.247 521.638V525.878C352.247 526.518 352.501 526.838 353.007 526.838C353.234 526.838 353.434 526.798 353.607 526.718L353.627 527.638C353.267 527.838 352.881 527.938 352.467 527.938C351.414 527.938 350.874 527.338 350.847 526.138V526.098C350.567 526.578 350.167 527.004 349.647 527.378C349.141 527.751 348.527 527.938 347.807 527.938C347.221 527.938 346.621 527.758 346.007 527.398C345.407 527.038 345.107 526.384 345.107 525.438C345.107 524.318 345.547 523.584 346.427 523.238C347.321 522.878 348.267 522.698 349.267 522.698C349.534 522.698 349.801 522.704 350.067 522.718C350.347 522.731 350.607 522.751 350.847 522.778V521.978C350.847 521.338 350.707 520.818 350.427 520.418C350.161 520.018 349.627 519.818 348.827 519.818C348.174 519.818 347.601 519.938 347.107 520.178L346.767 521.718L345.607 521.578L345.927 519.518ZM350.847 524.398V523.718C350.594 523.704 350.327 523.684 350.047 523.658C349.767 523.631 349.481 523.618 349.187 523.618C348.521 523.618 347.914 523.724 347.367 523.938C346.834 524.138 346.567 524.584 346.567 525.278C346.567 525.851 346.747 526.244 347.107 526.458C347.467 526.671 347.841 526.778 348.227 526.778C348.841 526.778 349.414 526.564 349.947 526.138C350.494 525.711 350.794 525.131 350.847 524.398ZM358.895 527.738H354.375V526.598H355.935V515.118H354.355V513.978H357.335V526.598H358.895V527.738ZM369.468 527.738H365.268V526.598H366.608L364.168 523.578H362.588V526.598H363.868V527.738H359.628V526.598H361.168V515.118H359.588V513.978H362.588V522.498H364.188L366.228 519.978H364.848V518.838H369.008V519.978H367.648L365.268 522.918L368.208 526.598H369.468V527.738Z" fill="black"/>
<rect x="185.049" y="500" width="101.985" height="41" rx="20.5" fill="#FF9494"/>
<path d="M212.836 527.738H208.216V526.458H209.956L209.016 523.958H203.456L202.456 526.458H204.336V527.738H199.756V526.458H200.976L205.236 516.018H203.156V514.738H206.856L211.516 526.458H212.836V527.738ZM208.596 522.818L206.356 516.858H206.236L203.896 522.818H208.596ZM218.285 527.738H213.545V526.458H215.185V516.018H213.545V514.738H218.285V516.018H216.665V526.458H218.285V527.738ZM220.19 529.218H228.83V530.238H220.19V529.218ZM248.414 516.018H247.314L243.834 527.738H242.654L239.234 517.338H239.154L235.834 527.738H234.654L230.934 516.018H229.834V514.738H234.334V516.018H232.494L235.234 525.358H235.314L238.314 516.018H237.014V514.738H241.494V516.018H240.194L243.234 525.418H243.314L245.834 516.018H243.954V514.738H248.414V516.018ZM249.247 519.518C249.713 519.211 250.207 518.991 250.727 518.858C251.247 518.724 251.8 518.658 252.387 518.658C254.507 518.658 255.567 519.651 255.567 521.638V525.878C255.567 526.518 255.82 526.838 256.327 526.838C256.553 526.838 256.753 526.798 256.927 526.718L256.947 527.638C256.587 527.838 256.2 527.938 255.787 527.938C254.733 527.938 254.193 527.338 254.167 526.138V526.098C253.887 526.578 253.487 527.004 252.967 527.378C252.46 527.751 251.847 527.938 251.127 527.938C250.54 527.938 249.94 527.758 249.327 527.398C248.727 527.038 248.427 526.384 248.427 525.438C248.427 524.318 248.867 523.584 249.747 523.238C250.64 522.878 251.587 522.698 252.587 522.698C252.853 522.698 253.12 522.704 253.387 522.718C253.667 522.731 253.927 522.751 254.167 522.778V521.978C254.167 521.338 254.027 520.818 253.747 520.418C253.48 520.018 252.947 519.818 252.147 519.818C251.493 519.818 250.92 519.938 250.427 520.178L250.087 521.718L248.927 521.578L249.247 519.518ZM254.167 524.398V523.718C253.913 523.704 253.647 523.684 253.367 523.658C253.087 523.631 252.8 523.618 252.507 523.618C251.84 523.618 251.233 523.724 250.687 523.938C250.153 524.138 249.887 524.584 249.887 525.278C249.887 525.851 250.067 526.244 250.427 526.458C250.787 526.671 251.16 526.778 251.547 526.778C252.16 526.778 252.733 526.564 253.267 526.138C253.813 525.711 254.113 525.131 254.167 524.398ZM262.215 527.738H257.695V526.598H259.255V515.118H257.675V513.978H260.655V526.598H262.215V527.738ZM272.787 527.738H268.587V526.598H269.927L267.487 523.578H265.907V526.598H267.187V527.738H262.947V526.598H264.487V515.118H262.907V513.978H265.907V522.498H267.507L269.547 519.978H268.167V518.838H272.327V519.978H270.967L268.587 522.918L271.527 526.598H272.787V527.738Z" fill="black"/>
<path d="M85.2195 33.912H83.8935L80.4875 44H79.0835L75.5475 35.16H75.4175L71.9595 44H70.6075L67.0715 33.912H65.7975V32.43H71.2575V33.912H69.0475L71.4655 41.218H71.5955L75.0275 32.43H76.2495L79.8635 41.218H79.9935L82.1255 33.912H80.0195V32.43H85.2195V33.912ZM97.5664 38.202C97.5664 39.9527 97.0464 41.4 96.0064 42.544C94.9664 43.688 93.5538 44.26 91.7684 44.26C90.0178 44.26 88.6398 43.7053 87.6344 42.596C86.6464 41.4867 86.1524 40.0567 86.1524 38.306C86.1524 36.6247 86.6378 35.186 87.6084 33.99C88.5791 32.7767 90.0004 32.17 91.8724 32.17C93.7618 32.17 95.1831 32.768 96.1364 33.964C97.0898 35.1427 97.5664 36.5553 97.5664 38.202ZM95.6424 38.176C95.6424 36.8587 95.3044 35.7927 94.6284 34.978C93.9698 34.146 93.0338 33.73 91.8204 33.73C90.6071 33.73 89.6711 34.1547 89.0124 35.004C88.3711 35.8533 88.0504 36.9193 88.0504 38.202C88.0504 39.4673 88.3711 40.5333 89.0124 41.4C89.6538 42.2667 90.5898 42.7 91.8204 42.7C93.0511 42.7 93.9958 42.2753 94.6544 41.426C95.3131 40.5593 95.6424 39.476 95.6424 38.176ZM105.905 32.222C106.737 32.222 107.395 32.4213 107.881 32.82L108.323 35.732L106.841 35.914L106.399 33.938C106.104 33.834 105.809 33.782 105.515 33.782C104.839 33.782 104.275 34.068 103.825 34.64C103.374 35.1947 103.149 35.9227 103.149 36.824V42.518H105.827V44H99.3005V42.518H101.329V33.912H99.2485V32.43H103.045V34.51C103.27 33.8687 103.634 33.3313 104.137 32.898C104.657 32.4473 105.246 32.222 105.905 32.222ZM115.657 44H109.781V42.518H111.809V27.594H109.755V26.112H113.629V42.518H115.657V44ZM130.077 44H126.255V41.66C125.874 42.3533 125.354 42.96 124.695 43.48C124.036 44 123.178 44.26 122.121 44.26C120.63 44.26 119.426 43.7573 118.507 42.752C117.606 41.7293 117.155 40.3167 117.155 38.514C117.155 36.9713 117.554 35.5327 118.351 34.198C119.148 32.8633 120.492 32.196 122.381 32.196C124.184 32.196 125.475 32.898 126.255 34.302V27.594H123.447V26.112H128.075V42.518H130.077V44ZM126.255 38.878V37.032C126.22 36.0613 125.865 35.2727 125.189 34.666C124.513 34.0593 123.716 33.756 122.797 33.756C121.514 33.756 120.57 34.224 119.963 35.16C119.374 36.096 119.079 37.1707 119.079 38.384C119.079 39.8053 119.408 40.88 120.067 41.608C120.743 42.336 121.584 42.7 122.589 42.7C123.629 42.7 124.487 42.284 125.163 41.452C125.856 40.6027 126.22 39.7447 126.255 38.878ZM50.5779 52.332H52.3199C49.4426 55.9893 48.0039 59.872 48.0039 63.98C48.0039 65.9907 48.3593 68.01 49.0699 70.038C49.7979 72.066 50.8813 73.9727 52.3199 75.758H50.5259C49.0873 73.8513 48.0386 71.91 47.3799 69.934C46.7213 67.9407 46.3919 65.956 46.3919 63.98C46.3919 61.9693 46.7299 59.9847 47.4059 58.026C48.0993 56.0673 49.1566 54.1693 50.5779 52.332ZM58.6887 52.852C59.226 52.852 59.7027 52.904 60.1187 53.008C60.552 53.112 60.968 53.3373 61.3667 53.684L61.8087 56.362L60.3267 56.544L59.8327 54.568C59.486 54.4293 59.044 54.36 58.5067 54.36C57.1374 54.36 56.4527 55.2787 56.4527 57.116V59.43H59.4427V60.886H56.4527V69.518H59.0787V71H52.6047V69.518H54.6067V60.886H52.9427V59.43H54.6067V57.272C54.6067 55.92 55.0054 54.8453 55.8027 54.048C56.6174 53.2507 57.5794 52.852 58.6887 52.852ZM67.6154 59.222C68.4474 59.222 69.1061 59.4213 69.5914 59.82L70.0334 62.732L68.5514 62.914L68.1094 60.938C67.8148 60.834 67.5201 60.782 67.2254 60.782C66.5494 60.782 65.9861 61.068 65.5354 61.64C65.0848 62.1947 64.8594 62.9227 64.8594 63.824V69.518H67.5374V71H61.0114V69.518H63.0394V60.912H60.9594V59.43H64.7554V61.51C64.9808 60.8687 65.3448 60.3313 65.8474 59.898C66.3674 59.4473 66.9568 59.222 67.6154 59.222ZM73.2554 60.314C73.8621 59.9153 74.5034 59.6293 75.1794 59.456C75.8554 59.2827 76.5747 59.196 77.3374 59.196C80.0934 59.196 81.4714 60.4873 81.4714 63.07V68.582C81.4714 69.414 81.8007 69.83 82.4594 69.83C82.7541 69.83 83.0141 69.778 83.2394 69.674L83.2654 70.87C82.7974 71.13 82.2947 71.26 81.7574 71.26C80.3881 71.26 79.6861 70.48 79.6514 68.92V68.868C79.2874 69.492 78.7674 70.0467 78.0914 70.532C77.4327 71.0173 76.6354 71.26 75.6994 71.26C74.9367 71.26 74.1567 71.026 73.3594 70.558C72.5794 70.09 72.1894 69.2407 72.1894 68.01C72.1894 66.554 72.7614 65.6007 73.9054 65.15C75.0667 64.682 76.2974 64.448 77.5974 64.448C77.9441 64.448 78.2907 64.4567 78.6374 64.474C79.0014 64.4913 79.3394 64.5173 79.6514 64.552V63.512C79.6514 62.68 79.4694 62.004 79.1054 61.484C78.7587 60.964 78.0654 60.704 77.0254 60.704C76.1761 60.704 75.4307 60.86 74.7894 61.172L74.3474 63.174L72.8394 62.992L73.2554 60.314ZM79.6514 66.658V65.774C79.3221 65.7567 78.9754 65.7307 78.6114 65.696C78.2474 65.6613 77.8747 65.644 77.4934 65.644C76.6267 65.644 75.8381 65.7827 75.1274 66.06C74.4341 66.32 74.0874 66.9007 74.0874 67.802C74.0874 68.5473 74.3214 69.0587 74.7894 69.336C75.2574 69.6133 75.7427 69.752 76.2454 69.752C77.0427 69.752 77.7881 69.4747 78.4814 68.92C79.1921 68.3653 79.5821 67.6113 79.6514 66.658ZM105.922 71H100.384V69.518H102.074V64.136C102.074 62.888 101.822 62.0127 101.32 61.51C100.834 60.99 100.21 60.73 99.4478 60.73C98.3904 60.73 97.5758 61.1287 97.0038 61.926C96.4318 62.7233 96.1371 63.486 96.1198 64.214V69.518H98.1218V71H92.6098V69.518H94.2738V64.136C94.2738 62.8707 94.0311 61.9867 93.5458 61.484C93.0604 60.9813 92.4451 60.73 91.6998 60.73C90.6251 60.73 89.8018 61.12 89.2298 61.9C88.6751 62.6627 88.3804 63.4167 88.3458 64.162V69.518H90.4778V71H84.4978V69.518H86.5258V60.912H84.4718V59.43H88.3458V61.588C88.7271 60.8947 89.2384 60.3227 89.8798 59.872C90.5211 59.4213 91.3011 59.196 92.2198 59.196C93.1211 59.196 93.9011 59.4213 94.5598 59.872C95.2358 60.3227 95.6951 61.0247 95.9378 61.978C96.2844 61.1633 96.7958 60.496 97.4718 59.976C98.1651 59.456 99.0144 59.196 100.02 59.196C101.129 59.196 102.048 59.5427 102.776 60.236C103.521 60.9293 103.894 62.0473 103.894 63.59V69.518H105.922V71ZM117.473 67.672C117.317 68.66 116.823 69.5093 115.991 70.22C115.159 70.9133 114.032 71.26 112.611 71.26C110.982 71.26 109.664 70.7487 108.659 69.726C107.654 68.7033 107.151 67.256 107.151 65.384C107.151 63.5813 107.628 62.0993 108.581 60.938C109.534 59.7767 110.826 59.196 112.455 59.196C114.05 59.196 115.263 59.6987 116.095 60.704C116.927 61.7093 117.352 62.8967 117.369 64.266C117.369 64.7167 117.317 65.176 117.213 65.644H109.075C109.179 68.348 110.401 69.7 112.741 69.7C113.66 69.7 114.379 69.4833 114.899 69.05C115.419 68.6167 115.766 68.0447 115.939 67.334L117.473 67.672ZM115.445 64.292C115.532 63.4253 115.324 62.6107 114.821 61.848C114.336 61.0853 113.53 60.704 112.403 60.704C111.328 60.704 110.54 61.0593 110.037 61.77C109.534 62.4807 109.222 63.3213 109.101 64.292H115.445ZM142.545 55.764H140.439V71H139.217L129.415 57.688H129.311V69.336H131.989V71H125.541V69.336H127.491V55.764H125.255V54.1H128.895L138.515 67.126H138.619V55.764H136.071V54.1H142.545V55.764ZM145.386 75.758H143.644C146.521 72.1007 147.96 68.218 147.96 64.11C147.96 62.0993 147.596 60.0887 146.868 58.078C146.157 56.05 145.083 54.1347 143.644 52.332H145.438C146.877 54.2387 147.925 56.1887 148.584 58.182C149.243 60.158 149.572 62.134 149.572 64.11C149.572 66.1033 149.225 68.0793 148.532 70.038C147.856 71.9967 146.807 73.9033 145.386 75.758Z" fill="black"/>
<path d="M414.447 114.672C414.291 115.66 413.797 116.509 412.965 117.22C412.133 117.913 411.006 118.26 409.585 118.26C407.955 118.26 406.638 117.749 405.633 116.726C404.627 115.703 404.125 114.256 404.125 112.384C404.125 110.581 404.601 109.099 405.555 107.938C406.508 106.777 407.799 106.196 409.429 106.196C411.023 106.196 412.237 106.699 413.069 107.704C413.901 108.709 414.325 109.897 414.343 111.266C414.343 111.717 414.291 112.176 414.187 112.644H406.049C406.153 115.348 407.375 116.7 409.715 116.7C410.633 116.7 411.353 116.483 411.873 116.05C412.393 115.617 412.739 115.045 412.913 114.334L414.447 114.672ZM412.419 111.292C412.505 110.425 412.297 109.611 411.795 108.848C411.309 108.085 410.503 107.704 409.377 107.704C408.302 107.704 407.513 108.059 407.011 108.77C406.508 109.481 406.196 110.321 406.075 111.292H412.419ZM428.044 118H422.948V116.518H424.456L421.752 113.19L419.022 116.518H420.4V118H415.59V116.518H417.176L420.816 112.228L417.15 107.912H415.59V106.43H420.868V107.912H419.308L421.908 111.188L424.586 107.912H423.208V106.43H427.836V107.912H426.484L422.87 112.124L426.588 116.518H428.044V118ZM439.33 114.672C439.174 115.66 438.68 116.509 437.848 117.22C437.016 117.913 435.889 118.26 434.468 118.26C432.838 118.26 431.521 117.749 430.516 116.726C429.51 115.703 429.008 114.256 429.008 112.384C429.008 110.581 429.484 109.099 430.438 107.938C431.391 106.777 432.682 106.196 434.312 106.196C435.906 106.196 437.12 106.699 437.952 107.704C438.784 108.709 439.208 109.897 439.226 111.266C439.226 111.717 439.174 112.176 439.07 112.644H430.932C431.036 115.348 432.258 116.7 434.598 116.7C435.516 116.7 436.236 116.483 436.756 116.05C437.276 115.617 437.622 115.045 437.796 114.334L439.33 114.672ZM437.302 111.292C437.388 110.425 437.18 109.611 436.678 108.848C436.192 108.085 435.386 107.704 434.26 107.704C433.185 107.704 432.396 108.059 431.894 108.77C431.391 109.481 431.079 110.321 430.958 111.292H437.302ZM451.36 114.1C451.204 115.105 450.745 116.05 449.982 116.934C449.237 117.818 448.067 118.26 446.472 118.26C444.878 118.26 443.604 117.749 442.65 116.726C441.697 115.686 441.22 114.239 441.22 112.384C441.22 110.789 441.671 109.359 442.572 108.094C443.474 106.829 444.826 106.196 446.628 106.196C447.391 106.196 448.093 106.283 448.734 106.456C449.376 106.629 449.991 106.941 450.58 107.392L451.022 110.174L449.514 110.356L449.072 108.406C448.379 107.973 447.556 107.756 446.602 107.756C445.372 107.756 444.488 108.198 443.95 109.082C443.413 109.966 443.144 111.032 443.144 112.28C443.144 113.667 443.448 114.75 444.054 115.53C444.661 116.31 445.536 116.7 446.68 116.7C448.414 116.7 449.454 115.721 449.8 113.762L451.36 114.1ZM466.438 118H462.538V115.816C462.174 116.544 461.637 117.133 460.926 117.584C460.233 118.035 459.427 118.26 458.508 118.26C457.382 118.26 456.428 117.913 455.648 117.22C454.886 116.509 454.504 115.383 454.504 113.84V107.912H452.476V106.43H456.324V113.32C456.324 114.568 456.584 115.443 457.104 115.946C457.624 116.449 458.292 116.7 459.106 116.7C460.094 116.7 460.9 116.327 461.524 115.582C462.166 114.837 462.504 114.048 462.538 113.216V107.912H460.12V106.43H464.358V116.518H466.438V118ZM476.332 114.88C476.02 117.133 474.798 118.26 472.666 118.26C471.505 118.26 470.612 117.931 469.988 117.272C469.382 116.613 469.078 115.721 469.078 114.594V107.886H467.206V106.43H469.078V102.712H470.898V106.43H475.422V107.886H470.898V114.36C470.898 115.053 471.046 115.617 471.34 116.05C471.652 116.466 472.155 116.674 472.848 116.674C473.299 116.674 473.715 116.535 474.096 116.258C474.495 115.981 474.781 115.374 474.954 114.438L476.332 114.88ZM487.775 114.672C487.619 115.66 487.125 116.509 486.293 117.22C485.461 117.913 484.334 118.26 482.913 118.26C481.284 118.26 479.966 117.749 478.961 116.726C477.956 115.703 477.453 114.256 477.453 112.384C477.453 110.581 477.93 109.099 478.883 107.938C479.836 106.777 481.128 106.196 482.757 106.196C484.352 106.196 485.565 106.699 486.397 107.704C487.229 108.709 487.654 109.897 487.671 111.266C487.671 111.717 487.619 112.176 487.515 112.644H479.377C479.481 115.348 480.703 116.7 483.043 116.7C483.962 116.7 484.681 116.483 485.201 116.05C485.721 115.617 486.068 115.045 486.241 114.334L487.775 114.672ZM485.747 111.292C485.834 110.425 485.626 109.611 485.123 108.848C484.638 108.085 483.832 107.704 482.705 107.704C481.63 107.704 480.842 108.059 480.339 108.77C479.836 109.481 479.524 110.321 479.403 111.292H485.747ZM493.878 99.332H495.62C492.742 102.989 491.304 106.872 491.304 110.98C491.304 112.991 491.659 115.01 492.37 117.038C493.098 119.066 494.181 120.973 495.62 122.758H493.826C492.387 120.851 491.338 118.91 490.68 116.934C490.021 114.941 489.692 112.956 489.692 110.98C489.692 108.969 490.03 106.985 490.706 105.026C491.399 103.067 492.456 101.169 493.878 99.332ZM503.627 122.758H501.885C504.762 119.101 506.201 115.218 506.201 111.11C506.201 109.099 505.837 107.089 505.109 105.078C504.398 103.05 503.324 101.135 501.885 99.332H503.679C505.118 101.239 506.166 103.189 506.825 105.182C507.484 107.158 507.813 109.134 507.813 111.11C507.813 113.103 507.466 115.079 506.773 117.038C506.097 118.997 505.048 120.903 503.627 122.758Z" fill="black"/>
<path d="M803.219 33.912H801.893L798.487 44H797.083L793.547 35.16H793.417L789.959 44H788.607L785.071 33.912H783.797V32.43H789.257V33.912H787.047L789.465 41.218H789.595L793.027 32.43H794.249L797.863 41.218H797.993L800.125 33.912H798.019V32.43H803.219V33.912ZM815.566 38.202C815.566 39.9527 815.046 41.4 814.006 42.544C812.966 43.688 811.554 44.26 809.768 44.26C808.018 44.26 806.64 43.7053 805.634 42.596C804.646 41.4867 804.152 40.0567 804.152 38.306C804.152 36.6247 804.638 35.186 805.608 33.99C806.579 32.7767 808 32.17 809.872 32.17C811.762 32.17 813.183 32.768 814.136 33.964C815.09 35.1427 815.566 36.5553 815.566 38.202ZM813.642 38.176C813.642 36.8587 813.304 35.7927 812.628 34.978C811.97 34.146 811.034 33.73 809.82 33.73C808.607 33.73 807.671 34.1547 807.012 35.004C806.371 35.8533 806.05 36.9193 806.05 38.202C806.05 39.4673 806.371 40.5333 807.012 41.4C807.654 42.2667 808.59 42.7 809.82 42.7C811.051 42.7 811.996 42.2753 812.654 41.426C813.313 40.5593 813.642 39.476 813.642 38.176ZM823.905 32.222C824.737 32.222 825.395 32.4213 825.881 32.82L826.323 35.732L824.841 35.914L824.399 33.938C824.104 33.834 823.809 33.782 823.515 33.782C822.839 33.782 822.275 34.068 821.825 34.64C821.374 35.1947 821.149 35.9227 821.149 36.824V42.518H823.827V44H817.301V42.518H819.329V33.912H817.249V32.43H821.045V34.51C821.27 33.8687 821.634 33.3313 822.137 32.898C822.657 32.4473 823.246 32.222 823.905 32.222ZM833.657 44H827.781V42.518H829.809V27.594H827.755V26.112H831.629V42.518H833.657V44ZM848.077 44H844.255V41.66C843.874 42.3533 843.354 42.96 842.695 43.48C842.036 44 841.178 44.26 840.121 44.26C838.63 44.26 837.426 43.7573 836.507 42.752C835.606 41.7293 835.155 40.3167 835.155 38.514C835.155 36.9713 835.554 35.5327 836.351 34.198C837.148 32.8633 838.492 32.196 840.381 32.196C842.184 32.196 843.475 32.898 844.255 34.302V27.594H841.447V26.112H846.075V42.518H848.077V44ZM844.255 38.878V37.032C844.22 36.0613 843.865 35.2727 843.189 34.666C842.513 34.0593 841.716 33.756 840.797 33.756C839.514 33.756 838.57 34.224 837.963 35.16C837.374 36.096 837.079 37.1707 837.079 38.384C837.079 39.8053 837.408 40.88 838.067 41.608C838.743 42.336 839.584 42.7 840.589 42.7C841.629 42.7 842.487 42.284 843.163 41.452C843.856 40.6027 844.22 39.7447 844.255 38.878ZM758.574 52.332H760.316C757.439 55.9893 756 59.872 756 63.98C756 65.9907 756.355 68.01 757.066 70.038C757.794 72.066 758.877 73.9727 760.316 75.758H758.522C757.083 73.8513 756.035 71.91 755.376 69.934C754.717 67.9407 754.388 65.956 754.388 63.98C754.388 61.9693 754.726 59.9847 755.402 58.026C756.095 56.0673 757.153 54.1693 758.574 52.332ZM766.685 52.852C767.222 52.852 767.699 52.904 768.115 53.008C768.548 53.112 768.964 53.3373 769.363 53.684L769.805 56.362L768.323 56.544L767.829 54.568C767.482 54.4293 767.04 54.36 766.503 54.36C765.133 54.36 764.449 55.2787 764.449 57.116V59.43H767.439V60.886H764.449V69.518H767.075V71H760.601V69.518H762.603V60.886H760.939V59.43H762.603V57.272C762.603 55.92 763.001 54.8453 763.799 54.048C764.613 53.2507 765.575 52.852 766.685 52.852ZM775.612 59.222C776.444 59.222 777.102 59.4213 777.588 59.82L778.03 62.732L776.548 62.914L776.106 60.938C775.811 60.834 775.516 60.782 775.222 60.782C774.546 60.782 773.982 61.068 773.532 61.64C773.081 62.1947 772.856 62.9227 772.856 63.824V69.518H775.534V71H769.008V69.518H771.036V60.912H768.956V59.43H772.752V61.51C772.977 60.8687 773.341 60.3313 773.844 59.898C774.364 59.4473 774.953 59.222 775.612 59.222ZM781.252 60.314C781.858 59.9153 782.5 59.6293 783.176 59.456C783.852 59.2827 784.571 59.196 785.334 59.196C788.09 59.196 789.468 60.4873 789.468 63.07V68.582C789.468 69.414 789.797 69.83 790.456 69.83C790.75 69.83 791.01 69.778 791.236 69.674L791.262 70.87C790.794 71.13 790.291 71.26 789.754 71.26C788.384 71.26 787.682 70.48 787.648 68.92V68.868C787.284 69.492 786.764 70.0467 786.088 70.532C785.429 71.0173 784.632 71.26 783.696 71.26C782.933 71.26 782.153 71.026 781.356 70.558C780.576 70.09 780.186 69.2407 780.186 68.01C780.186 66.554 780.758 65.6007 781.902 65.15C783.063 64.682 784.294 64.448 785.594 64.448C785.94 64.448 786.287 64.4567 786.634 64.474C786.998 64.4913 787.336 64.5173 787.648 64.552V63.512C787.648 62.68 787.466 62.004 787.102 61.484C786.755 60.964 786.062 60.704 785.022 60.704C784.172 60.704 783.427 60.86 782.786 61.172L782.344 63.174L780.836 62.992L781.252 60.314ZM787.648 66.658V65.774C787.318 65.7567 786.972 65.7307 786.608 65.696C786.244 65.6613 785.871 65.644 785.49 65.644C784.623 65.644 783.834 65.7827 783.124 66.06C782.43 66.32 782.084 66.9007 782.084 67.802C782.084 68.5473 782.318 69.0587 782.786 69.336C783.254 69.6133 783.739 69.752 784.242 69.752C785.039 69.752 785.784 69.4747 786.478 68.92C787.188 68.3653 787.578 67.6113 787.648 66.658ZM813.918 71H808.38V69.518H810.07V64.136C810.07 62.888 809.819 62.0127 809.316 61.51C808.831 60.99 808.207 60.73 807.444 60.73C806.387 60.73 805.572 61.1287 805 61.926C804.428 62.7233 804.133 63.486 804.116 64.214V69.518H806.118V71H800.606V69.518H802.27V64.136C802.27 62.8707 802.027 61.9867 801.542 61.484C801.057 60.9813 800.441 60.73 799.696 60.73C798.621 60.73 797.798 61.12 797.226 61.9C796.671 62.6627 796.377 63.4167 796.342 64.162V69.518H798.474V71H792.494V69.518H794.522V60.912H792.468V59.43H796.342V61.588C796.723 60.8947 797.235 60.3227 797.876 59.872C798.517 59.4213 799.297 59.196 800.216 59.196C801.117 59.196 801.897 59.4213 802.556 59.872C803.232 60.3227 803.691 61.0247 803.934 61.978C804.281 61.1633 804.792 60.496 805.468 59.976C806.161 59.456 807.011 59.196 808.016 59.196C809.125 59.196 810.044 59.5427 810.772 60.236C811.517 60.9293 811.89 62.0473 811.89 63.59V69.518H813.918V71ZM825.469 67.672C825.313 68.66 824.819 69.5093 823.987 70.22C823.155 70.9133 822.029 71.26 820.607 71.26C818.978 71.26 817.661 70.7487 816.655 69.726C815.65 68.7033 815.147 67.256 815.147 65.384C815.147 63.5813 815.624 62.0993 816.577 60.938C817.531 59.7767 818.822 59.196 820.451 59.196C822.046 59.196 823.259 59.6987 824.091 60.704C824.923 61.7093 825.348 62.8967 825.365 64.266C825.365 64.7167 825.313 65.176 825.209 65.644H817.071C817.175 68.348 818.397 69.7 820.737 69.7C821.656 69.7 822.375 69.4833 822.895 69.05C823.415 68.6167 823.762 68.0447 823.935 67.334L825.469 67.672ZM823.441 64.292C823.528 63.4253 823.32 62.6107 822.817 61.848C822.332 61.0853 821.526 60.704 820.399 60.704C819.325 60.704 818.536 61.0593 818.033 61.77C817.531 62.4807 817.219 63.3213 817.097 64.292H823.441ZM850.541 55.764H848.435V71H847.213L837.411 57.688H837.307V69.336H839.985V71H833.537V69.336H835.487V55.764H833.251V54.1H836.891L846.511 67.126H846.615V55.764H844.067V54.1H850.541V55.764ZM852.42 64.396V62.992H856.32V59.17H857.698V62.992H861.442V64.396H857.698V68.192H856.32V64.396H852.42ZM871.384 71H863.246V69.336H866.418V59.118H863.246V57.454H868.342V69.336H871.384V71ZM873.39 75.758H871.648C874.525 72.1007 875.964 68.218 875.964 64.11C875.964 62.0993 875.6 60.0887 874.872 58.078C874.161 56.05 873.086 54.1347 871.648 52.332H873.442C874.88 54.2387 875.929 56.1887 876.588 58.182C877.246 60.158 877.576 62.134 877.576 64.11C877.576 66.1033 877.229 68.0793 876.536 70.038C875.86 71.9967 874.811 73.9033 873.39 75.758Z" fill="black"/>
<path d="M74.6609 113.44C74.5409 114.2 74.1609 114.853 73.5209 115.4C72.8809 115.933 72.0143 116.2 70.9209 116.2C69.6676 116.2 68.6543 115.807 67.8809 115.02C67.1076 114.233 66.7209 113.12 66.7209 111.68C66.7209 110.293 67.0876 109.153 67.8209 108.26C68.5543 107.367 69.5476 106.92 70.8009 106.92C72.0276 106.92 72.9609 107.307 73.6009 108.08C74.2409 108.853 74.5676 109.767 74.5809 110.82C74.5809 111.167 74.5409 111.52 74.4609 111.88H68.2009C68.2809 113.96 69.2209 115 71.0209 115C71.7276 115 72.2809 114.833 72.6809 114.5C73.0809 114.167 73.3476 113.727 73.4809 113.18L74.6609 113.44ZM73.1009 110.84C73.1676 110.173 73.0076 109.547 72.6209 108.96C72.2476 108.373 71.6276 108.08 70.7609 108.08C69.9343 108.08 69.3276 108.353 68.9409 108.9C68.5543 109.447 68.3143 110.093 68.2209 110.84H73.1009ZM86.6355 116H82.1355V114.86H83.6755V110.72C83.6755 109.76 83.4821 109.087 83.0955 108.7C82.7088 108.3 82.2155 108.1 81.6155 108.1C80.8155 108.1 80.1688 108.367 79.6755 108.9C79.1955 109.42 78.9421 110.02 78.9155 110.7V114.86H80.4755V116H75.9555V114.86H77.5155V108.24H75.9155V107.1H78.9155V108.68C79.5555 107.507 80.5955 106.92 82.0355 106.92C82.9021 106.92 83.6288 107.187 84.2155 107.72C84.8021 108.253 85.0955 109.113 85.0955 110.3V114.86H86.6355V116ZM94.1403 113.6C93.9003 115.333 92.9603 116.2 91.3203 116.2C90.427 116.2 89.7403 115.947 89.2603 115.44C88.7936 114.933 88.5603 114.247 88.5603 113.38V108.22H87.1203V107.1H88.5603V104.24H89.9603V107.1H93.4403V108.22H89.9603V113.2C89.9603 113.733 90.0736 114.167 90.3003 114.5C90.5403 114.82 90.927 114.98 91.4603 114.98C91.807 114.98 92.127 114.873 92.4203 114.66C92.727 114.447 92.947 113.98 93.0803 113.26L94.1403 113.6ZM96.3422 104.8V102.98H97.8622V104.8H96.3422ZM99.4422 116H94.9222V114.86H96.4822V108.24H94.8822V107.1H97.8822V114.86H99.4422V116ZM107.168 113.6C106.928 115.333 105.988 116.2 104.348 116.2C103.454 116.2 102.768 115.947 102.288 115.44C101.821 114.933 101.588 114.247 101.588 113.38V108.22H100.148V107.1H101.588V104.24H102.988V107.1H106.468V108.22H102.988V113.2C102.988 113.733 103.101 114.167 103.328 114.5C103.568 114.82 103.954 114.98 104.488 114.98C104.834 114.98 105.154 114.873 105.448 114.66C105.754 114.447 105.974 113.98 106.108 113.26L107.168 113.6ZM109.37 104.8V102.98H110.89V104.8H109.37ZM112.47 116H107.95V114.86H109.51V108.24H107.91V107.1H110.91V114.86H112.47V116ZM121.575 113.44C121.455 114.2 121.075 114.853 120.435 115.4C119.795 115.933 118.928 116.2 117.835 116.2C116.582 116.2 115.568 115.807 114.795 115.02C114.022 114.233 113.635 113.12 113.635 111.68C113.635 110.293 114.002 109.153 114.735 108.26C115.468 107.367 116.462 106.92 117.715 106.92C118.942 106.92 119.875 107.307 120.515 108.08C121.155 108.853 121.482 109.767 121.495 110.82C121.495 111.167 121.455 111.52 121.375 111.88H115.115C115.195 113.96 116.135 115 117.935 115C118.642 115 119.195 114.833 119.595 114.5C119.995 114.167 120.262 113.727 120.395 113.18L121.575 113.44ZM120.015 110.84C120.082 110.173 119.922 109.547 119.535 108.96C119.162 108.373 118.542 108.08 117.675 108.08C116.848 108.08 116.242 108.353 115.855 108.9C115.468 109.447 115.228 110.093 115.135 110.84H120.015ZM130.25 113.42C130.25 114.287 129.883 114.967 129.15 115.46C128.43 115.953 127.536 116.2 126.47 116.2C125.843 116.2 125.216 116.12 124.59 115.96C123.976 115.787 123.476 115.573 123.09 115.32L123.37 113.3L124.49 113.42L124.43 114.6C125.043 114.893 125.703 115.04 126.41 115.04C127.036 115.04 127.59 114.92 128.07 114.68C128.563 114.427 128.81 114.047 128.81 113.54C128.81 113.047 128.623 112.7 128.25 112.5C127.876 112.3 127.41 112.153 126.85 112.06C126.303 111.967 125.75 111.853 125.19 111.72C124.63 111.587 124.163 111.36 123.79 111.04C123.416 110.707 123.23 110.193 123.23 109.5C123.23 108.553 123.576 107.887 124.27 107.5C124.963 107.113 125.716 106.92 126.53 106.92C127.143 106.92 127.716 107 128.25 107.16C128.796 107.32 129.256 107.513 129.63 107.74L129.85 109.82L128.69 109.96L128.47 108.52C127.91 108.227 127.303 108.08 126.65 108.08C126.09 108.08 125.63 108.187 125.27 108.4C124.91 108.613 124.73 108.947 124.73 109.4C124.73 109.867 124.916 110.2 125.29 110.4C125.663 110.587 126.123 110.727 126.67 110.82C127.216 110.9 127.763 111.007 128.31 111.14C128.856 111.273 129.316 111.513 129.69 111.86C130.063 112.193 130.25 112.713 130.25 113.42Z" fill="black"/>
<path d="M792.661 113.44C792.541 114.2 792.161 114.853 791.521 115.4C790.881 115.933 790.014 116.2 788.921 116.2C787.668 116.2 786.654 115.807 785.881 115.02C785.108 114.233 784.721 113.12 784.721 111.68C784.721 110.293 785.088 109.153 785.821 108.26C786.554 107.367 787.548 106.92 788.801 106.92C790.028 106.92 790.961 107.307 791.601 108.08C792.241 108.853 792.568 109.767 792.581 110.82C792.581 111.167 792.541 111.52 792.461 111.88H786.201C786.281 113.96 787.221 115 789.021 115C789.728 115 790.281 114.833 790.681 114.5C791.081 114.167 791.348 113.727 791.481 113.18L792.661 113.44ZM791.101 110.84C791.168 110.173 791.008 109.547 790.621 108.96C790.248 108.373 789.628 108.08 788.761 108.08C787.934 108.08 787.328 108.353 786.941 108.9C786.554 109.447 786.314 110.093 786.221 110.84H791.101ZM804.635 116H800.135V114.86H801.675V110.72C801.675 109.76 801.482 109.087 801.095 108.7C800.709 108.3 800.215 108.1 799.615 108.1C798.815 108.1 798.169 108.367 797.675 108.9C797.195 109.42 796.942 110.02 796.915 110.7V114.86H798.475V116H793.955V114.86H795.515V108.24H793.915V107.1H796.915V108.68C797.555 107.507 798.595 106.92 800.035 106.92C800.902 106.92 801.629 107.187 802.215 107.72C802.802 108.253 803.095 109.113 803.095 110.3V114.86H804.635V116ZM812.14 113.6C811.9 115.333 810.96 116.2 809.32 116.2C808.427 116.2 807.74 115.947 807.26 115.44C806.794 114.933 806.56 114.247 806.56 113.38V108.22H805.12V107.1H806.56V104.24H807.96V107.1H811.44V108.22H807.96V113.2C807.96 113.733 808.074 114.167 808.3 114.5C808.54 114.82 808.927 114.98 809.46 114.98C809.807 114.98 810.127 114.873 810.42 114.66C810.727 114.447 810.947 113.98 811.08 113.26L812.14 113.6ZM814.342 104.8V102.98H815.862V104.8H814.342ZM817.442 116H812.922V114.86H814.482V108.24H812.882V107.1H815.882V114.86H817.442V116ZM825.168 113.6C824.928 115.333 823.988 116.2 822.348 116.2C821.454 116.2 820.768 115.947 820.288 115.44C819.821 114.933 819.588 114.247 819.588 113.38V108.22H818.148V107.1H819.588V104.24H820.988V107.1H824.468V108.22H820.988V113.2C820.988 113.733 821.101 114.167 821.328 114.5C821.568 114.82 821.954 114.98 822.488 114.98C822.834 114.98 823.154 114.873 823.448 114.66C823.754 114.447 823.974 113.98 824.108 113.26L825.168 113.6ZM827.37 104.8V102.98H828.89V104.8H827.37ZM830.47 116H825.95V114.86H827.51V108.24H825.91V107.1H828.91V114.86H830.47V116ZM839.575 113.44C839.455 114.2 839.075 114.853 838.435 115.4C837.795 115.933 836.928 116.2 835.835 116.2C834.582 116.2 833.568 115.807 832.795 115.02C832.022 114.233 831.635 113.12 831.635 111.68C831.635 110.293 832.002 109.153 832.735 108.26C833.468 107.367 834.462 106.92 835.715 106.92C836.942 106.92 837.875 107.307 838.515 108.08C839.155 108.853 839.482 109.767 839.495 110.82C839.495 111.167 839.455 111.52 839.375 111.88H833.115C833.195 113.96 834.135 115 835.935 115C836.642 115 837.195 114.833 837.595 114.5C837.995 114.167 838.262 113.727 838.395 113.18L839.575 113.44ZM838.015 110.84C838.082 110.173 837.922 109.547 837.535 108.96C837.162 108.373 836.542 108.08 835.675 108.08C834.848 108.08 834.242 108.353 833.855 108.9C833.468 109.447 833.228 110.093 833.135 110.84H838.015ZM848.25 113.42C848.25 114.287 847.883 114.967 847.15 115.46C846.43 115.953 845.536 116.2 844.47 116.2C843.843 116.2 843.216 116.12 842.59 115.96C841.976 115.787 841.476 115.573 841.09 115.32L841.37 113.3L842.49 113.42L842.43 114.6C843.043 114.893 843.703 115.04 844.41 115.04C845.036 115.04 845.59 114.92 846.07 114.68C846.563 114.427 846.81 114.047 846.81 113.54C846.81 113.047 846.623 112.7 846.25 112.5C845.876 112.3 845.41 112.153 844.85 112.06C844.303 111.967 843.75 111.853 843.19 111.72C842.63 111.587 842.163 111.36 841.79 111.04C841.416 110.707 841.23 110.193 841.23 109.5C841.23 108.553 841.576 107.887 842.27 107.5C842.963 107.113 843.716 106.92 844.53 106.92C845.143 106.92 845.716 107 846.25 107.16C846.796 107.32 847.256 107.513 847.63 107.74L847.85 109.82L846.69 109.96L846.47 108.52C845.91 108.227 845.303 108.08 844.65 108.08C844.09 108.08 843.63 108.187 843.27 108.4C842.91 108.613 842.73 108.947 842.73 109.4C842.73 109.867 842.916 110.2 843.29 110.4C843.663 110.587 844.123 110.727 844.67 110.82C845.216 110.9 845.763 111.007 846.31 111.14C846.856 111.273 847.316 111.513 847.69 111.86C848.063 112.193 848.25 112.713 848.25 113.42Z" fill="black"/>
<path d="M432.304 572.42C432.304 573.287 431.938 573.967 431.204 574.46C430.484 574.953 429.591 575.2 428.524 575.2C427.898 575.2 427.271 575.12 426.644 574.96C426.031 574.787 425.531 574.573 425.144 574.32L425.424 572.3L426.544 572.42L426.484 573.6C427.098 573.893 427.758 574.04 428.464 574.04C429.091 574.04 429.644 573.92 430.124 573.68C430.618 573.427 430.864 573.047 430.864 572.54C430.864 572.047 430.678 571.7 430.304 571.5C429.931 571.3 429.464 571.153 428.904 571.06C428.358 570.967 427.804 570.853 427.244 570.72C426.684 570.587 426.218 570.36 425.844 570.04C425.471 569.707 425.284 569.193 425.284 568.5C425.284 567.553 425.631 566.887 426.324 566.5C427.018 566.113 427.771 565.92 428.584 565.92C429.198 565.92 429.771 566 430.304 566.16C430.851 566.32 431.311 566.513 431.684 566.74L431.904 568.82L430.744 568.96L430.524 567.52C429.964 567.227 429.358 567.08 428.704 567.08C428.144 567.08 427.684 567.187 427.324 567.4C426.964 567.613 426.784 567.947 426.784 568.4C426.784 568.867 426.971 569.2 427.344 569.4C427.718 569.587 428.178 569.727 428.724 569.82C429.271 569.9 429.818 570.007 430.364 570.14C430.911 570.273 431.371 570.513 431.744 570.86C432.118 571.193 432.304 571.713 432.304 572.42ZM443.134 567.24H442.074L438.934 575L437.734 578.12H439.254V579.26H434.734V578.12H436.394L437.554 574.98L434.314 567.24H433.254V566.1H437.374V567.24H435.814L438.314 573.22H438.434L440.654 567.24H439.214V566.1H443.134V567.24ZM451.035 572.42C451.035 573.287 450.668 573.967 449.935 574.46C449.215 574.953 448.321 575.2 447.255 575.2C446.628 575.2 446.001 575.12 445.375 574.96C444.761 574.787 444.261 574.573 443.875 574.32L444.155 572.3L445.275 572.42L445.215 573.6C445.828 573.893 446.488 574.04 447.195 574.04C447.821 574.04 448.375 573.92 448.855 573.68C449.348 573.427 449.595 573.047 449.595 572.54C449.595 572.047 449.408 571.7 449.035 571.5C448.661 571.3 448.195 571.153 447.635 571.06C447.088 570.967 446.535 570.853 445.975 570.72C445.415 570.587 444.948 570.36 444.575 570.04C444.201 569.707 444.015 569.193 444.015 568.5C444.015 567.553 444.361 566.887 445.055 566.5C445.748 566.113 446.501 565.92 447.315 565.92C447.928 565.92 448.501 566 449.035 566.16C449.581 566.32 450.041 566.513 450.415 566.74L450.635 568.82L449.475 568.96L449.255 567.52C448.695 567.227 448.088 567.08 447.435 567.08C446.875 567.08 446.415 567.187 446.055 567.4C445.695 567.613 445.515 567.947 445.515 568.4C445.515 568.867 445.701 569.2 446.075 569.4C446.448 569.587 446.908 569.727 447.455 569.82C448.001 569.9 448.548 570.007 449.095 570.14C449.641 570.273 450.101 570.513 450.475 570.86C450.848 571.193 451.035 571.713 451.035 572.42ZM459.144 572.6C458.904 574.333 457.964 575.2 456.324 575.2C455.431 575.2 454.744 574.947 454.264 574.44C453.798 573.933 453.564 573.247 453.564 572.38V567.22H452.124V566.1H453.564V563.24H454.964V566.1H458.444V567.22H454.964V572.2C454.964 572.733 455.078 573.167 455.304 573.5C455.544 573.82 455.931 573.98 456.464 573.98C456.811 573.98 457.131 573.873 457.424 573.66C457.731 573.447 457.951 572.98 458.084 572.26L459.144 572.6ZM467.946 572.44C467.826 573.2 467.446 573.853 466.806 574.4C466.166 574.933 465.299 575.2 464.206 575.2C462.953 575.2 461.939 574.807 461.166 574.02C460.393 573.233 460.006 572.12 460.006 570.68C460.006 569.293 460.373 568.153 461.106 567.26C461.839 566.367 462.833 565.92 464.086 565.92C465.313 565.92 466.246 566.307 466.886 567.08C467.526 567.853 467.853 568.767 467.866 569.82C467.866 570.167 467.826 570.52 467.746 570.88H461.486C461.566 572.96 462.506 574 464.306 574C465.013 574 465.566 573.833 465.966 573.5C466.366 573.167 466.633 572.727 466.766 572.18L467.946 572.44ZM466.386 569.84C466.453 569.173 466.293 568.547 465.906 567.96C465.533 567.373 464.913 567.08 464.046 567.08C463.219 567.08 462.613 567.353 462.226 567.9C461.839 568.447 461.599 569.093 461.506 569.84H466.386ZM485.721 575H481.461V573.86H482.761V569.72C482.761 568.76 482.567 568.087 482.181 567.7C481.807 567.3 481.327 567.1 480.741 567.1C479.927 567.1 479.301 567.407 478.861 568.02C478.421 568.633 478.194 569.22 478.181 569.78V573.86H479.721V575H475.481V573.86H476.761V569.72C476.761 568.747 476.574 568.067 476.201 567.68C475.827 567.293 475.354 567.1 474.781 567.1C473.954 567.1 473.321 567.4 472.881 568C472.454 568.587 472.227 569.167 472.201 569.74V573.86H473.841V575H469.241V573.86H470.801V567.24H469.221V566.1H472.201V567.76C472.494 567.227 472.887 566.787 473.381 566.44C473.874 566.093 474.474 565.92 475.181 565.92C475.874 565.92 476.474 566.093 476.981 566.44C477.501 566.787 477.854 567.327 478.041 568.06C478.307 567.433 478.701 566.92 479.221 566.52C479.754 566.12 480.407 565.92 481.181 565.92C482.034 565.92 482.741 566.187 483.301 566.72C483.874 567.253 484.161 568.113 484.161 569.3V573.86H485.721V575ZM493.886 572.42C493.886 573.287 493.52 573.967 492.786 574.46C492.066 574.953 491.173 575.2 490.106 575.2C489.48 575.2 488.853 575.12 488.226 574.96C487.613 574.787 487.113 574.573 486.726 574.32L487.006 572.3L488.126 572.42L488.066 573.6C488.68 573.893 489.34 574.04 490.046 574.04C490.673 574.04 491.226 573.92 491.706 573.68C492.2 573.427 492.446 573.047 492.446 572.54C492.446 572.047 492.26 571.7 491.886 571.5C491.513 571.3 491.046 571.153 490.486 571.06C489.94 570.967 489.386 570.853 488.826 570.72C488.266 570.587 487.8 570.36 487.426 570.04C487.053 569.707 486.866 569.193 486.866 568.5C486.866 567.553 487.213 566.887 487.906 566.5C488.6 566.113 489.353 565.92 490.166 565.92C490.78 565.92 491.353 566 491.886 566.16C492.433 566.32 492.893 566.513 493.266 566.74L493.486 568.82L492.326 568.96L492.106 567.52C491.546 567.227 490.94 567.08 490.286 567.08C489.726 567.08 489.266 567.187 488.906 567.4C488.546 567.613 488.366 567.947 488.366 568.4C488.366 568.867 488.553 569.2 488.926 569.4C489.3 569.587 489.76 569.727 490.306 569.82C490.853 569.9 491.4 570.007 491.946 570.14C492.493 570.273 492.953 570.513 493.326 570.86C493.7 571.193 493.886 571.713 493.886 572.42Z" fill="black"/>
<rect x="23" y="124" width="150" height="339" rx="15" fill="#FFF7CE"/>
<path d="M64.2814 351.869H60.7534V349.709C60.4014 350.349 59.9214 350.909 59.3134 351.389C58.7054 351.869 57.9134 352.109 56.9374 352.109C55.5614 352.109 54.4494 351.645 53.6014 350.717C52.7694 349.773 52.3534 348.469 52.3534 346.805C52.3534 345.381 52.7214 344.053 53.4574 342.821C54.1934 341.589 55.4334 340.973 57.1774 340.973C58.8414 340.973 60.0334 341.621 60.7534 342.917V336.725H58.1614V335.357H62.4334V350.501H64.2814V351.869ZM60.7534 347.141V345.437C60.7214 344.541 60.3934 343.813 59.7694 343.253C59.1454 342.693 58.4094 342.413 57.5614 342.413C56.3774 342.413 55.5054 342.845 54.9454 343.709C54.4014 344.573 54.1294 345.565 54.1294 346.685C54.1294 347.997 54.4334 348.989 55.0414 349.661C55.6654 350.333 56.4414 350.669 57.3694 350.669C58.3294 350.669 59.1214 350.285 59.7454 349.517C60.3854 348.733 60.7214 347.941 60.7534 347.141ZM71.4293 340.997C72.1973 340.997 72.8053 341.181 73.2533 341.549L73.6613 344.237L72.2933 344.405L71.8853 342.581C71.6133 342.485 71.3413 342.437 71.0693 342.437C70.4453 342.437 69.9253 342.701 69.5093 343.229C69.0933 343.741 68.8853 344.413 68.8853 345.245V350.501H71.3573V351.869H65.3333V350.501H67.2053V342.557H65.2853V341.189H68.7893V343.109C68.9973 342.517 69.3333 342.021 69.7973 341.621C70.2773 341.205 70.8213 340.997 71.4293 340.997ZM76.6354 342.005C77.1954 341.637 77.7874 341.373 78.4114 341.213C79.0354 341.053 79.6994 340.973 80.4034 340.973C82.9474 340.973 84.2194 342.165 84.2194 344.549V349.637C84.2194 350.405 84.5234 350.789 85.1314 350.789C85.4034 350.789 85.6434 350.741 85.8514 350.645L85.8754 351.749C85.4434 351.989 84.9794 352.109 84.4834 352.109C83.2194 352.109 82.5714 351.389 82.5394 349.949V349.901C82.2034 350.477 81.7234 350.989 81.0994 351.437C80.4914 351.885 79.7554 352.109 78.8914 352.109C78.1874 352.109 77.4674 351.893 76.7314 351.461C76.0114 351.029 75.6514 350.245 75.6514 349.109C75.6514 347.765 76.1794 346.885 77.2354 346.469C78.3074 346.037 79.4434 345.821 80.6434 345.821C80.9634 345.821 81.2834 345.829 81.6034 345.845C81.9394 345.861 82.2514 345.885 82.5394 345.917V344.957C82.5394 344.189 82.3714 343.565 82.0354 343.085C81.7154 342.605 81.0754 342.365 80.1154 342.365C79.3314 342.365 78.6434 342.509 78.0514 342.797L77.6434 344.645L76.2514 344.477L76.6354 342.005ZM82.5394 347.861V347.045C82.2354 347.029 81.9154 347.005 81.5794 346.973C81.2434 346.941 80.8994 346.925 80.5474 346.925C79.7474 346.925 79.0194 347.053 78.3634 347.309C77.7234 347.549 77.4034 348.085 77.4034 348.917C77.4034 349.605 77.6194 350.077 78.0514 350.333C78.4834 350.589 78.9314 350.717 79.3954 350.717C80.1314 350.717 80.8194 350.461 81.4594 349.949C82.1154 349.437 82.4754 348.741 82.5394 347.861ZM99.037 342.557H97.309V351.725C97.309 353.405 96.845 354.741 95.917 355.733C95.005 356.725 93.717 357.221 92.053 357.221C90.933 357.221 89.925 356.965 89.029 356.453C88.149 355.941 87.565 355.149 87.277 354.077L88.621 353.405C88.893 354.237 89.365 354.837 90.037 355.205C90.709 355.589 91.405 355.781 92.125 355.781C93.149 355.781 93.981 355.421 94.621 354.701C95.277 353.997 95.605 352.981 95.605 351.653V349.685C95.285 350.309 94.821 350.853 94.213 351.317C93.605 351.781 92.797 352.013 91.789 352.013C90.525 352.013 89.445 351.565 88.549 350.669C87.653 349.773 87.205 348.485 87.205 346.805C87.205 345.381 87.589 344.053 88.357 342.821C89.125 341.589 90.333 340.973 91.981 340.973C93.677 340.973 94.885 341.605 95.605 342.869V341.189H99.037V342.557ZM95.605 347.261V345.413C95.605 344.517 95.293 343.797 94.669 343.253C94.061 342.693 93.317 342.413 92.437 342.413C91.237 342.413 90.365 342.845 89.821 343.709C89.293 344.573 89.029 345.565 89.029 346.685C89.029 347.997 89.325 348.973 89.917 349.613C90.525 350.253 91.269 350.573 92.149 350.573C93.173 350.573 93.997 350.221 94.621 349.517C95.245 348.813 95.573 348.061 95.605 347.261ZM110.865 346.517C110.865 348.133 110.385 349.469 109.425 350.525C108.465 351.581 107.161 352.109 105.513 352.109C103.897 352.109 102.625 351.597 101.697 350.573C100.785 349.549 100.329 348.229 100.329 346.613C100.329 345.061 100.777 343.733 101.673 342.629C102.569 341.509 103.881 340.949 105.609 340.949C107.353 340.949 108.665 341.501 109.545 342.605C110.425 343.693 110.865 344.997 110.865 346.517ZM109.089 346.493C109.089 345.277 108.777 344.293 108.153 343.541C107.545 342.773 106.681 342.389 105.561 342.389C104.441 342.389 103.577 342.781 102.969 343.565C102.377 344.349 102.081 345.333 102.081 346.517C102.081 347.685 102.377 348.669 102.969 349.469C103.561 350.269 104.425 350.669 105.561 350.669C106.697 350.669 107.569 350.277 108.177 349.493C108.785 348.693 109.089 347.693 109.089 346.493ZM125.282 351.869H119.882V350.501H121.73V345.533C121.73 344.381 121.498 343.573 121.034 343.109C120.57 342.629 119.978 342.389 119.258 342.389C118.298 342.389 117.522 342.709 116.93 343.349C116.354 343.973 116.05 344.693 116.018 345.509V350.501H117.89V351.869H112.466V350.501H114.338V342.557H112.418V341.189H116.018V343.085C116.786 341.677 118.034 340.973 119.762 340.973C120.802 340.973 121.674 341.293 122.378 341.933C123.082 342.573 123.434 343.605 123.434 345.029V350.501H125.282V351.869ZM126.752 353.645H137.12V354.869H126.752V353.645ZM147.084 351.869H139.572V350.333H142.5V340.901H139.572V339.365H144.276V350.333H147.084V351.869Z" fill="black"/>
<path d="M84.5503 145.688H83.3263L80.1823 155H78.8863L75.6223 146.84H75.5023L72.3103 155H71.0623L67.7983 145.688H66.6223V144.32H71.6623V145.688H69.6223L71.8543 152.432H71.9743L75.1423 144.32H76.2703L79.6063 152.432H79.7263L81.6943 145.688H79.7503V144.32H84.5503V145.688ZM95.9474 149.648C95.9474 151.264 95.4674 152.6 94.5074 153.656C93.5474 154.712 92.2434 155.24 90.5954 155.24C88.9794 155.24 87.7074 154.728 86.7794 153.704C85.8674 152.68 85.4114 151.36 85.4114 149.744C85.4114 148.192 85.8594 146.864 86.7554 145.76C87.6514 144.64 88.9634 144.08 90.6914 144.08C92.4354 144.08 93.7474 144.632 94.6274 145.736C95.5074 146.824 95.9474 148.128 95.9474 149.648ZM94.1714 149.624C94.1714 148.408 93.8594 147.424 93.2354 146.672C92.6274 145.904 91.7634 145.52 90.6434 145.52C89.5234 145.52 88.6594 145.912 88.0514 146.696C87.4594 147.48 87.1634 148.464 87.1634 149.648C87.1634 150.816 87.4594 151.8 88.0514 152.6C88.6434 153.4 89.5074 153.8 90.6434 153.8C91.7794 153.8 92.6514 153.408 93.2594 152.624C93.8674 151.824 94.1714 150.824 94.1714 149.624ZM102.732 155H97.3081V153.632H99.1801V139.856H97.2841V138.488H100.86V153.632H102.732V155ZM109.443 138.248C109.939 138.248 110.379 138.296 110.763 138.392C111.163 138.488 111.547 138.696 111.915 139.016L112.323 141.488L110.955 141.656L110.499 139.832C110.179 139.704 109.771 139.64 109.275 139.64C108.011 139.64 107.379 140.488 107.379 142.184V144.32H110.139V145.664H107.379V153.632H109.803V155H103.827V153.632H105.675V145.664H104.139V144.32H105.675V142.328C105.675 141.08 106.043 140.088 106.779 139.352C107.531 138.616 108.419 138.248 109.443 138.248ZM111.787 156.776H122.155V158H111.787V156.776ZM132.119 155H124.607V153.464H127.535V144.032H124.607V142.496H129.311V153.464H132.119V155Z" fill="black"/>
<path d="M83.4917 211.311H82.2677L79.1237 220.623H77.8277L74.5637 212.463H74.4437L71.2517 220.623H70.0037L66.7397 211.311H65.5637V209.943H70.6037V211.311H68.5637L70.7957 218.055H70.9157L74.0837 209.943H75.2117L78.5477 218.055H78.6677L80.6357 211.311H78.6917V209.943H83.4917V211.311ZM94.8888 215.271C94.8888 216.887 94.4088 218.223 93.4488 219.279C92.4888 220.335 91.1848 220.863 89.5368 220.863C87.9208 220.863 86.6488 220.351 85.7208 219.327C84.8088 218.303 84.3528 216.983 84.3528 215.367C84.3528 213.815 84.8008 212.487 85.6968 211.383C86.5928 210.263 87.9048 209.703 89.6328 209.703C91.3768 209.703 92.6888 210.255 93.5688 211.359C94.4488 212.447 94.8888 213.751 94.8888 215.271ZM93.1128 215.247C93.1128 214.031 92.8008 213.047 92.1768 212.295C91.5688 211.527 90.7048 211.143 89.5848 211.143C88.4648 211.143 87.6008 211.535 86.9928 212.319C86.4008 213.103 86.1048 214.087 86.1048 215.271C86.1048 216.439 86.4008 217.423 86.9928 218.223C87.5848 219.023 88.4488 219.423 89.5848 219.423C90.7208 219.423 91.5928 219.031 92.2008 218.247C92.8088 217.447 93.1128 216.447 93.1128 215.247ZM101.674 220.623H96.2495V219.255H98.1215V205.479H96.2255V204.111H99.8015V219.255H101.674V220.623ZM108.385 203.871C108.881 203.871 109.321 203.919 109.705 204.015C110.105 204.111 110.489 204.319 110.857 204.639L111.265 207.111L109.897 207.279L109.441 205.455C109.121 205.327 108.713 205.263 108.217 205.263C106.953 205.263 106.321 206.111 106.321 207.807V209.943H109.081V211.287H106.321V219.255H108.745V220.623H102.769V219.255H104.617V211.287H103.081V209.943H104.617V207.951C104.617 206.703 104.985 205.711 105.721 204.975C106.473 204.239 107.361 203.871 108.385 203.871ZM110.728 222.399H121.096V223.623H110.728V222.399ZM124.125 208.935C124.701 208.599 125.381 208.343 126.165 208.167C126.965 207.975 127.717 207.879 128.421 207.879C129.989 207.879 131.101 208.279 131.757 209.079C132.429 209.879 132.765 210.719 132.765 211.599C132.765 212.703 132.357 213.727 131.541 214.671C130.741 215.599 129.789 216.439 128.685 217.191C127.597 217.927 126.613 218.559 125.733 219.087H131.973L132.189 217.167L133.653 217.287L133.389 220.623H123.645L123.453 219.255C125.725 217.719 127.533 216.391 128.877 215.271C130.221 214.135 130.893 212.975 130.893 211.791C130.893 210.191 129.941 209.391 128.037 209.391C127.701 209.391 127.293 209.439 126.813 209.535C126.333 209.631 125.893 209.767 125.493 209.943L125.109 211.743L123.717 211.575L124.125 208.935Z" fill="black"/>
<path d="M82.2963 276.934H81.0723L77.9283 286.246H76.6323L73.3683 278.086H73.2483L70.0563 286.246H68.8083L65.5443 276.934H64.3683V275.566H69.4083V276.934H67.3683L69.6003 283.678H69.7203L72.8883 275.566H74.0163L77.3523 283.678H77.4723L79.4403 276.934H77.4963V275.566H82.2963V276.934ZM93.6935 280.894C93.6935 282.51 93.2135 283.846 92.2535 284.902C91.2935 285.958 89.9895 286.486 88.3415 286.486C86.7255 286.486 85.4535 285.974 84.5255 284.95C83.6135 283.926 83.1575 282.606 83.1575 280.99C83.1575 279.438 83.6055 278.11 84.5015 277.006C85.3975 275.886 86.7095 275.326 88.4375 275.326C90.1815 275.326 91.4935 275.878 92.3735 276.982C93.2535 278.07 93.6935 279.374 93.6935 280.894ZM91.9175 280.87C91.9175 279.654 91.6055 278.67 90.9815 277.918C90.3735 277.15 89.5095 276.766 88.3895 276.766C87.2695 276.766 86.4055 277.158 85.7975 277.942C85.2055 278.726 84.9095 279.71 84.9095 280.894C84.9095 282.062 85.2055 283.046 85.7975 283.846C86.3895 284.646 87.2535 285.046 88.3895 285.046C89.5255 285.046 90.3975 284.654 91.0055 283.87C91.6135 283.07 91.9175 282.07 91.9175 280.87ZM100.478 286.246H95.0542V284.878H96.9262V271.102H95.0302V269.734H98.6062V284.878H100.478V286.246ZM107.189 269.494C107.685 269.494 108.125 269.542 108.509 269.638C108.909 269.734 109.293 269.942 109.661 270.262L110.069 272.734L108.701 272.902L108.245 271.078C107.925 270.95 107.517 270.886 107.021 270.886C105.757 270.886 105.125 271.734 105.125 273.43V275.566H107.885V276.91H105.125V284.878H107.549V286.246H101.573V284.878H103.421V276.91H101.885V275.566H103.421V273.574C103.421 272.326 103.789 271.334 104.525 270.598C105.277 269.862 106.165 269.494 107.189 269.494ZM109.533 288.022H119.901V289.246H109.533V288.022ZM122.689 274.75C123.137 274.446 123.721 274.166 124.441 273.91C125.177 273.638 125.945 273.502 126.745 273.502C128.009 273.502 129.049 273.83 129.865 274.486C130.697 275.142 131.113 276.086 131.113 277.318C131.113 278.102 130.889 278.83 130.441 279.502C130.009 280.158 129.233 280.662 128.113 281.014V281.11C129.537 281.35 130.505 281.838 131.017 282.574C131.529 283.31 131.785 284.134 131.785 285.046C131.785 286.438 131.329 287.55 130.417 288.382C129.521 289.214 128.289 289.63 126.721 289.63C125.249 289.63 124.129 289.302 123.361 288.646C122.593 287.99 122.113 287.19 121.921 286.246L123.289 285.766C123.513 286.406 123.881 286.958 124.393 287.422C124.905 287.886 125.665 288.118 126.673 288.118C127.953 288.118 128.809 287.79 129.241 287.134C129.689 286.478 129.913 285.75 129.913 284.95C129.913 284.006 129.577 283.27 128.905 282.742C128.233 282.214 127.057 281.926 125.377 281.878V280.582C126.881 280.518 127.905 280.166 128.449 279.526C128.993 278.87 129.265 278.206 129.265 277.534C129.265 276.75 129.009 276.134 128.497 275.686C128.001 275.238 127.305 275.014 126.409 275.014C125.625 275.014 124.857 275.214 124.105 275.614L123.673 277.558L122.281 277.39L122.689 274.75Z" fill="black"/>
<path d="M67.7802 411.851C67.7802 412.795 67.6122 413.723 67.2762 414.635C66.9562 415.531 66.4362 416.275 65.7162 416.867C65.0122 417.443 64.0762 417.731 62.9082 417.731C61.2922 417.731 60.1162 417.131 59.3802 415.931V421.235H61.8522V422.603H55.8042V421.235H57.7002V408.179H55.7802V406.811H59.3802V409.043C59.7002 408.403 60.1642 407.835 60.7722 407.339C61.3802 406.843 62.1802 406.595 63.1722 406.595C64.5482 406.595 65.6602 407.059 66.5082 407.987C67.3562 408.915 67.7802 410.203 67.7802 411.851ZM66.0042 411.995C66.0042 410.715 65.6922 409.739 65.0682 409.067C64.4442 408.379 63.6682 408.035 62.7402 408.035C61.7802 408.035 60.9882 408.419 60.3642 409.187C59.7402 409.939 59.4122 410.723 59.3802 411.539V413.123C59.3802 414.019 59.6922 414.771 60.3162 415.379C60.9402 415.987 61.6922 416.291 62.5722 416.291C63.7722 416.291 64.6442 415.859 65.1882 414.995C65.7322 414.131 66.0042 413.131 66.0042 411.995ZM74.5915 417.491H69.1675V416.123H71.0395V402.347H69.1435V400.979H72.7195V416.123H74.5915V417.491ZM77.0065 407.627C77.5665 407.259 78.1585 406.995 78.7825 406.835C79.4065 406.675 80.0705 406.595 80.7745 406.595C83.3185 406.595 84.5905 407.787 84.5905 410.171V415.259C84.5905 416.027 84.8945 416.411 85.5025 416.411C85.7745 416.411 86.0145 416.363 86.2225 416.267L86.2465 417.371C85.8145 417.611 85.3505 417.731 84.8545 417.731C83.5905 417.731 82.9425 417.011 82.9105 415.571V415.523C82.5745 416.099 82.0945 416.611 81.4705 417.059C80.8625 417.507 80.1265 417.731 79.2625 417.731C78.5585 417.731 77.8385 417.515 77.1025 417.083C76.3825 416.651 76.0225 415.867 76.0225 414.731C76.0225 413.387 76.5505 412.507 77.6065 412.091C78.6785 411.659 79.8145 411.443 81.0145 411.443C81.3345 411.443 81.6545 411.451 81.9745 411.467C82.3105 411.483 82.6225 411.507 82.9105 411.539V410.579C82.9105 409.811 82.7425 409.187 82.4065 408.707C82.0865 408.227 81.4465 407.987 80.4865 407.987C79.7025 407.987 79.0145 408.131 78.4225 408.419L78.0145 410.267L76.6225 410.099L77.0065 407.627ZM82.9105 413.483V412.667C82.6065 412.651 82.2865 412.627 81.9505 412.595C81.6145 412.563 81.2705 412.547 80.9185 412.547C80.1185 412.547 79.3905 412.675 78.7345 412.931C78.0945 413.171 77.7745 413.707 77.7745 414.539C77.7745 415.227 77.9905 415.699 78.4225 415.955C78.8545 416.211 79.3025 416.339 79.7665 416.339C80.5025 416.339 81.1905 416.083 81.8305 415.571C82.4865 415.059 82.8465 414.363 82.9105 413.483ZM98.1964 408.179H96.9244L93.1564 417.491L91.7164 421.235H93.5404V422.603H88.1164V421.235H90.1084L91.5004 417.467L87.6124 408.179H86.3404V406.811H91.2844V408.179H89.4124L92.4124 415.355H92.5564L95.2204 408.179H93.4924V406.811H98.1964V408.179ZM108.542 414.419C108.398 415.331 107.942 416.115 107.174 416.771C106.406 417.411 105.366 417.731 104.054 417.731C102.55 417.731 101.334 417.259 100.406 416.315C99.4776 415.371 99.0136 414.035 99.0136 412.307C99.0136 410.643 99.4536 409.275 100.334 408.203C101.214 407.131 102.406 406.595 103.91 406.595C105.382 406.595 106.502 407.059 107.27 407.987C108.038 408.915 108.43 410.011 108.446 411.275C108.446 411.691 108.398 412.115 108.302 412.547H100.79C100.886 415.043 102.014 416.291 104.174 416.291C105.022 416.291 105.686 416.091 106.166 415.691C106.646 415.291 106.966 414.763 107.126 414.107L108.542 414.419ZM106.67 411.299C106.75 410.499 106.558 409.747 106.094 409.043C105.646 408.339 104.902 407.987 103.862 407.987C102.87 407.987 102.142 408.315 101.678 408.971C101.214 409.627 100.926 410.403 100.814 411.299H106.67ZM116.191 406.619C116.959 406.619 117.567 406.803 118.015 407.171L118.423 409.859L117.055 410.027L116.647 408.203C116.375 408.107 116.103 408.059 115.831 408.059C115.207 408.059 114.687 408.323 114.271 408.851C113.855 409.363 113.647 410.035 113.647 410.867V416.123H116.119V417.491H110.095V416.123H111.967V408.179H110.047V406.811H113.551V408.731C113.759 408.139 114.095 407.643 114.559 407.243C115.039 406.827 115.583 406.619 116.191 406.619ZM120.701 419.267H131.069V420.491H120.701V419.267ZM141.033 417.491H133.521V415.955H136.449V406.523H133.521V404.987H138.225V415.955H141.033V417.491Z" fill="black"/>
<rect x="741" y="124" width="150" height="339" rx="15" fill="#FFF7CE"/>
<path d="M784.738 352H781.21V349.84C780.858 350.48 780.378 351.04 779.77 351.52C779.162 352 778.37 352.24 777.394 352.24C776.018 352.24 774.906 351.776 774.058 350.848C773.226 349.904 772.81 348.6 772.81 346.936C772.81 345.512 773.178 344.184 773.914 342.952C774.65 341.72 775.89 341.104 777.634 341.104C779.298 341.104 780.49 341.752 781.21 343.048V336.856H778.618V335.488H782.89V350.632H784.738V352ZM781.21 347.272V345.568C781.178 344.672 780.85 343.944 780.226 343.384C779.602 342.824 778.866 342.544 778.018 342.544C776.834 342.544 775.962 342.976 775.402 343.84C774.858 344.704 774.586 345.696 774.586 346.816C774.586 348.128 774.89 349.12 775.498 349.792C776.122 350.464 776.898 350.8 777.826 350.8C778.786 350.8 779.578 350.416 780.202 349.648C780.842 348.864 781.178 348.072 781.21 347.272ZM791.886 341.128C792.654 341.128 793.262 341.312 793.71 341.68L794.118 344.368L792.75 344.536L792.342 342.712C792.07 342.616 791.798 342.568 791.526 342.568C790.902 342.568 790.382 342.832 789.966 343.36C789.55 343.872 789.342 344.544 789.342 345.376V350.632H791.814V352H785.79V350.632H787.662V342.688H785.742V341.32H789.246V343.24C789.454 342.648 789.79 342.152 790.254 341.752C790.734 341.336 791.278 341.128 791.886 341.128ZM797.092 342.136C797.652 341.768 798.244 341.504 798.868 341.344C799.492 341.184 800.156 341.104 800.86 341.104C803.404 341.104 804.676 342.296 804.676 344.68V349.768C804.676 350.536 804.98 350.92 805.588 350.92C805.86 350.92 806.1 350.872 806.308 350.776L806.332 351.88C805.9 352.12 805.436 352.24 804.94 352.24C803.676 352.24 803.028 351.52 802.996 350.08V350.032C802.66 350.608 802.18 351.12 801.556 351.568C800.948 352.016 800.212 352.24 799.348 352.24C798.644 352.24 797.924 352.024 797.188 351.592C796.468 351.16 796.108 350.376 796.108 349.24C796.108 347.896 796.636 347.016 797.692 346.6C798.764 346.168 799.9 345.952 801.1 345.952C801.42 345.952 801.74 345.96 802.06 345.976C802.396 345.992 802.708 346.016 802.996 346.048V345.088C802.996 344.32 802.828 343.696 802.492 343.216C802.172 342.736 801.532 342.496 800.572 342.496C799.788 342.496 799.1 342.64 798.508 342.928L798.1 344.776L796.708 344.608L797.092 342.136ZM802.996 347.992V347.176C802.692 347.16 802.372 347.136 802.036 347.104C801.7 347.072 801.356 347.056 801.004 347.056C800.204 347.056 799.476 347.184 798.82 347.44C798.18 347.68 797.86 348.216 797.86 349.048C797.86 349.736 798.076 350.208 798.508 350.464C798.94 350.72 799.388 350.848 799.852 350.848C800.588 350.848 801.276 350.592 801.916 350.08C802.572 349.568 802.932 348.872 802.996 347.992ZM819.494 342.688H817.766V351.856C817.766 353.536 817.302 354.872 816.374 355.864C815.462 356.856 814.174 357.352 812.51 357.352C811.39 357.352 810.382 357.096 809.486 356.584C808.606 356.072 808.022 355.28 807.734 354.208L809.078 353.536C809.35 354.368 809.822 354.968 810.494 355.336C811.166 355.72 811.862 355.912 812.582 355.912C813.606 355.912 814.438 355.552 815.078 354.832C815.734 354.128 816.062 353.112 816.062 351.784V349.816C815.742 350.44 815.278 350.984 814.67 351.448C814.062 351.912 813.254 352.144 812.246 352.144C810.982 352.144 809.902 351.696 809.006 350.8C808.11 349.904 807.662 348.616 807.662 346.936C807.662 345.512 808.046 344.184 808.814 342.952C809.582 341.72 810.79 341.104 812.438 341.104C814.134 341.104 815.342 341.736 816.062 343V341.32H819.494V342.688ZM816.062 347.392V345.544C816.062 344.648 815.75 343.928 815.126 343.384C814.518 342.824 813.774 342.544 812.894 342.544C811.694 342.544 810.822 342.976 810.278 343.84C809.75 344.704 809.486 345.696 809.486 346.816C809.486 348.128 809.782 349.104 810.374 349.744C810.982 350.384 811.726 350.704 812.606 350.704C813.63 350.704 814.454 350.352 815.078 349.648C815.702 348.944 816.03 348.192 816.062 347.392ZM831.322 346.648C831.322 348.264 830.842 349.6 829.882 350.656C828.922 351.712 827.618 352.24 825.97 352.24C824.354 352.24 823.082 351.728 822.154 350.704C821.242 349.68 820.786 348.36 820.786 346.744C820.786 345.192 821.234 343.864 822.13 342.76C823.026 341.64 824.338 341.08 826.066 341.08C827.81 341.08 829.122 341.632 830.002 342.736C830.882 343.824 831.322 345.128 831.322 346.648ZM829.546 346.624C829.546 345.408 829.234 344.424 828.61 343.672C828.002 342.904 827.138 342.52 826.018 342.52C824.898 342.52 824.034 342.912 823.426 343.696C822.834 344.48 822.538 345.464 822.538 346.648C822.538 347.816 822.834 348.8 823.426 349.6C824.018 350.4 824.882 350.8 826.018 350.8C827.154 350.8 828.026 350.408 828.634 349.624C829.242 348.824 829.546 347.824 829.546 346.624ZM845.739 352H840.339V350.632H842.187V345.664C842.187 344.512 841.955 343.704 841.491 343.24C841.027 342.76 840.435 342.52 839.715 342.52C838.755 342.52 837.979 342.84 837.387 343.48C836.811 344.104 836.507 344.824 836.475 345.64V350.632H838.347V352H832.923V350.632H834.795V342.688H832.875V341.32H836.475V343.216C837.243 341.808 838.491 341.104 840.219 341.104C841.259 341.104 842.131 341.424 842.835 342.064C843.539 342.704 843.891 343.736 843.891 345.16V350.632H845.739V352ZM847.209 353.776H857.577V355H847.209V353.776ZM867.541 352H860.029V350.464H862.957V341.032H860.029V339.496H864.733V350.464H867.541V352ZM869.15 345.736H874.694V347.2H869.15V345.736Z" fill="#C10D0D"/>
<path d="M771.898 346H876.11V347.2H771.898V346Z" fill="#C10D0D"/>
<path d="M803.55 145.688H802.326L799.182 155H797.886L794.622 146.84H794.502L791.31 155H790.062L786.798 145.688H785.622V144.32H790.662V145.688H788.622L790.854 152.432H790.974L794.142 144.32H795.27L798.606 152.432H798.726L800.694 145.688H798.75V144.32H803.55V145.688ZM814.947 149.648C814.947 151.264 814.467 152.6 813.507 153.656C812.547 154.712 811.243 155.24 809.595 155.24C807.979 155.24 806.707 154.728 805.779 153.704C804.867 152.68 804.411 151.36 804.411 149.744C804.411 148.192 804.859 146.864 805.755 145.76C806.651 144.64 807.963 144.08 809.691 144.08C811.435 144.08 812.747 144.632 813.627 145.736C814.507 146.824 814.947 148.128 814.947 149.648ZM813.171 149.624C813.171 148.408 812.859 147.424 812.235 146.672C811.627 145.904 810.763 145.52 809.643 145.52C808.523 145.52 807.659 145.912 807.051 146.696C806.459 147.48 806.163 148.464 806.163 149.648C806.163 150.816 806.459 151.8 807.051 152.6C807.643 153.4 808.507 153.8 809.643 153.8C810.779 153.8 811.651 153.408 812.259 152.624C812.867 151.824 813.171 150.824 813.171 149.624ZM821.732 155H816.308V153.632H818.18V139.856H816.284V138.488H819.86V153.632H821.732V155ZM828.443 138.248C828.939 138.248 829.379 138.296 829.763 138.392C830.163 138.488 830.547 138.696 830.915 139.016L831.323 141.488L829.955 141.656L829.499 139.832C829.179 139.704 828.771 139.64 828.275 139.64C827.011 139.64 826.379 140.488 826.379 142.184V144.32H829.139V145.664H826.379V153.632H828.803V155H822.827V153.632H824.675V145.664H823.139V144.32H824.675V142.328C824.675 141.08 825.043 140.088 825.779 139.352C826.531 138.616 827.419 138.248 828.443 138.248ZM830.787 156.776H841.155V158H830.787V156.776ZM851.119 155H843.607V153.464H846.535V144.032H843.607V142.496H848.311V153.464H851.119V155Z" fill="black"/>
<path d="M797.011 211.688H795.787L792.643 221H791.347L788.083 212.84H787.963L784.771 221H783.523L780.259 211.688H779.083V210.32H784.123V211.688H782.083L784.315 218.432H784.435L787.603 210.32H788.731L792.067 218.432H792.187L794.155 211.688H792.211V210.32H797.011V211.688ZM808.408 215.648C808.408 217.264 807.928 218.6 806.968 219.656C806.008 220.712 804.704 221.24 803.056 221.24C801.44 221.24 800.168 220.728 799.24 219.704C798.328 218.68 797.872 217.36 797.872 215.744C797.872 214.192 798.32 212.864 799.216 211.76C800.112 210.64 801.424 210.08 803.152 210.08C804.896 210.08 806.208 210.632 807.088 211.736C807.968 212.824 808.408 214.128 808.408 215.648ZM806.632 215.624C806.632 214.408 806.32 213.424 805.696 212.672C805.088 211.904 804.224 211.52 803.104 211.52C801.984 211.52 801.12 211.912 800.512 212.696C799.92 213.48 799.624 214.464 799.624 215.648C799.624 216.816 799.92 217.8 800.512 218.6C801.104 219.4 801.968 219.8 803.104 219.8C804.24 219.8 805.112 219.408 805.72 218.624C806.328 217.824 806.632 216.824 806.632 215.624ZM815.193 221H809.769V219.632H811.641V205.856H809.745V204.488H813.321V219.632H815.193V221ZM821.904 204.248C822.4 204.248 822.84 204.296 823.224 204.392C823.624 204.488 824.008 204.696 824.376 205.016L824.784 207.488L823.416 207.656L822.96 205.832C822.64 205.704 822.232 205.64 821.736 205.64C820.472 205.64 819.84 206.488 819.84 208.184V210.32H822.6V211.664H819.84V219.632H822.264V221H816.288V219.632H818.136V211.664H816.6V210.32H818.136V208.328C818.136 207.08 818.504 206.088 819.24 205.352C819.992 204.616 820.88 204.248 821.904 204.248ZM824.248 222.776H834.616V224H824.248V222.776ZM837.644 209.312C838.22 208.976 838.9 208.72 839.684 208.544C840.484 208.352 841.236 208.256 841.94 208.256C843.508 208.256 844.62 208.656 845.276 209.456C845.948 210.256 846.284 211.096 846.284 211.976C846.284 213.08 845.876 214.104 845.06 215.048C844.26 215.976 843.308 216.816 842.204 217.568C841.116 218.304 840.132 218.936 839.252 219.464H845.492L845.708 217.544L847.172 217.664L846.908 221H837.164L836.972 219.632C839.244 218.096 841.052 216.768 842.396 215.648C843.74 214.512 844.412 213.352 844.412 212.168C844.412 210.568 843.46 209.768 841.556 209.768C841.22 209.768 840.812 209.816 840.332 209.912C839.852 210.008 839.412 210.144 839.012 210.32L838.628 212.12L837.236 211.952L837.644 209.312ZM857.028 207.656L854.196 209.264L857.028 210.824L856.332 211.904L853.692 210.2L853.812 213.008H852.492L852.612 210.224L849.996 211.904L849.3 210.824L852.132 209.264L849.3 207.656L849.996 206.576L852.612 208.328L852.492 205.4H853.812L853.668 208.328L856.332 206.576L857.028 207.656Z" fill="#028043"/>
<path d="M797.816 276.688H796.592L793.448 286H792.152L788.888 277.84H788.768L785.576 286H784.328L781.064 276.688H779.888V275.32H784.928V276.688H782.888L785.12 283.432H785.24L788.408 275.32H789.536L792.872 283.432H792.992L794.96 276.688H793.016V275.32H797.816V276.688ZM809.213 280.648C809.213 282.264 808.733 283.6 807.773 284.656C806.813 285.712 805.509 286.24 803.861 286.24C802.245 286.24 800.973 285.728 800.045 284.704C799.133 283.68 798.677 282.36 798.677 280.744C798.677 279.192 799.125 277.864 800.021 276.76C800.917 275.64 802.229 275.08 803.957 275.08C805.701 275.08 807.013 275.632 807.893 276.736C808.773 277.824 809.213 279.128 809.213 280.648ZM807.437 280.624C807.437 279.408 807.125 278.424 806.501 277.672C805.893 276.904 805.029 276.52 803.909 276.52C802.789 276.52 801.925 276.912 801.317 277.696C800.725 278.48 800.429 279.464 800.429 280.648C800.429 281.816 800.725 282.8 801.317 283.6C801.909 284.4 802.773 284.8 803.909 284.8C805.045 284.8 805.917 284.408 806.525 283.624C807.133 282.824 807.437 281.824 807.437 280.624ZM815.998 286H810.574V284.632H812.446V270.856H810.55V269.488H814.126V284.632H815.998V286ZM822.709 269.248C823.205 269.248 823.645 269.296 824.029 269.392C824.429 269.488 824.813 269.696 825.181 270.016L825.589 272.488L824.221 272.656L823.765 270.832C823.445 270.704 823.037 270.64 822.541 270.64C821.277 270.64 820.645 271.488 820.645 273.184V275.32H823.405V276.664H820.645V284.632H823.069V286H817.093V284.632H818.941V276.664H817.405V275.32H818.941V273.328C818.941 272.08 819.309 271.088 820.045 270.352C820.797 269.616 821.685 269.248 822.709 269.248ZM825.053 287.776H835.421V289H825.053V287.776ZM838.209 274.504C838.657 274.2 839.241 273.92 839.961 273.664C840.697 273.392 841.465 273.256 842.265 273.256C843.529 273.256 844.569 273.584 845.385 274.24C846.217 274.896 846.633 275.84 846.633 277.072C846.633 277.856 846.409 278.584 845.961 279.256C845.529 279.912 844.753 280.416 843.633 280.768V280.864C845.057 281.104 846.025 281.592 846.537 282.328C847.049 283.064 847.305 283.888 847.305 284.8C847.305 286.192 846.849 287.304 845.937 288.136C845.041 288.968 843.809 289.384 842.241 289.384C840.769 289.384 839.649 289.056 838.881 288.4C838.113 287.744 837.633 286.944 837.441 286L838.809 285.52C839.033 286.16 839.401 286.712 839.913 287.176C840.425 287.64 841.185 287.872 842.193 287.872C843.473 287.872 844.329 287.544 844.761 286.888C845.209 286.232 845.433 285.504 845.433 284.704C845.433 283.76 845.097 283.024 844.425 282.496C843.753 281.968 842.577 281.68 840.897 281.632V280.336C842.401 280.272 843.425 279.92 843.969 279.28C844.513 278.624 844.785 277.96 844.785 277.288C844.785 276.504 844.529 275.888 844.017 275.44C843.521 274.992 842.825 274.768 841.929 274.768C841.145 274.768 840.377 274.968 839.625 275.368L839.193 277.312L837.801 277.144L838.209 274.504ZM857.223 272.656L854.391 274.264L857.223 275.824L856.527 276.904L853.887 275.2L854.007 278.008H852.687L852.807 275.224L850.191 276.904L849.495 275.824L852.327 274.264L849.495 272.656L850.191 271.576L852.807 273.328L852.687 270.4H854.007L853.863 273.328L856.527 271.576L857.223 272.656Z" fill="black"/>
<path d="M783.8 411.36C783.8 412.304 783.632 413.232 783.296 414.144C782.976 415.04 782.456 415.784 781.736 416.376C781.032 416.952 780.096 417.24 778.928 417.24C777.312 417.24 776.136 416.64 775.4 415.44V420.744H777.872V422.112H771.824V420.744H773.72V407.688H771.8V406.32H775.4V408.552C775.72 407.912 776.184 407.344 776.792 406.848C777.4 406.352 778.2 406.104 779.192 406.104C780.568 406.104 781.68 406.568 782.528 407.496C783.376 408.424 783.8 409.712 783.8 411.36ZM782.024 411.504C782.024 410.224 781.712 409.248 781.088 408.576C780.464 407.888 779.688 407.544 778.76 407.544C777.8 407.544 777.008 407.928 776.384 408.696C775.76 409.448 775.432 410.232 775.4 411.048V412.632C775.4 413.528 775.712 414.28 776.336 414.888C776.96 415.496 777.712 415.8 778.592 415.8C779.792 415.8 780.664 415.368 781.208 414.504C781.752 413.64 782.024 412.64 782.024 411.504ZM790.611 417H785.187V415.632H787.059V401.856H785.163V400.488H788.739V415.632H790.611V417ZM793.026 407.136C793.586 406.768 794.178 406.504 794.802 406.344C795.426 406.184 796.09 406.104 796.794 406.104C799.338 406.104 800.61 407.296 800.61 409.68V414.768C800.61 415.536 800.914 415.92 801.522 415.92C801.794 415.92 802.034 415.872 802.242 415.776L802.266 416.88C801.834 417.12 801.37 417.24 800.874 417.24C799.61 417.24 798.962 416.52 798.93 415.08V415.032C798.594 415.608 798.114 416.12 797.49 416.568C796.882 417.016 796.146 417.24 795.282 417.24C794.578 417.24 793.858 417.024 793.122 416.592C792.402 416.16 792.042 415.376 792.042 414.24C792.042 412.896 792.57 412.016 793.626 411.6C794.698 411.168 795.834 410.952 797.034 410.952C797.354 410.952 797.674 410.96 797.994 410.976C798.33 410.992 798.642 411.016 798.93 411.048V410.088C798.93 409.32 798.762 408.696 798.426 408.216C798.106 407.736 797.466 407.496 796.506 407.496C795.722 407.496 795.034 407.64 794.442 407.928L794.034 409.776L792.642 409.608L793.026 407.136ZM798.93 412.992V412.176C798.626 412.16 798.306 412.136 797.97 412.104C797.634 412.072 797.29 412.056 796.938 412.056C796.138 412.056 795.41 412.184 794.754 412.44C794.114 412.68 793.794 413.216 793.794 414.048C793.794 414.736 794.01 415.208 794.442 415.464C794.874 415.72 795.322 415.848 795.786 415.848C796.522 415.848 797.21 415.592 797.85 415.08C798.506 414.568 798.866 413.872 798.93 412.992ZM814.216 407.688H812.944L809.176 417L807.736 420.744H809.56V422.112H804.136V420.744H806.128L807.52 416.976L803.632 407.688H802.36V406.32H807.304V407.688H805.432L808.432 414.864H808.576L811.24 407.688H809.512V406.32H814.216V407.688ZM824.561 413.928C824.417 414.84 823.961 415.624 823.193 416.28C822.425 416.92 821.385 417.24 820.073 417.24C818.569 417.24 817.353 416.768 816.425 415.824C815.497 414.88 815.033 413.544 815.033 411.816C815.033 410.152 815.473 408.784 816.353 407.712C817.233 406.64 818.425 406.104 819.929 406.104C821.401 406.104 822.521 406.568 823.289 407.496C824.057 408.424 824.449 409.52 824.465 410.784C824.465 411.2 824.417 411.624 824.321 412.056H816.809C816.905 414.552 818.033 415.8 820.193 415.8C821.041 415.8 821.705 415.6 822.185 415.2C822.665 414.8 822.985 414.272 823.145 413.616L824.561 413.928ZM822.689 410.808C822.769 410.008 822.577 409.256 822.113 408.552C821.665 407.848 820.921 407.496 819.881 407.496C818.889 407.496 818.161 407.824 817.697 408.48C817.233 409.136 816.945 409.912 816.833 410.808H822.689ZM832.211 406.128C832.979 406.128 833.587 406.312 834.035 406.68L834.443 409.368L833.075 409.536L832.667 407.712C832.395 407.616 832.123 407.568 831.851 407.568C831.227 407.568 830.707 407.832 830.291 408.36C829.875 408.872 829.667 409.544 829.667 410.376V415.632H832.139V417H826.115V415.632H827.987V407.688H826.067V406.32H829.571V408.24C829.779 407.648 830.115 407.152 830.579 406.752C831.059 406.336 831.603 406.128 832.211 406.128ZM836.721 418.776H847.089V420H836.721V418.776ZM857.053 417H849.541V415.464H852.469V406.032H849.541V404.496H854.245V415.464H857.053V417ZM866.383 403.656L863.551 405.264L866.383 406.824L865.687 407.904L863.047 406.2L863.167 409.008H861.847L861.967 406.224L859.351 407.904L858.655 406.824L861.487 405.264L858.655 403.656L859.351 402.576L861.967 404.328L861.847 401.4H863.167L863.023 404.328L865.687 402.576L866.383 403.656Z" fill="#028043"/>
<path d="M766.707 150.707C767.098 150.317 767.098 149.683 766.707 149.293L760.343 142.929C759.953 142.538 759.319 142.538 758.929 142.929C758.538 143.319 758.538 143.953 758.929 144.343L764.586 150L758.929 155.657C758.538 156.047 758.538 156.681 758.929 157.071C759.319 157.462 759.953 157.462 760.343 157.071L766.707 150.707ZM155 151H766V149H155V151Z" fill="black"/>
<path d="M766.707 216.707C767.098 216.317 767.098 215.683 766.707 215.293L760.343 208.929C759.953 208.538 759.319 208.538 758.929 208.929C758.538 209.319 758.538 209.953 758.929 210.343L764.586 216L758.929 221.657C758.538 222.047 758.538 222.681 758.929 223.071C759.319 223.462 759.953 223.462 760.343 223.071L766.707 216.707ZM155 217H766V215H155V217Z" fill="black"/>
<path d="M766.707 281.707C767.098 281.317 767.098 280.683 766.707 280.293L760.343 273.929C759.953 273.538 759.319 273.538 758.929 273.929C758.538 274.319 758.538 274.953 758.929 275.343L764.586 281L758.929 286.657C758.538 287.047 758.538 287.681 758.929 288.071C759.319 288.462 759.953 288.462 760.343 288.071L766.707 281.707ZM155 282H766V280H155V282Z" fill="black"/>
<path d="M766.707 347.707C767.098 347.317 767.098 346.683 766.707 346.293L760.343 339.929C759.953 339.538 759.319 339.538 758.929 339.929C758.538 340.319 758.538 340.953 758.929 341.343L764.586 347L758.929 352.657C758.538 353.047 758.538 353.681 758.929 354.071C759.319 354.462 759.953 354.462 760.343 354.071L766.707 347.707ZM155 348H766V346H155V348Z" fill="black"/>
<path d="M766.707 415.707C767.098 415.317 767.098 414.683 766.707 414.293L760.343 407.929C759.953 407.538 759.319 407.538 758.929 407.929C758.538 408.319 758.538 408.953 758.929 409.343L764.586 415L758.929 420.657C758.538 421.047 758.538 421.681 758.929 422.071C759.319 422.462 759.953 422.462 760.343 422.071L766.707 415.707ZM155 416H766V414H155V416Z" fill="black"/>
<line x1="226.5" y1="150" x2="226.5" y2="500" stroke="black"/>
<line x1="246.5" y1="281" x2="246.5" y2="500" stroke="black"/>
<line x1="237.5" y1="216.002" x2="236.5" y2="500.002" stroke="black"/>
<line x1="549.5" y1="150" x2="549.5" y2="500" stroke="black"/>
<line x1="569.5" y1="281" x2="569.5" y2="500" stroke="black"/>
<line x1="560.5" y1="216.002" x2="559.5" y2="500.002" stroke="black"/>
<line x1="460.5" y1="347" x2="460.5" y2="500" stroke="black"/>
<line x1="579.5" y1="347" x2="579.5" y2="500" stroke="black"/>
<circle cx="460" cy="347" r="5" fill="#7DE96B" stroke="#A3F096" stroke-width="2"/>
<circle cx="226" cy="150" r="5" fill="#FF9494" stroke="#FF9494" stroke-width="2"/>
<circle cx="247" cy="281" r="5" fill="#FF9494" stroke="#FF9494" stroke-width="2"/>
<circle cx="237" cy="216" r="5" fill="#FF9494" stroke="#FF9494" stroke-width="2"/>
<line x1="328.5" y1="150" x2="328.5" y2="500" stroke="black"/>
<line x1="349.5" y1="281" x2="349.5" y2="500" stroke="black"/>
<line x1="339.5" y1="216.002" x2="338.5" y2="500.002" stroke="black"/>
<line x1="359.5" y1="417" x2="359.5" y2="500" stroke="black"/>
<line x1="589.5" y1="415" x2="589.5" y2="500" stroke="black"/>
<circle cx="349" cy="281" r="4.5" fill="#FFD18C" stroke="#FFD18C"/>
<circle cx="359" cy="415" r="4.5" fill="#FFD18C" stroke="#FFD18C"/>
<circle cx="339" cy="216" r="4.5" fill="#FFD18C" stroke="#FFD18C"/>
<circle cx="328" cy="150" r="4.5" fill="#FFD18C" stroke="#FFD18C"/>
<circle cx="549" cy="150" r="5" fill="#96E4EF" stroke="#96E4EF" stroke-width="2"/>
<circle cx="560" cy="216" r="5" fill="#96E4EF" stroke="#96E4EF" stroke-width="2"/>
<circle cx="569" cy="281" r="5" fill="#96E4EF" stroke="#96E4EF" stroke-width="2"/>
<circle cx="579" cy="347" r="5" fill="#96E4EF" stroke="#96E4EF" stroke-width="2"/>
<circle cx="589" cy="415" r="5" fill="#96E4EF" stroke="#96E4EF" stroke-width="2"/>
<line x1="663.5" y1="150" x2="663.5" y2="500" stroke="black"/>
<line x1="683.5" y1="281" x2="683.5" y2="500" stroke="black"/>
<line x1="674.5" y1="216.002" x2="673.5" y2="500.002" stroke="black"/>
<line x1="693.5" y1="347" x2="693.5" y2="500" stroke="black"/>
<line x1="703.5" y1="415" x2="703.5" y2="500" stroke="black"/>
<circle cx="674" cy="216" r="5" fill="#C5BCFF" stroke="#C5BCFF" stroke-width="2"/>
<circle cx="683" cy="281" r="5" fill="#C5BCFF" stroke="#C5BCFF" stroke-width="2"/>
<circle cx="693" cy="347" r="5" fill="#C5BCFF" stroke="#C5BCFF" stroke-width="2"/>
<circle cx="703" cy="415" r="5" fill="#C5BCFF" stroke="#C5BCFF" stroke-width="2"/>
<circle cx="663" cy="150" r="5" fill="#C5BCFF" stroke="#C5BCFF" stroke-width="2"/>
</svg>
