<svg width="919" height="601" viewBox="0 0 919 601" fill="none" xmlns="http://www.w3.org/2000/svg">
<rect width="919" height="601" fill="#EDEDED"/>
<rect width="919" height="601" fill="white"/>
<rect x="162" y="496" width="591" height="71" rx="15" fill="#F4F4F4"/>
<rect x="407.508" y="511" width="101.985" height="41" rx="20.5" fill="#A3FFAC"/>
<path d="M456.313 529.478L454.993 529.618L454.593 527.018H449.553V532.078H455.533V533.358H449.553V537.458H451.853V538.738H446.453V537.458H448.093V527.018H446.453V525.738H455.893L456.313 529.478ZM461.685 538.738H457.165V537.598H458.725V526.118H457.145V524.978H460.125V537.598H461.685V538.738ZM471.864 530.978H470.804L467.664 538.738L466.464 541.858H467.984V542.998H463.464V541.858H465.124L466.284 538.718L463.044 530.978H461.984V529.838H466.104V530.978H464.544L467.044 536.958H467.164L469.384 530.978H467.944V529.838H471.864V530.978Z" fill="black"/>
<rect x="519.237" y="511" width="101.985" height="41" rx="20.5" fill="#D2D46B"/>
<path d="M551.018 538.738H546.398V537.458H548.138L547.198 534.958H541.638L540.638 537.458H542.518V538.738H537.938V537.458H539.158L543.418 527.018H541.338V525.738H545.038L549.698 537.458H551.018V538.738ZM546.778 533.818L544.538 527.858H544.418L542.078 533.818H546.778ZM557.973 536.338C557.733 538.071 556.793 538.938 555.153 538.938C554.259 538.938 553.573 538.684 553.093 538.178C552.626 537.671 552.393 536.984 552.393 536.118V530.958H550.953V529.838H552.393V526.978H553.793V529.838H557.273V530.958H553.793V535.938C553.793 536.471 553.906 536.904 554.133 537.238C554.373 537.558 554.759 537.718 555.293 537.718C555.639 537.718 555.959 537.611 556.253 537.398C556.559 537.184 556.779 536.718 556.913 535.998L557.973 536.338ZM565.395 536.338C565.155 538.071 564.215 538.938 562.575 538.938C561.681 538.938 560.995 538.684 560.515 538.178C560.048 537.671 559.815 536.984 559.815 536.118V530.958H558.375V529.838H559.815V526.978H561.215V529.838H564.695V530.958H561.215V535.938C561.215 536.471 561.328 536.904 561.555 537.238C561.795 537.558 562.181 537.718 562.715 537.718C563.061 537.718 563.381 537.611 563.675 537.398C563.981 537.184 564.201 536.718 564.335 535.998L565.395 536.338ZM571.176 529.678C571.816 529.678 572.323 529.831 572.696 530.138L573.036 532.378L571.896 532.518L571.556 530.998C571.33 530.918 571.103 530.878 570.876 530.878C570.356 530.878 569.923 531.098 569.576 531.538C569.23 531.964 569.056 532.524 569.056 533.218V537.598H571.116V538.738H566.096V537.598H567.656V530.978H566.056V529.838H568.976V531.438C569.15 530.944 569.43 530.531 569.816 530.198C570.216 529.851 570.67 529.678 571.176 529.678ZM575.515 530.518C575.982 530.211 576.475 529.991 576.995 529.858C577.515 529.724 578.068 529.658 578.655 529.658C580.775 529.658 581.835 530.651 581.835 532.638V536.878C581.835 537.518 582.088 537.838 582.595 537.838C582.822 537.838 583.022 537.798 583.195 537.718L583.215 538.638C582.855 538.838 582.468 538.938 582.055 538.938C581.002 538.938 580.462 538.338 580.435 537.138V537.098C580.155 537.578 579.755 538.004 579.235 538.378C578.728 538.751 578.115 538.938 577.395 538.938C576.808 538.938 576.208 538.758 575.595 538.398C574.995 538.038 574.695 537.384 574.695 536.438C574.695 535.318 575.135 534.584 576.015 534.238C576.908 533.878 577.855 533.698 578.855 533.698C579.122 533.698 579.388 533.704 579.655 533.718C579.935 533.731 580.195 533.751 580.435 533.778V532.978C580.435 532.338 580.295 531.818 580.015 531.418C579.748 531.018 579.215 530.818 578.415 530.818C577.762 530.818 577.188 530.938 576.695 531.178L576.355 532.718L575.195 532.578L575.515 530.518ZM580.435 535.398V534.718C580.182 534.704 579.915 534.684 579.635 534.658C579.355 534.631 579.068 534.618 578.775 534.618C578.108 534.618 577.502 534.724 576.955 534.938C576.422 535.138 576.155 535.584 576.155 536.278C576.155 536.851 576.335 537.244 576.695 537.458C577.055 537.671 577.428 537.778 577.815 537.778C578.428 537.778 579.002 537.564 579.535 537.138C580.082 536.711 580.382 536.131 580.435 535.398ZM592.123 535.738C592.003 536.511 591.649 537.238 591.063 537.918C590.489 538.598 589.589 538.938 588.363 538.938C587.136 538.938 586.156 538.544 585.423 537.758C584.689 536.958 584.323 535.844 584.323 534.418C584.323 533.191 584.669 532.091 585.363 531.118C586.056 530.144 587.096 529.658 588.483 529.658C589.069 529.658 589.609 529.724 590.103 529.858C590.596 529.991 591.069 530.231 591.523 530.578L591.863 532.718L590.703 532.858L590.363 531.358C589.829 531.024 589.196 530.858 588.463 530.858C587.516 530.858 586.836 531.198 586.423 531.878C586.009 532.558 585.803 533.378 585.803 534.338C585.803 535.404 586.036 536.238 586.503 536.838C586.969 537.438 587.643 537.738 588.523 537.738C589.856 537.738 590.656 536.984 590.923 535.478L592.123 535.738ZM602.981 538.738H598.781V537.598H600.121L597.681 534.578H596.101V537.598H597.381V538.738H593.141V537.598H594.681V526.118H593.101V524.978H596.101V533.498H597.701L599.741 530.978H598.361V529.838H602.521V530.978H601.161L598.781 533.918L601.721 537.598H602.981V538.738Z" fill="black"/>
<rect x="630.967" y="511" width="101.985" height="41" rx="20.5" fill="#88F8FF"/>
<path d="M672.03 532.218C672.03 534.124 671.443 535.691 670.27 536.918C669.11 538.131 667.503 538.738 665.45 538.738H659.57V537.478H661.21V526.998H659.57V525.738H665.39C667.51 525.738 669.143 526.351 670.29 527.578C671.45 528.791 672.03 530.338 672.03 532.218ZM670.47 532.238C670.47 530.664 670.03 529.398 669.15 528.438C668.283 527.478 667.023 526.998 665.37 526.998H662.67V537.478H665.37C667.023 537.478 668.283 537.011 669.15 536.078C670.03 535.131 670.47 533.851 670.47 532.238ZM678.511 529.678C679.151 529.678 679.658 529.831 680.031 530.138L680.371 532.378L679.231 532.518L678.891 530.998C678.664 530.918 678.438 530.878 678.211 530.878C677.691 530.878 677.258 531.098 676.911 531.538C676.564 531.964 676.391 532.524 676.391 533.218V537.598H678.451V538.738H673.431V537.598H674.991V530.978H673.391V529.838H676.311V531.438C676.484 530.944 676.764 530.531 677.151 530.198C677.551 529.851 678.004 529.678 678.511 529.678ZM682.85 530.518C683.316 530.211 683.81 529.991 684.33 529.858C684.85 529.724 685.403 529.658 685.99 529.658C688.11 529.658 689.17 530.651 689.17 532.638V536.878C689.17 537.518 689.423 537.838 689.93 537.838C690.156 537.838 690.356 537.798 690.53 537.718L690.55 538.638C690.19 538.838 689.803 538.938 689.39 538.938C688.336 538.938 687.796 538.338 687.77 537.138V537.098C687.49 537.578 687.09 538.004 686.57 538.378C686.063 538.751 685.45 538.938 684.73 538.938C684.143 538.938 683.543 538.758 682.93 538.398C682.33 538.038 682.03 537.384 682.03 536.438C682.03 535.318 682.47 534.584 683.35 534.238C684.243 533.878 685.19 533.698 686.19 533.698C686.456 533.698 686.723 533.704 686.99 533.718C687.27 533.731 687.53 533.751 687.77 533.778V532.978C687.77 532.338 687.63 531.818 687.35 531.418C687.083 531.018 686.55 530.818 685.75 530.818C685.096 530.818 684.523 530.938 684.03 531.178L683.69 532.718L682.53 532.578L682.85 530.518ZM687.77 535.398V534.718C687.516 534.704 687.25 534.684 686.97 534.658C686.69 534.631 686.403 534.618 686.11 534.618C685.443 534.618 684.836 534.724 684.29 534.938C683.756 535.138 683.49 535.584 683.49 536.278C683.49 536.851 683.67 537.244 684.03 537.458C684.39 537.671 684.763 537.778 685.15 537.778C685.763 537.778 686.336 537.564 686.87 537.138C687.416 536.711 687.716 536.131 687.77 535.398ZM705.646 530.978H704.626L702.006 538.738H700.926L698.206 531.938H698.106L695.446 538.738H694.406L691.686 530.978H690.706V529.838H694.906V530.978H693.206L695.066 536.598H695.166L697.806 529.838H698.746L701.526 536.598H701.626L703.266 530.978H701.646V529.838H705.646V530.978Z" fill="black"/>
<rect x="295.779" y="511" width="101.985" height="41" rx="20.5" fill="#A0BBFF"/>
<path d="M344.094 527.018H342.994L339.514 538.738H338.334L334.914 528.338H334.834L331.514 538.738H330.334L326.614 527.018H325.514V525.738H330.014V527.018H328.174L330.914 536.358H330.994L333.994 527.018H332.694V525.738H337.174V527.018H335.874L338.914 536.418H338.994L341.514 527.018H339.634V525.738H344.094V527.018ZM344.927 530.518C345.394 530.211 345.887 529.991 346.407 529.858C346.927 529.724 347.481 529.658 348.067 529.658C350.187 529.658 351.247 530.651 351.247 532.638V536.878C351.247 537.518 351.501 537.838 352.007 537.838C352.234 537.838 352.434 537.798 352.607 537.718L352.627 538.638C352.267 538.838 351.881 538.938 351.467 538.938C350.414 538.938 349.874 538.338 349.847 537.138V537.098C349.567 537.578 349.167 538.004 348.647 538.378C348.141 538.751 347.527 538.938 346.807 538.938C346.221 538.938 345.621 538.758 345.007 538.398C344.407 538.038 344.107 537.384 344.107 536.438C344.107 535.318 344.547 534.584 345.427 534.238C346.321 533.878 347.267 533.698 348.267 533.698C348.534 533.698 348.801 533.704 349.067 533.718C349.347 533.731 349.607 533.751 349.847 533.778V532.978C349.847 532.338 349.707 531.818 349.427 531.418C349.161 531.018 348.627 530.818 347.827 530.818C347.174 530.818 346.601 530.938 346.107 531.178L345.767 532.718L344.607 532.578L344.927 530.518ZM349.847 535.398V534.718C349.594 534.704 349.327 534.684 349.047 534.658C348.767 534.631 348.481 534.618 348.187 534.618C347.521 534.618 346.914 534.724 346.367 534.938C345.834 535.138 345.567 535.584 345.567 536.278C345.567 536.851 345.747 537.244 346.107 537.458C346.467 537.671 346.841 537.778 347.227 537.778C347.841 537.778 348.414 537.564 348.947 537.138C349.494 536.711 349.794 536.131 349.847 535.398ZM357.895 538.738H353.375V537.598H354.935V526.118H353.355V524.978H356.335V537.598H357.895V538.738ZM368.468 538.738H364.268V537.598H365.608L363.168 534.578H361.588V537.598H362.868V538.738H358.628V537.598H360.168V526.118H358.588V524.978H361.588V533.498H363.188L365.228 530.978H363.848V529.838H368.008V530.978H366.648L364.268 533.918L367.208 537.598H368.468V538.738Z" fill="black"/>
<rect x="184.049" y="511" width="101.985" height="41" rx="20.5" fill="#FF6F6F"/>
<path d="M211.836 538.738H207.216V537.458H208.956L208.016 534.958H202.456L201.456 537.458H203.336V538.738H198.756V537.458H199.976L204.236 527.018H202.156V525.738H205.856L210.516 537.458H211.836V538.738ZM207.596 533.818L205.356 527.858H205.236L202.896 533.818H207.596ZM217.285 538.738H212.545V537.458H214.185V527.018H212.545V525.738H217.285V527.018H215.665V537.458H217.285V538.738ZM219.19 540.218H227.83V541.238H219.19V540.218ZM247.414 527.018H246.314L242.834 538.738H241.654L238.234 528.338H238.154L234.834 538.738H233.654L229.934 527.018H228.834V525.738H233.334V527.018H231.494L234.234 536.358H234.314L237.314 527.018H236.014V525.738H240.494V527.018H239.194L242.234 536.418H242.314L244.834 527.018H242.954V525.738H247.414V527.018ZM248.247 530.518C248.713 530.211 249.207 529.991 249.727 529.858C250.247 529.724 250.8 529.658 251.387 529.658C253.507 529.658 254.567 530.651 254.567 532.638V536.878C254.567 537.518 254.82 537.838 255.327 537.838C255.553 537.838 255.753 537.798 255.927 537.718L255.947 538.638C255.587 538.838 255.2 538.938 254.787 538.938C253.733 538.938 253.193 538.338 253.167 537.138V537.098C252.887 537.578 252.487 538.004 251.967 538.378C251.46 538.751 250.847 538.938 250.127 538.938C249.54 538.938 248.94 538.758 248.327 538.398C247.727 538.038 247.427 537.384 247.427 536.438C247.427 535.318 247.867 534.584 248.747 534.238C249.64 533.878 250.587 533.698 251.587 533.698C251.853 533.698 252.12 533.704 252.387 533.718C252.667 533.731 252.927 533.751 253.167 533.778V532.978C253.167 532.338 253.027 531.818 252.747 531.418C252.48 531.018 251.947 530.818 251.147 530.818C250.493 530.818 249.92 530.938 249.427 531.178L249.087 532.718L247.927 532.578L248.247 530.518ZM253.167 535.398V534.718C252.913 534.704 252.647 534.684 252.367 534.658C252.087 534.631 251.8 534.618 251.507 534.618C250.84 534.618 250.233 534.724 249.687 534.938C249.153 535.138 248.887 535.584 248.887 536.278C248.887 536.851 249.067 537.244 249.427 537.458C249.787 537.671 250.16 537.778 250.547 537.778C251.16 537.778 251.733 537.564 252.267 537.138C252.813 536.711 253.113 536.131 253.167 535.398ZM261.215 538.738H256.695V537.598H258.255V526.118H256.675V524.978H259.655V537.598H261.215V538.738ZM271.787 538.738H267.587V537.598H268.927L266.487 534.578H264.907V537.598H266.187V538.738H261.947V537.598H263.487V526.118H261.907V524.978H264.907V533.498H266.507L268.547 530.978H267.167V529.838H271.327V530.978H269.967L267.587 533.918L270.527 537.598H271.787V538.738Z" fill="black"/>
<path d="M75.2195 31.912H73.8935L70.4875 42H69.0835L65.5475 33.16H65.4175L61.9595 42H60.6075L57.0715 31.912H55.7975V30.43H61.2575V31.912H59.0475L61.4655 39.218H61.5955L65.0275 30.43H66.2495L69.8635 39.218H69.9935L72.1255 31.912H70.0195V30.43H75.2195V31.912ZM87.5664 36.202C87.5664 37.9527 87.0464 39.4 86.0064 40.544C84.9664 41.688 83.5538 42.26 81.7684 42.26C80.0178 42.26 78.6398 41.7053 77.6344 40.596C76.6464 39.4867 76.1524 38.0567 76.1524 36.306C76.1524 34.6247 76.6378 33.186 77.6084 31.99C78.5791 30.7767 80.0004 30.17 81.8724 30.17C83.7618 30.17 85.1831 30.768 86.1364 31.964C87.0898 33.1427 87.5664 34.5553 87.5664 36.202ZM85.6424 36.176C85.6424 34.8587 85.3044 33.7927 84.6284 32.978C83.9698 32.146 83.0338 31.73 81.8204 31.73C80.6071 31.73 79.6711 32.1547 79.0124 33.004C78.3711 33.8533 78.0504 34.9193 78.0504 36.202C78.0504 37.4673 78.3711 38.5333 79.0124 39.4C79.6538 40.2667 80.5898 40.7 81.8204 40.7C83.0511 40.7 83.9958 40.2753 84.6544 39.426C85.3131 38.5593 85.6424 37.476 85.6424 36.176ZM95.9045 30.222C96.7365 30.222 97.3952 30.4213 97.8805 30.82L98.3225 33.732L96.8405 33.914L96.3985 31.938C96.1038 31.834 95.8092 31.782 95.5145 31.782C94.8385 31.782 94.2752 32.068 93.8245 32.64C93.3738 33.1947 93.1485 33.9227 93.1485 34.824V40.518H95.8265V42H89.3005V40.518H91.3285V31.912H89.2485V30.43H93.0445V32.51C93.2698 31.8687 93.6338 31.3313 94.1365 30.898C94.6565 30.4473 95.2458 30.222 95.9045 30.222ZM105.657 42H99.7807V40.518H101.809V25.594H99.7547V24.112H103.629V40.518H105.657V42ZM120.077 42H116.255V39.66C115.874 40.3533 115.354 40.96 114.695 41.48C114.036 42 113.178 42.26 112.121 42.26C110.63 42.26 109.426 41.7573 108.507 40.752C107.606 39.7293 107.155 38.3167 107.155 36.514C107.155 34.9713 107.554 33.5327 108.351 32.198C109.148 30.8633 110.492 30.196 112.381 30.196C114.184 30.196 115.475 30.898 116.255 32.302V25.594H113.447V24.112H118.075V40.518H120.077V42ZM116.255 36.878V35.032C116.22 34.0613 115.865 33.2727 115.189 32.666C114.513 32.0593 113.716 31.756 112.797 31.756C111.514 31.756 110.57 32.224 109.963 33.16C109.374 34.096 109.079 35.1707 109.079 36.384C109.079 37.8053 109.408 38.88 110.067 39.608C110.743 40.336 111.584 40.7 112.589 40.7C113.629 40.7 114.487 40.284 115.163 39.452C115.856 38.6027 116.22 37.7447 116.255 36.878ZM40.5779 50.332H42.3199C39.4426 53.9893 38.0039 57.872 38.0039 61.98C38.0039 63.9907 38.3593 66.01 39.0699 68.038C39.7979 70.066 40.8813 71.9727 42.3199 73.758H40.5259C39.0873 71.8513 38.0386 69.91 37.3799 67.934C36.7213 65.9407 36.3919 63.956 36.3919 61.98C36.3919 59.9693 36.7299 57.9847 37.4059 56.026C38.0993 54.0673 39.1566 52.1693 40.5779 50.332ZM48.6887 50.852C49.226 50.852 49.7027 50.904 50.1187 51.008C50.552 51.112 50.968 51.3373 51.3667 51.684L51.8087 54.362L50.3267 54.544L49.8327 52.568C49.486 52.4293 49.044 52.36 48.5067 52.36C47.1374 52.36 46.4527 53.2787 46.4527 55.116V57.43H49.4427V58.886H46.4527V67.518H49.0787V69H42.6047V67.518H44.6067V58.886H42.9427V57.43H44.6067V55.272C44.6067 53.92 45.0054 52.8453 45.8027 52.048C46.6174 51.2507 47.5794 50.852 48.6887 50.852ZM57.6154 57.222C58.4474 57.222 59.1061 57.4213 59.5914 57.82L60.0334 60.732L58.5514 60.914L58.1094 58.938C57.8148 58.834 57.5201 58.782 57.2254 58.782C56.5494 58.782 55.9861 59.068 55.5354 59.64C55.0848 60.1947 54.8594 60.9227 54.8594 61.824V67.518H57.5374V69H51.0114V67.518H53.0394V58.912H50.9594V57.43H54.7554V59.51C54.9808 58.8687 55.3448 58.3313 55.8474 57.898C56.3674 57.4473 56.9568 57.222 57.6154 57.222ZM63.2554 58.314C63.8621 57.9153 64.5034 57.6293 65.1794 57.456C65.8554 57.2827 66.5747 57.196 67.3374 57.196C70.0934 57.196 71.4714 58.4873 71.4714 61.07V66.582C71.4714 67.414 71.8007 67.83 72.4594 67.83C72.7541 67.83 73.0141 67.778 73.2394 67.674L73.2654 68.87C72.7974 69.13 72.2947 69.26 71.7574 69.26C70.3881 69.26 69.6861 68.48 69.6514 66.92V66.868C69.2874 67.492 68.7674 68.0467 68.0914 68.532C67.4327 69.0173 66.6354 69.26 65.6994 69.26C64.9367 69.26 64.1567 69.026 63.3594 68.558C62.5794 68.09 62.1894 67.2407 62.1894 66.01C62.1894 64.554 62.7614 63.6007 63.9054 63.15C65.0667 62.682 66.2974 62.448 67.5974 62.448C67.9441 62.448 68.2907 62.4567 68.6374 62.474C69.0014 62.4913 69.3394 62.5173 69.6514 62.552V61.512C69.6514 60.68 69.4694 60.004 69.1054 59.484C68.7587 58.964 68.0654 58.704 67.0254 58.704C66.1761 58.704 65.4307 58.86 64.7894 59.172L64.3474 61.174L62.8394 60.992L63.2554 58.314ZM69.6514 64.658V63.774C69.3221 63.7567 68.9754 63.7307 68.6114 63.696C68.2474 63.6613 67.8747 63.644 67.4934 63.644C66.6267 63.644 65.8381 63.7827 65.1274 64.06C64.4341 64.32 64.0874 64.9007 64.0874 65.802C64.0874 66.5473 64.3214 67.0587 64.7894 67.336C65.2574 67.6133 65.7427 67.752 66.2454 67.752C67.0427 67.752 67.7881 67.4747 68.4814 66.92C69.1921 66.3653 69.5821 65.6113 69.6514 64.658ZM95.9218 69H90.3838V67.518H92.0738V62.136C92.0738 60.888 91.8224 60.0127 91.3198 59.51C90.8344 58.99 90.2104 58.73 89.4478 58.73C88.3904 58.73 87.5758 59.1287 87.0038 59.926C86.4318 60.7233 86.1371 61.486 86.1198 62.214V67.518H88.1218V69H82.6098V67.518H84.2738V62.136C84.2738 60.8707 84.0311 59.9867 83.5458 59.484C83.0604 58.9813 82.4451 58.73 81.6998 58.73C80.6251 58.73 79.8018 59.12 79.2298 59.9C78.6751 60.6627 78.3804 61.4167 78.3458 62.162V67.518H80.4778V69H74.4978V67.518H76.5258V58.912H74.4718V57.43H78.3458V59.588C78.7271 58.8947 79.2384 58.3227 79.8798 57.872C80.5211 57.4213 81.3011 57.196 82.2198 57.196C83.1211 57.196 83.9011 57.4213 84.5598 57.872C85.2358 58.3227 85.6951 59.0247 85.9378 59.978C86.2844 59.1633 86.7958 58.496 87.4718 57.976C88.1651 57.456 89.0144 57.196 90.0198 57.196C91.1291 57.196 92.0478 57.5427 92.7758 58.236C93.5211 58.9293 93.8938 60.0473 93.8938 61.59V67.518H95.9218V69ZM107.473 65.672C107.317 66.66 106.823 67.5093 105.991 68.22C105.159 68.9133 104.032 69.26 102.611 69.26C100.982 69.26 99.6644 68.7487 98.6591 67.726C97.6538 66.7033 97.1511 65.256 97.1511 63.384C97.1511 61.5813 97.6278 60.0993 98.5811 58.938C99.5344 57.7767 100.826 57.196 102.455 57.196C104.05 57.196 105.263 57.6987 106.095 58.704C106.927 59.7093 107.352 60.8967 107.369 62.266C107.369 62.7167 107.317 63.176 107.213 63.644H99.0751C99.1791 66.348 100.401 67.7 102.741 67.7C103.66 67.7 104.379 67.4833 104.899 67.05C105.419 66.6167 105.766 66.0447 105.939 65.334L107.473 65.672ZM105.445 62.292C105.532 61.4253 105.324 60.6107 104.821 59.848C104.336 59.0853 103.53 58.704 102.403 58.704C101.328 58.704 100.54 59.0593 100.037 59.77C99.5344 60.4807 99.2224 61.3213 99.1011 62.292H105.445ZM132.545 53.764H130.439V69H129.217L119.415 55.688H119.311V67.336H121.989V69H115.541V67.336H117.491V53.764H115.255V52.1H118.895L128.515 65.126H128.619V53.764H126.071V52.1H132.545V53.764ZM135.386 73.758H133.644C136.521 70.1007 137.96 66.218 137.96 62.11C137.96 60.0993 137.596 58.0887 136.868 56.078C136.157 54.05 135.083 52.1347 133.644 50.332H135.438C136.877 52.2387 137.925 54.1887 138.584 56.182C139.243 58.158 139.572 60.134 139.572 62.11C139.572 64.1033 139.225 66.0793 138.532 68.038C137.856 69.9967 136.807 71.9033 135.386 73.758Z" fill="black"/>
<path d="M418.539 66.672C418.383 67.66 417.889 68.5093 417.057 69.22C416.225 69.9133 415.099 70.26 413.677 70.26C412.048 70.26 410.731 69.7487 409.725 68.726C408.72 67.7033 408.217 66.256 408.217 64.384C408.217 62.5813 408.694 61.0993 409.647 59.938C410.601 58.7767 411.892 58.196 413.521 58.196C415.116 58.196 416.329 58.6987 417.161 59.704C417.993 60.7093 418.418 61.8967 418.435 63.266C418.435 63.7167 418.383 64.176 418.279 64.644H410.141C410.245 67.348 411.467 68.7 413.807 68.7C414.726 68.7 415.445 68.4833 415.965 68.05C416.485 67.6167 416.832 67.0447 417.005 66.334L418.539 66.672ZM416.511 63.292C416.598 62.4253 416.39 61.6107 415.887 60.848C415.402 60.0853 414.596 59.704 413.469 59.704C412.395 59.704 411.606 60.0593 411.103 60.77C410.601 61.4807 410.289 62.3213 410.167 63.292H416.511ZM432.136 70H427.04V68.518H428.548L425.844 65.19L423.114 68.518H424.492V70H419.682V68.518H421.268L424.908 64.228L421.242 59.912H419.682V58.43H424.96V59.912H423.4L426 63.188L428.678 59.912H427.3V58.43H431.928V59.912H430.576L426.962 64.124L430.68 68.518H432.136V70ZM443.422 66.672C443.266 67.66 442.772 68.5093 441.94 69.22C441.108 69.9133 439.982 70.26 438.56 70.26C436.931 70.26 435.614 69.7487 434.608 68.726C433.603 67.7033 433.1 66.256 433.1 64.384C433.1 62.5813 433.577 61.0993 434.53 59.938C435.484 58.7767 436.775 58.196 438.404 58.196C439.999 58.196 441.212 58.6987 442.044 59.704C442.876 60.7093 443.301 61.8967 443.318 63.266C443.318 63.7167 443.266 64.176 443.162 64.644H435.024C435.128 67.348 436.35 68.7 438.69 68.7C439.609 68.7 440.328 68.4833 440.848 68.05C441.368 67.6167 441.715 67.0447 441.888 66.334L443.422 66.672ZM441.394 63.292C441.481 62.4253 441.273 61.6107 440.77 60.848C440.285 60.0853 439.479 59.704 438.352 59.704C437.278 59.704 436.489 60.0593 435.986 60.77C435.484 61.4807 435.172 62.3213 435.05 63.292H441.394ZM455.453 66.1C455.297 67.1053 454.838 68.05 454.075 68.934C453.33 69.818 452.16 70.26 450.565 70.26C448.971 70.26 447.697 69.7487 446.743 68.726C445.79 67.686 445.313 66.2387 445.313 64.384C445.313 62.7893 445.764 61.3593 446.665 60.094C447.567 58.8287 448.919 58.196 450.721 58.196C451.484 58.196 452.186 58.2827 452.827 58.456C453.469 58.6293 454.084 58.9413 454.673 59.392L455.115 62.174L453.607 62.356L453.165 60.406C452.472 59.9727 451.649 59.756 450.695 59.756C449.465 59.756 448.581 60.198 448.043 61.082C447.506 61.966 447.237 63.032 447.237 64.28C447.237 65.6667 447.541 66.75 448.147 67.53C448.754 68.31 449.629 68.7 450.773 68.7C452.507 68.7 453.547 67.7207 453.893 65.762L455.453 66.1ZM470.531 70H466.631V67.816C466.267 68.544 465.73 69.1333 465.019 69.584C464.326 70.0347 463.52 70.26 462.601 70.26C461.474 70.26 460.521 69.9133 459.741 69.22C458.978 68.5093 458.597 67.3827 458.597 65.84V59.912H456.569V58.43H460.417V65.32C460.417 66.568 460.677 67.4433 461.197 67.946C461.717 68.4487 462.384 68.7 463.199 68.7C464.187 68.7 464.993 68.3273 465.617 67.582C466.258 66.8367 466.596 66.048 466.631 65.216V59.912H464.213V58.43H468.451V68.518H470.531V70ZM480.425 66.88C480.113 69.1333 478.891 70.26 476.759 70.26C475.598 70.26 474.705 69.9307 474.081 69.272C473.475 68.6133 473.171 67.7207 473.171 66.594V59.886H471.299V58.43H473.171V54.712H474.991V58.43H479.515V59.886H474.991V66.36C474.991 67.0533 475.139 67.6167 475.433 68.05C475.745 68.466 476.248 68.674 476.941 68.674C477.392 68.674 477.808 68.5353 478.189 68.258C478.588 67.9807 478.874 67.374 479.047 66.438L480.425 66.88ZM491.868 66.672C491.712 67.66 491.218 68.5093 490.386 69.22C489.554 69.9133 488.427 70.26 487.006 70.26C485.376 70.26 484.059 69.7487 483.054 68.726C482.048 67.7033 481.546 66.256 481.546 64.384C481.546 62.5813 482.022 61.0993 482.976 59.938C483.929 58.7767 485.22 58.196 486.85 58.196C488.444 58.196 489.658 58.6987 490.49 59.704C491.322 60.7093 491.746 61.8967 491.764 63.266C491.764 63.7167 491.712 64.176 491.608 64.644H483.47C483.574 67.348 484.796 68.7 487.136 68.7C488.054 68.7 488.774 68.4833 489.294 68.05C489.814 67.6167 490.16 67.0447 490.334 66.334L491.868 66.672ZM489.84 63.292C489.926 62.4253 489.718 61.6107 489.216 60.848C488.73 60.0853 487.924 59.704 486.798 59.704C485.723 59.704 484.934 60.0593 484.432 60.77C483.929 61.4807 483.617 62.3213 483.496 63.292H489.84Z" fill="black"/>
<path d="M809.219 37.912H807.893L804.487 48H803.083L799.547 39.16H799.417L795.959 48H794.607L791.071 37.912H789.797V36.43H795.257V37.912H793.047L795.465 45.218H795.595L799.027 36.43H800.249L803.863 45.218H803.993L806.125 37.912H804.019V36.43H809.219V37.912ZM821.566 42.202C821.566 43.9527 821.046 45.4 820.006 46.544C818.966 47.688 817.554 48.26 815.768 48.26C814.018 48.26 812.64 47.7053 811.634 46.596C810.646 45.4867 810.152 44.0567 810.152 42.306C810.152 40.6247 810.638 39.186 811.608 37.99C812.579 36.7767 814 36.17 815.872 36.17C817.762 36.17 819.183 36.768 820.136 37.964C821.09 39.1427 821.566 40.5553 821.566 42.202ZM819.642 42.176C819.642 40.8587 819.304 39.7927 818.628 38.978C817.97 38.146 817.034 37.73 815.82 37.73C814.607 37.73 813.671 38.1547 813.012 39.004C812.371 39.8533 812.05 40.9193 812.05 42.202C812.05 43.4673 812.371 44.5333 813.012 45.4C813.654 46.2667 814.59 46.7 815.82 46.7C817.051 46.7 817.996 46.2753 818.654 45.426C819.313 44.5593 819.642 43.476 819.642 42.176ZM829.905 36.222C830.737 36.222 831.395 36.4213 831.881 36.82L832.323 39.732L830.841 39.914L830.399 37.938C830.104 37.834 829.809 37.782 829.515 37.782C828.839 37.782 828.275 38.068 827.825 38.64C827.374 39.1947 827.149 39.9227 827.149 40.824V46.518H829.827V48H823.301V46.518H825.329V37.912H823.249V36.43H827.045V38.51C827.27 37.8687 827.634 37.3313 828.137 36.898C828.657 36.4473 829.246 36.222 829.905 36.222ZM839.657 48H833.781V46.518H835.809V31.594H833.755V30.112H837.629V46.518H839.657V48ZM854.077 48H850.255V45.66C849.874 46.3533 849.354 46.96 848.695 47.48C848.036 48 847.178 48.26 846.121 48.26C844.63 48.26 843.426 47.7573 842.507 46.752C841.606 45.7293 841.155 44.3167 841.155 42.514C841.155 40.9713 841.554 39.5327 842.351 38.198C843.148 36.8633 844.492 36.196 846.381 36.196C848.184 36.196 849.475 36.898 850.255 38.302V31.594H847.447V30.112H852.075V46.518H854.077V48ZM850.255 42.878V41.032C850.22 40.0613 849.865 39.2727 849.189 38.666C848.513 38.0593 847.716 37.756 846.797 37.756C845.514 37.756 844.57 38.224 843.963 39.16C843.374 40.096 843.079 41.1707 843.079 42.384C843.079 43.8053 843.408 44.88 844.067 45.608C844.743 46.336 845.584 46.7 846.589 46.7C847.629 46.7 848.487 46.284 849.163 45.452C849.856 44.6027 850.22 43.7447 850.255 42.878ZM764.574 56.332H766.316C763.439 59.9893 762 63.872 762 67.98C762 69.9907 762.355 72.01 763.066 74.038C763.794 76.066 764.877 77.9727 766.316 79.758H764.522C763.083 77.8513 762.035 75.91 761.376 73.934C760.717 71.9407 760.388 69.956 760.388 67.98C760.388 65.9693 760.726 63.9847 761.402 62.026C762.095 60.0673 763.153 58.1693 764.574 56.332ZM772.685 56.852C773.222 56.852 773.699 56.904 774.115 57.008C774.548 57.112 774.964 57.3373 775.363 57.684L775.805 60.362L774.323 60.544L773.829 58.568C773.482 58.4293 773.04 58.36 772.503 58.36C771.133 58.36 770.449 59.2787 770.449 61.116V63.43H773.439V64.886H770.449V73.518H773.075V75H766.601V73.518H768.603V64.886H766.939V63.43H768.603V61.272C768.603 59.92 769.001 58.8453 769.799 58.048C770.613 57.2507 771.575 56.852 772.685 56.852ZM781.612 63.222C782.444 63.222 783.102 63.4213 783.588 63.82L784.03 66.732L782.548 66.914L782.106 64.938C781.811 64.834 781.516 64.782 781.222 64.782C780.546 64.782 779.982 65.068 779.532 65.64C779.081 66.1947 778.856 66.9227 778.856 67.824V73.518H781.534V75H775.008V73.518H777.036V64.912H774.956V63.43H778.752V65.51C778.977 64.8687 779.341 64.3313 779.844 63.898C780.364 63.4473 780.953 63.222 781.612 63.222ZM787.252 64.314C787.858 63.9153 788.5 63.6293 789.176 63.456C789.852 63.2827 790.571 63.196 791.334 63.196C794.09 63.196 795.468 64.4873 795.468 67.07V72.582C795.468 73.414 795.797 73.83 796.456 73.83C796.75 73.83 797.01 73.778 797.236 73.674L797.262 74.87C796.794 75.13 796.291 75.26 795.754 75.26C794.384 75.26 793.682 74.48 793.648 72.92V72.868C793.284 73.492 792.764 74.0467 792.088 74.532C791.429 75.0173 790.632 75.26 789.696 75.26C788.933 75.26 788.153 75.026 787.356 74.558C786.576 74.09 786.186 73.2407 786.186 72.01C786.186 70.554 786.758 69.6007 787.902 69.15C789.063 68.682 790.294 68.448 791.594 68.448C791.94 68.448 792.287 68.4567 792.634 68.474C792.998 68.4913 793.336 68.5173 793.648 68.552V67.512C793.648 66.68 793.466 66.004 793.102 65.484C792.755 64.964 792.062 64.704 791.022 64.704C790.172 64.704 789.427 64.86 788.786 65.172L788.344 67.174L786.836 66.992L787.252 64.314ZM793.648 70.658V69.774C793.318 69.7567 792.972 69.7307 792.608 69.696C792.244 69.6613 791.871 69.644 791.49 69.644C790.623 69.644 789.834 69.7827 789.124 70.06C788.43 70.32 788.084 70.9007 788.084 71.802C788.084 72.5473 788.318 73.0587 788.786 73.336C789.254 73.6133 789.739 73.752 790.242 73.752C791.039 73.752 791.784 73.4747 792.478 72.92C793.188 72.3653 793.578 71.6113 793.648 70.658ZM819.918 75H814.38V73.518H816.07V68.136C816.07 66.888 815.819 66.0127 815.316 65.51C814.831 64.99 814.207 64.73 813.444 64.73C812.387 64.73 811.572 65.1287 811 65.926C810.428 66.7233 810.133 67.486 810.116 68.214V73.518H812.118V75H806.606V73.518H808.27V68.136C808.27 66.8707 808.027 65.9867 807.542 65.484C807.057 64.9813 806.441 64.73 805.696 64.73C804.621 64.73 803.798 65.12 803.226 65.9C802.671 66.6627 802.377 67.4167 802.342 68.162V73.518H804.474V75H798.494V73.518H800.522V64.912H798.468V63.43H802.342V65.588C802.723 64.8947 803.235 64.3227 803.876 63.872C804.517 63.4213 805.297 63.196 806.216 63.196C807.117 63.196 807.897 63.4213 808.556 63.872C809.232 64.3227 809.691 65.0247 809.934 65.978C810.281 65.1633 810.792 64.496 811.468 63.976C812.161 63.456 813.011 63.196 814.016 63.196C815.125 63.196 816.044 63.5427 816.772 64.236C817.517 64.9293 817.89 66.0473 817.89 67.59V73.518H819.918V75ZM831.469 71.672C831.313 72.66 830.819 73.5093 829.987 74.22C829.155 74.9133 828.029 75.26 826.607 75.26C824.978 75.26 823.661 74.7487 822.655 73.726C821.65 72.7033 821.147 71.256 821.147 69.384C821.147 67.5813 821.624 66.0993 822.577 64.938C823.531 63.7767 824.822 63.196 826.451 63.196C828.046 63.196 829.259 63.6987 830.091 64.704C830.923 65.7093 831.348 66.8967 831.365 68.266C831.365 68.7167 831.313 69.176 831.209 69.644H823.071C823.175 72.348 824.397 73.7 826.737 73.7C827.656 73.7 828.375 73.4833 828.895 73.05C829.415 72.6167 829.762 72.0447 829.935 71.334L831.469 71.672ZM829.441 68.292C829.528 67.4253 829.32 66.6107 828.817 65.848C828.332 65.0853 827.526 64.704 826.399 64.704C825.325 64.704 824.536 65.0593 824.033 65.77C823.531 66.4807 823.219 67.3213 823.097 68.292H829.441ZM856.541 59.764H854.435V75H853.213L843.411 61.688H843.307V73.336H845.985V75H839.537V73.336H841.487V59.764H839.251V58.1H842.891L852.511 71.126H852.615V59.764H850.067V58.1H856.541V59.764ZM858.42 68.396V66.992H862.32V63.17H863.698V66.992H867.442V68.396H863.698V72.192H862.32V68.396H858.42ZM877.384 75H869.246V73.336H872.418V63.118H869.246V61.454H874.342V73.336H877.384V75ZM879.39 79.758H877.648C880.525 76.1007 881.964 72.218 881.964 68.11C881.964 66.0993 881.6 64.0887 880.872 62.078C880.161 60.05 879.086 58.1347 877.648 56.332H879.442C880.88 58.2387 881.929 60.1887 882.588 62.182C883.246 64.158 883.576 66.134 883.576 68.11C883.576 70.1033 883.229 72.0793 882.536 74.038C881.86 75.9967 880.811 77.9033 879.39 79.758Z" fill="black"/>
<path d="M71.6609 128.44C71.5409 129.2 71.1609 129.853 70.5209 130.4C69.8809 130.933 69.0143 131.2 67.9209 131.2C66.6676 131.2 65.6543 130.807 64.8809 130.02C64.1076 129.233 63.7209 128.12 63.7209 126.68C63.7209 125.293 64.0876 124.153 64.8209 123.26C65.5543 122.367 66.5476 121.92 67.8009 121.92C69.0276 121.92 69.9609 122.307 70.6009 123.08C71.2409 123.853 71.5676 124.767 71.5809 125.82C71.5809 126.167 71.5409 126.52 71.4609 126.88H65.2009C65.2809 128.96 66.2209 130 68.0209 130C68.7276 130 69.2809 129.833 69.6809 129.5C70.0809 129.167 70.3476 128.727 70.4809 128.18L71.6609 128.44ZM70.1009 125.84C70.1676 125.173 70.0076 124.547 69.6209 123.96C69.2476 123.373 68.6276 123.08 67.7609 123.08C66.9343 123.08 66.3276 123.353 65.9409 123.9C65.5543 124.447 65.3143 125.093 65.2209 125.84H70.1009ZM83.6355 131H79.1355V129.86H80.6755V125.72C80.6755 124.76 80.4821 124.087 80.0955 123.7C79.7088 123.3 79.2155 123.1 78.6155 123.1C77.8155 123.1 77.1688 123.367 76.6755 123.9C76.1955 124.42 75.9421 125.02 75.9155 125.7V129.86H77.4755V131H72.9555V129.86H74.5155V123.24H72.9155V122.1H75.9155V123.68C76.5555 122.507 77.5955 121.92 79.0355 121.92C79.9021 121.92 80.6288 122.187 81.2155 122.72C81.8021 123.253 82.0955 124.113 82.0955 125.3V129.86H83.6355V131ZM91.1403 128.6C90.9003 130.333 89.9603 131.2 88.3203 131.2C87.427 131.2 86.7403 130.947 86.2603 130.44C85.7936 129.933 85.5603 129.247 85.5603 128.38V123.22H84.1203V122.1H85.5603V119.24H86.9603V122.1H90.4403V123.22H86.9603V128.2C86.9603 128.733 87.0736 129.167 87.3003 129.5C87.5403 129.82 87.927 129.98 88.4603 129.98C88.807 129.98 89.127 129.873 89.4203 129.66C89.727 129.447 89.947 128.98 90.0803 128.26L91.1403 128.6ZM93.3422 119.8V117.98H94.8622V119.8H93.3422ZM96.4422 131H91.9222V129.86H93.4822V123.24H91.8822V122.1H94.8822V129.86H96.4422V131ZM104.168 128.6C103.928 130.333 102.988 131.2 101.348 131.2C100.454 131.2 99.7677 130.947 99.2877 130.44C98.821 129.933 98.5877 129.247 98.5877 128.38V123.22H97.1477V122.1H98.5877V119.24H99.9877V122.1H103.468V123.22H99.9877V128.2C99.9877 128.733 100.101 129.167 100.328 129.5C100.568 129.82 100.954 129.98 101.488 129.98C101.834 129.98 102.154 129.873 102.448 129.66C102.754 129.447 102.974 128.98 103.108 128.26L104.168 128.6ZM106.37 119.8V117.98H107.89V119.8H106.37ZM109.47 131H104.95V129.86H106.51V123.24H104.91V122.1H107.91V129.86H109.47V131ZM118.575 128.44C118.455 129.2 118.075 129.853 117.435 130.4C116.795 130.933 115.928 131.2 114.835 131.2C113.582 131.2 112.568 130.807 111.795 130.02C111.022 129.233 110.635 128.12 110.635 126.68C110.635 125.293 111.002 124.153 111.735 123.26C112.468 122.367 113.462 121.92 114.715 121.92C115.942 121.92 116.875 122.307 117.515 123.08C118.155 123.853 118.482 124.767 118.495 125.82C118.495 126.167 118.455 126.52 118.375 126.88H112.115C112.195 128.96 113.135 130 114.935 130C115.642 130 116.195 129.833 116.595 129.5C116.995 129.167 117.262 128.727 117.395 128.18L118.575 128.44ZM117.015 125.84C117.082 125.173 116.922 124.547 116.535 123.96C116.162 123.373 115.542 123.08 114.675 123.08C113.848 123.08 113.242 123.353 112.855 123.9C112.468 124.447 112.228 125.093 112.135 125.84H117.015ZM127.25 128.42C127.25 129.287 126.883 129.967 126.15 130.46C125.43 130.953 124.536 131.2 123.47 131.2C122.843 131.2 122.216 131.12 121.59 130.96C120.976 130.787 120.476 130.573 120.09 130.32L120.37 128.3L121.49 128.42L121.43 129.6C122.043 129.893 122.703 130.04 123.41 130.04C124.036 130.04 124.59 129.92 125.07 129.68C125.563 129.427 125.81 129.047 125.81 128.54C125.81 128.047 125.623 127.7 125.25 127.5C124.876 127.3 124.41 127.153 123.85 127.06C123.303 126.967 122.75 126.853 122.19 126.72C121.63 126.587 121.163 126.36 120.79 126.04C120.416 125.707 120.23 125.193 120.23 124.5C120.23 123.553 120.576 122.887 121.27 122.5C121.963 122.113 122.716 121.92 123.53 121.92C124.143 121.92 124.716 122 125.25 122.16C125.796 122.32 126.256 122.513 126.63 122.74L126.85 124.82L125.69 124.96L125.47 123.52C124.91 123.227 124.303 123.08 123.65 123.08C123.09 123.08 122.63 123.187 122.27 123.4C121.91 123.613 121.73 123.947 121.73 124.4C121.73 124.867 121.916 125.2 122.29 125.4C122.663 125.587 123.123 125.727 123.67 125.82C124.216 125.9 124.763 126.007 125.31 126.14C125.856 126.273 126.316 126.513 126.69 126.86C127.063 127.193 127.25 127.713 127.25 128.42Z" fill="black"/>
<path d="M789.661 128.44C789.541 129.2 789.161 129.853 788.521 130.4C787.881 130.933 787.014 131.2 785.921 131.2C784.668 131.2 783.654 130.807 782.881 130.02C782.108 129.233 781.721 128.12 781.721 126.68C781.721 125.293 782.088 124.153 782.821 123.26C783.554 122.367 784.548 121.92 785.801 121.92C787.028 121.92 787.961 122.307 788.601 123.08C789.241 123.853 789.568 124.767 789.581 125.82C789.581 126.167 789.541 126.52 789.461 126.88H783.201C783.281 128.96 784.221 130 786.021 130C786.728 130 787.281 129.833 787.681 129.5C788.081 129.167 788.348 128.727 788.481 128.18L789.661 128.44ZM788.101 125.84C788.168 125.173 788.008 124.547 787.621 123.96C787.248 123.373 786.628 123.08 785.761 123.08C784.934 123.08 784.328 123.353 783.941 123.9C783.554 124.447 783.314 125.093 783.221 125.84H788.101ZM801.635 131H797.135V129.86H798.675V125.72C798.675 124.76 798.482 124.087 798.095 123.7C797.709 123.3 797.215 123.1 796.615 123.1C795.815 123.1 795.169 123.367 794.675 123.9C794.195 124.42 793.942 125.02 793.915 125.7V129.86H795.475V131H790.955V129.86H792.515V123.24H790.915V122.1H793.915V123.68C794.555 122.507 795.595 121.92 797.035 121.92C797.902 121.92 798.629 122.187 799.215 122.72C799.802 123.253 800.095 124.113 800.095 125.3V129.86H801.635V131ZM809.14 128.6C808.9 130.333 807.96 131.2 806.32 131.2C805.427 131.2 804.74 130.947 804.26 130.44C803.794 129.933 803.56 129.247 803.56 128.38V123.22H802.12V122.1H803.56V119.24H804.96V122.1H808.44V123.22H804.96V128.2C804.96 128.733 805.074 129.167 805.3 129.5C805.54 129.82 805.927 129.98 806.46 129.98C806.807 129.98 807.127 129.873 807.42 129.66C807.727 129.447 807.947 128.98 808.08 128.26L809.14 128.6ZM811.342 119.8V117.98H812.862V119.8H811.342ZM814.442 131H809.922V129.86H811.482V123.24H809.882V122.1H812.882V129.86H814.442V131ZM822.168 128.6C821.928 130.333 820.988 131.2 819.348 131.2C818.454 131.2 817.768 130.947 817.288 130.44C816.821 129.933 816.588 129.247 816.588 128.38V123.22H815.148V122.1H816.588V119.24H817.988V122.1H821.468V123.22H817.988V128.2C817.988 128.733 818.101 129.167 818.328 129.5C818.568 129.82 818.954 129.98 819.488 129.98C819.834 129.98 820.154 129.873 820.448 129.66C820.754 129.447 820.974 128.98 821.108 128.26L822.168 128.6ZM824.37 119.8V117.98H825.89V119.8H824.37ZM827.47 131H822.95V129.86H824.51V123.24H822.91V122.1H825.91V129.86H827.47V131ZM836.575 128.44C836.455 129.2 836.075 129.853 835.435 130.4C834.795 130.933 833.928 131.2 832.835 131.2C831.582 131.2 830.568 130.807 829.795 130.02C829.022 129.233 828.635 128.12 828.635 126.68C828.635 125.293 829.002 124.153 829.735 123.26C830.468 122.367 831.462 121.92 832.715 121.92C833.942 121.92 834.875 122.307 835.515 123.08C836.155 123.853 836.482 124.767 836.495 125.82C836.495 126.167 836.455 126.52 836.375 126.88H830.115C830.195 128.96 831.135 130 832.935 130C833.642 130 834.195 129.833 834.595 129.5C834.995 129.167 835.262 128.727 835.395 128.18L836.575 128.44ZM835.015 125.84C835.082 125.173 834.922 124.547 834.535 123.96C834.162 123.373 833.542 123.08 832.675 123.08C831.848 123.08 831.242 123.353 830.855 123.9C830.468 124.447 830.228 125.093 830.135 125.84H835.015ZM845.25 128.42C845.25 129.287 844.883 129.967 844.15 130.46C843.43 130.953 842.536 131.2 841.47 131.2C840.843 131.2 840.216 131.12 839.59 130.96C838.976 130.787 838.476 130.573 838.09 130.32L838.37 128.3L839.49 128.42L839.43 129.6C840.043 129.893 840.703 130.04 841.41 130.04C842.036 130.04 842.59 129.92 843.07 129.68C843.563 129.427 843.81 129.047 843.81 128.54C843.81 128.047 843.623 127.7 843.25 127.5C842.876 127.3 842.41 127.153 841.85 127.06C841.303 126.967 840.75 126.853 840.19 126.72C839.63 126.587 839.163 126.36 838.79 126.04C838.416 125.707 838.23 125.193 838.23 124.5C838.23 123.553 838.576 122.887 839.27 122.5C839.963 122.113 840.716 121.92 841.53 121.92C842.143 121.92 842.716 122 843.25 122.16C843.796 122.32 844.256 122.513 844.63 122.74L844.85 124.82L843.69 124.96L843.47 123.52C842.91 123.227 842.303 123.08 841.65 123.08C841.09 123.08 840.63 123.187 840.27 123.4C839.91 123.613 839.73 123.947 839.73 124.4C839.73 124.867 839.916 125.2 840.29 125.4C840.663 125.587 841.123 125.727 841.67 125.82C842.216 125.9 842.763 126.007 843.31 126.14C843.856 126.273 844.316 126.513 844.69 126.86C845.063 127.193 845.25 127.713 845.25 128.42Z" fill="black"/>
<path d="M431.304 583.42C431.304 584.287 430.938 584.967 430.204 585.46C429.484 585.953 428.591 586.2 427.524 586.2C426.898 586.2 426.271 586.12 425.644 585.96C425.031 585.787 424.531 585.573 424.144 585.32L424.424 583.3L425.544 583.42L425.484 584.6C426.098 584.893 426.758 585.04 427.464 585.04C428.091 585.04 428.644 584.92 429.124 584.68C429.618 584.427 429.864 584.047 429.864 583.54C429.864 583.047 429.678 582.7 429.304 582.5C428.931 582.3 428.464 582.153 427.904 582.06C427.358 581.967 426.804 581.853 426.244 581.72C425.684 581.587 425.218 581.36 424.844 581.04C424.471 580.707 424.284 580.193 424.284 579.5C424.284 578.553 424.631 577.887 425.324 577.5C426.018 577.113 426.771 576.92 427.584 576.92C428.198 576.92 428.771 577 429.304 577.16C429.851 577.32 430.311 577.513 430.684 577.74L430.904 579.82L429.744 579.96L429.524 578.52C428.964 578.227 428.358 578.08 427.704 578.08C427.144 578.08 426.684 578.187 426.324 578.4C425.964 578.613 425.784 578.947 425.784 579.4C425.784 579.867 425.971 580.2 426.344 580.4C426.718 580.587 427.178 580.727 427.724 580.82C428.271 580.9 428.818 581.007 429.364 581.14C429.911 581.273 430.371 581.513 430.744 581.86C431.118 582.193 431.304 582.713 431.304 583.42ZM442.134 578.24H441.074L437.934 586L436.734 589.12H438.254V590.26H433.734V589.12H435.394L436.554 585.98L433.314 578.24H432.254V577.1H436.374V578.24H434.814L437.314 584.22H437.434L439.654 578.24H438.214V577.1H442.134V578.24ZM450.035 583.42C450.035 584.287 449.668 584.967 448.935 585.46C448.215 585.953 447.321 586.2 446.255 586.2C445.628 586.2 445.001 586.12 444.375 585.96C443.761 585.787 443.261 585.573 442.875 585.32L443.155 583.3L444.275 583.42L444.215 584.6C444.828 584.893 445.488 585.04 446.195 585.04C446.821 585.04 447.375 584.92 447.855 584.68C448.348 584.427 448.595 584.047 448.595 583.54C448.595 583.047 448.408 582.7 448.035 582.5C447.661 582.3 447.195 582.153 446.635 582.06C446.088 581.967 445.535 581.853 444.975 581.72C444.415 581.587 443.948 581.36 443.575 581.04C443.201 580.707 443.015 580.193 443.015 579.5C443.015 578.553 443.361 577.887 444.055 577.5C444.748 577.113 445.501 576.92 446.315 576.92C446.928 576.92 447.501 577 448.035 577.16C448.581 577.32 449.041 577.513 449.415 577.74L449.635 579.82L448.475 579.96L448.255 578.52C447.695 578.227 447.088 578.08 446.435 578.08C445.875 578.08 445.415 578.187 445.055 578.4C444.695 578.613 444.515 578.947 444.515 579.4C444.515 579.867 444.701 580.2 445.075 580.4C445.448 580.587 445.908 580.727 446.455 580.82C447.001 580.9 447.548 581.007 448.095 581.14C448.641 581.273 449.101 581.513 449.475 581.86C449.848 582.193 450.035 582.713 450.035 583.42ZM458.144 583.6C457.904 585.333 456.964 586.2 455.324 586.2C454.431 586.2 453.744 585.947 453.264 585.44C452.798 584.933 452.564 584.247 452.564 583.38V578.22H451.124V577.1H452.564V574.24H453.964V577.1H457.444V578.22H453.964V583.2C453.964 583.733 454.078 584.167 454.304 584.5C454.544 584.82 454.931 584.98 455.464 584.98C455.811 584.98 456.131 584.873 456.424 584.66C456.731 584.447 456.951 583.98 457.084 583.26L458.144 583.6ZM466.946 583.44C466.826 584.2 466.446 584.853 465.806 585.4C465.166 585.933 464.299 586.2 463.206 586.2C461.953 586.2 460.939 585.807 460.166 585.02C459.393 584.233 459.006 583.12 459.006 581.68C459.006 580.293 459.373 579.153 460.106 578.26C460.839 577.367 461.833 576.92 463.086 576.92C464.313 576.92 465.246 577.307 465.886 578.08C466.526 578.853 466.853 579.767 466.866 580.82C466.866 581.167 466.826 581.52 466.746 581.88H460.486C460.566 583.96 461.506 585 463.306 585C464.013 585 464.566 584.833 464.966 584.5C465.366 584.167 465.633 583.727 465.766 583.18L466.946 583.44ZM465.386 580.84C465.453 580.173 465.293 579.547 464.906 578.96C464.533 578.373 463.913 578.08 463.046 578.08C462.219 578.08 461.613 578.353 461.226 578.9C460.839 579.447 460.599 580.093 460.506 580.84H465.386ZM484.721 586H480.461V584.86H481.761V580.72C481.761 579.76 481.567 579.087 481.181 578.7C480.807 578.3 480.327 578.1 479.741 578.1C478.927 578.1 478.301 578.407 477.861 579.02C477.421 579.633 477.194 580.22 477.181 580.78V584.86H478.721V586H474.481V584.86H475.761V580.72C475.761 579.747 475.574 579.067 475.201 578.68C474.827 578.293 474.354 578.1 473.781 578.1C472.954 578.1 472.321 578.4 471.881 579C471.454 579.587 471.227 580.167 471.201 580.74V584.86H472.841V586H468.241V584.86H469.801V578.24H468.221V577.1H471.201V578.76C471.494 578.227 471.887 577.787 472.381 577.44C472.874 577.093 473.474 576.92 474.181 576.92C474.874 576.92 475.474 577.093 475.981 577.44C476.501 577.787 476.854 578.327 477.041 579.06C477.307 578.433 477.701 577.92 478.221 577.52C478.754 577.12 479.407 576.92 480.181 576.92C481.034 576.92 481.741 577.187 482.301 577.72C482.874 578.253 483.161 579.113 483.161 580.3V584.86H484.721V586ZM492.886 583.42C492.886 584.287 492.52 584.967 491.786 585.46C491.066 585.953 490.173 586.2 489.106 586.2C488.48 586.2 487.853 586.12 487.226 585.96C486.613 585.787 486.113 585.573 485.726 585.32L486.006 583.3L487.126 583.42L487.066 584.6C487.68 584.893 488.34 585.04 489.046 585.04C489.673 585.04 490.226 584.92 490.706 584.68C491.2 584.427 491.446 584.047 491.446 583.54C491.446 583.047 491.26 582.7 490.886 582.5C490.513 582.3 490.046 582.153 489.486 582.06C488.94 581.967 488.386 581.853 487.826 581.72C487.266 581.587 486.8 581.36 486.426 581.04C486.053 580.707 485.866 580.193 485.866 579.5C485.866 578.553 486.213 577.887 486.906 577.5C487.6 577.113 488.353 576.92 489.166 576.92C489.78 576.92 490.353 577 490.886 577.16C491.433 577.32 491.893 577.513 492.266 577.74L492.486 579.82L491.326 579.96L491.106 578.52C490.546 578.227 489.94 578.08 489.286 578.08C488.726 578.08 488.266 578.187 487.906 578.4C487.546 578.613 487.366 578.947 487.366 579.4C487.366 579.867 487.553 580.2 487.926 580.4C488.3 580.587 488.76 580.727 489.306 580.82C489.853 580.9 490.4 581.007 490.946 581.14C491.493 581.273 491.953 581.513 492.326 581.86C492.7 582.193 492.886 582.713 492.886 583.42Z" fill="black"/>
<rect x="22" y="135" width="150" height="339" rx="15" fill="#FFF7CE"/>
<path d="M63.2814 362.869H59.7534V360.709C59.4014 361.349 58.9214 361.909 58.3134 362.389C57.7054 362.869 56.9134 363.109 55.9374 363.109C54.5614 363.109 53.4494 362.645 52.6014 361.717C51.7694 360.773 51.3534 359.469 51.3534 357.805C51.3534 356.381 51.7214 355.053 52.4574 353.821C53.1934 352.589 54.4334 351.973 56.1774 351.973C57.8414 351.973 59.0334 352.621 59.7534 353.917V347.725H57.1614V346.357H61.4334V361.501H63.2814V362.869ZM59.7534 358.141V356.437C59.7214 355.541 59.3934 354.813 58.7694 354.253C58.1454 353.693 57.4094 353.413 56.5614 353.413C55.3774 353.413 54.5054 353.845 53.9454 354.709C53.4014 355.573 53.1294 356.565 53.1294 357.685C53.1294 358.997 53.4334 359.989 54.0414 360.661C54.6654 361.333 55.4414 361.669 56.3694 361.669C57.3294 361.669 58.1214 361.285 58.7454 360.517C59.3854 359.733 59.7214 358.941 59.7534 358.141ZM70.4293 351.997C71.1973 351.997 71.8053 352.181 72.2533 352.549L72.6613 355.237L71.2933 355.405L70.8853 353.581C70.6133 353.485 70.3413 353.437 70.0693 353.437C69.4453 353.437 68.9253 353.701 68.5093 354.229C68.0933 354.741 67.8853 355.413 67.8853 356.245V361.501H70.3573V362.869H64.3333V361.501H66.2053V353.557H64.2853V352.189H67.7893V354.109C67.9973 353.517 68.3333 353.021 68.7973 352.621C69.2773 352.205 69.8213 351.997 70.4293 351.997ZM75.6354 353.005C76.1954 352.637 76.7874 352.373 77.4114 352.213C78.0354 352.053 78.6994 351.973 79.4034 351.973C81.9474 351.973 83.2194 353.165 83.2194 355.549V360.637C83.2194 361.405 83.5234 361.789 84.1314 361.789C84.4034 361.789 84.6434 361.741 84.8514 361.645L84.8754 362.749C84.4434 362.989 83.9794 363.109 83.4834 363.109C82.2194 363.109 81.5714 362.389 81.5394 360.949V360.901C81.2034 361.477 80.7234 361.989 80.0994 362.437C79.4914 362.885 78.7554 363.109 77.8914 363.109C77.1874 363.109 76.4674 362.893 75.7314 362.461C75.0114 362.029 74.6514 361.245 74.6514 360.109C74.6514 358.765 75.1794 357.885 76.2354 357.469C77.3074 357.037 78.4434 356.821 79.6434 356.821C79.9634 356.821 80.2834 356.829 80.6034 356.845C80.9394 356.861 81.2514 356.885 81.5394 356.917V355.957C81.5394 355.189 81.3714 354.565 81.0354 354.085C80.7154 353.605 80.0754 353.365 79.1154 353.365C78.3314 353.365 77.6434 353.509 77.0514 353.797L76.6434 355.645L75.2514 355.477L75.6354 353.005ZM81.5394 358.861V358.045C81.2354 358.029 80.9154 358.005 80.5794 357.973C80.2434 357.941 79.8994 357.925 79.5474 357.925C78.7474 357.925 78.0194 358.053 77.3634 358.309C76.7234 358.549 76.4034 359.085 76.4034 359.917C76.4034 360.605 76.6194 361.077 77.0514 361.333C77.4834 361.589 77.9314 361.717 78.3954 361.717C79.1314 361.717 79.8194 361.461 80.4594 360.949C81.1154 360.437 81.4754 359.741 81.5394 358.861ZM98.037 353.557H96.309V362.725C96.309 364.405 95.845 365.741 94.917 366.733C94.005 367.725 92.717 368.221 91.053 368.221C89.933 368.221 88.925 367.965 88.029 367.453C87.149 366.941 86.565 366.149 86.277 365.077L87.621 364.405C87.893 365.237 88.365 365.837 89.037 366.205C89.709 366.589 90.405 366.781 91.125 366.781C92.149 366.781 92.981 366.421 93.621 365.701C94.277 364.997 94.605 363.981 94.605 362.653V360.685C94.285 361.309 93.821 361.853 93.213 362.317C92.605 362.781 91.797 363.013 90.789 363.013C89.525 363.013 88.445 362.565 87.549 361.669C86.653 360.773 86.205 359.485 86.205 357.805C86.205 356.381 86.589 355.053 87.357 353.821C88.125 352.589 89.333 351.973 90.981 351.973C92.677 351.973 93.885 352.605 94.605 353.869V352.189H98.037V353.557ZM94.605 358.261V356.413C94.605 355.517 94.293 354.797 93.669 354.253C93.061 353.693 92.317 353.413 91.437 353.413C90.237 353.413 89.365 353.845 88.821 354.709C88.293 355.573 88.029 356.565 88.029 357.685C88.029 358.997 88.325 359.973 88.917 360.613C89.525 361.253 90.269 361.573 91.149 361.573C92.173 361.573 92.997 361.221 93.621 360.517C94.245 359.813 94.573 359.061 94.605 358.261ZM109.865 357.517C109.865 359.133 109.385 360.469 108.425 361.525C107.465 362.581 106.161 363.109 104.513 363.109C102.897 363.109 101.625 362.597 100.697 361.573C99.7854 360.549 99.3294 359.229 99.3294 357.613C99.3294 356.061 99.7774 354.733 100.673 353.629C101.569 352.509 102.881 351.949 104.609 351.949C106.353 351.949 107.665 352.501 108.545 353.605C109.425 354.693 109.865 355.997 109.865 357.517ZM108.089 357.493C108.089 356.277 107.777 355.293 107.153 354.541C106.545 353.773 105.681 353.389 104.561 353.389C103.441 353.389 102.577 353.781 101.969 354.565C101.377 355.349 101.081 356.333 101.081 357.517C101.081 358.685 101.377 359.669 101.969 360.469C102.561 361.269 103.425 361.669 104.561 361.669C105.697 361.669 106.569 361.277 107.177 360.493C107.785 359.693 108.089 358.693 108.089 357.493ZM124.282 362.869H118.882V361.501H120.73V356.533C120.73 355.381 120.498 354.573 120.034 354.109C119.57 353.629 118.978 353.389 118.258 353.389C117.298 353.389 116.522 353.709 115.93 354.349C115.354 354.973 115.05 355.693 115.018 356.509V361.501H116.89V362.869H111.466V361.501H113.338V353.557H111.418V352.189H115.018V354.085C115.786 352.677 117.034 351.973 118.762 351.973C119.802 351.973 120.674 352.293 121.378 352.933C122.082 353.573 122.434 354.605 122.434 356.029V361.501H124.282V362.869ZM125.752 364.645H136.12V365.869H125.752V364.645ZM146.084 362.869H138.572V361.333H141.5V351.901H138.572V350.365H143.276V361.333H146.084V362.869Z" fill="black"/>
<path d="M83.5503 156.688H82.3263L79.1823 166H77.8863L74.6223 157.84H74.5023L71.3103 166H70.0623L66.7983 156.688H65.6223V155.32H70.6623V156.688H68.6223L70.8543 163.432H70.9743L74.1423 155.32H75.2703L78.6063 163.432H78.7263L80.6943 156.688H78.7503V155.32H83.5503V156.688ZM94.9474 160.648C94.9474 162.264 94.4674 163.6 93.5074 164.656C92.5474 165.712 91.2434 166.24 89.5954 166.24C87.9794 166.24 86.7074 165.728 85.7794 164.704C84.8674 163.68 84.4114 162.36 84.4114 160.744C84.4114 159.192 84.8594 157.864 85.7554 156.76C86.6514 155.64 87.9634 155.08 89.6914 155.08C91.4354 155.08 92.7474 155.632 93.6274 156.736C94.5074 157.824 94.9474 159.128 94.9474 160.648ZM93.1714 160.624C93.1714 159.408 92.8594 158.424 92.2354 157.672C91.6274 156.904 90.7634 156.52 89.6434 156.52C88.5234 156.52 87.6594 156.912 87.0514 157.696C86.4594 158.48 86.1634 159.464 86.1634 160.648C86.1634 161.816 86.4594 162.8 87.0514 163.6C87.6434 164.4 88.5074 164.8 89.6434 164.8C90.7794 164.8 91.6514 164.408 92.2594 163.624C92.8674 162.824 93.1714 161.824 93.1714 160.624ZM101.732 166H96.3081V164.632H98.1801V150.856H96.2841V149.488H99.8601V164.632H101.732V166ZM108.443 149.248C108.939 149.248 109.379 149.296 109.763 149.392C110.163 149.488 110.547 149.696 110.915 150.016L111.323 152.488L109.955 152.656L109.499 150.832C109.179 150.704 108.771 150.64 108.275 150.64C107.011 150.64 106.379 151.488 106.379 153.184V155.32H109.139V156.664H106.379V164.632H108.803V166H102.827V164.632H104.675V156.664H103.139V155.32H104.675V153.328C104.675 152.08 105.043 151.088 105.779 150.352C106.531 149.616 107.419 149.248 108.443 149.248ZM110.787 167.776H121.155V169H110.787V167.776ZM131.119 166H123.607V164.464H126.535V155.032H123.607V153.496H128.311V164.464H131.119V166Z" fill="black"/>
<path d="M82.4917 222.311H81.2677L78.1237 231.623H76.8277L73.5637 223.463H73.4437L70.2517 231.623H69.0037L65.7397 222.311H64.5637V220.943H69.6037V222.311H67.5637L69.7957 229.055H69.9157L73.0837 220.943H74.2117L77.5477 229.055H77.6677L79.6357 222.311H77.6917V220.943H82.4917V222.311ZM93.8888 226.271C93.8888 227.887 93.4088 229.223 92.4488 230.279C91.4888 231.335 90.1848 231.863 88.5368 231.863C86.9208 231.863 85.6488 231.351 84.7208 230.327C83.8088 229.303 83.3528 227.983 83.3528 226.367C83.3528 224.815 83.8008 223.487 84.6968 222.383C85.5928 221.263 86.9048 220.703 88.6328 220.703C90.3768 220.703 91.6888 221.255 92.5688 222.359C93.4488 223.447 93.8888 224.751 93.8888 226.271ZM92.1128 226.247C92.1128 225.031 91.8008 224.047 91.1768 223.295C90.5688 222.527 89.7048 222.143 88.5848 222.143C87.4648 222.143 86.6008 222.535 85.9928 223.319C85.4008 224.103 85.1048 225.087 85.1048 226.271C85.1048 227.439 85.4008 228.423 85.9928 229.223C86.5848 230.023 87.4488 230.423 88.5848 230.423C89.7208 230.423 90.5928 230.031 91.2008 229.247C91.8088 228.447 92.1128 227.447 92.1128 226.247ZM100.674 231.623H95.2495V230.255H97.1215V216.479H95.2255V215.111H98.8015V230.255H100.674V231.623ZM107.385 214.871C107.881 214.871 108.321 214.919 108.705 215.015C109.105 215.111 109.489 215.319 109.857 215.639L110.265 218.111L108.897 218.279L108.441 216.455C108.121 216.327 107.713 216.263 107.217 216.263C105.953 216.263 105.321 217.111 105.321 218.807V220.943H108.081V222.287H105.321V230.255H107.745V231.623H101.769V230.255H103.617V222.287H102.081V220.943H103.617V218.951C103.617 217.703 103.985 216.711 104.721 215.975C105.473 215.239 106.361 214.871 107.385 214.871ZM109.728 233.399H120.096V234.623H109.728V233.399ZM123.125 219.935C123.701 219.599 124.381 219.343 125.165 219.167C125.965 218.975 126.717 218.879 127.421 218.879C128.989 218.879 130.101 219.279 130.757 220.079C131.429 220.879 131.765 221.719 131.765 222.599C131.765 223.703 131.357 224.727 130.541 225.671C129.741 226.599 128.789 227.439 127.685 228.191C126.597 228.927 125.613 229.559 124.733 230.087H130.973L131.189 228.167L132.653 228.287L132.389 231.623H122.645L122.453 230.255C124.725 228.719 126.533 227.391 127.877 226.271C129.221 225.135 129.893 223.975 129.893 222.791C129.893 221.191 128.941 220.391 127.037 220.391C126.701 220.391 126.293 220.439 125.813 220.535C125.333 220.631 124.893 220.767 124.493 220.943L124.109 222.743L122.717 222.575L123.125 219.935Z" fill="black"/>
<path d="M81.2963 287.934H80.0723L76.9283 297.246H75.6323L72.3683 289.086H72.2483L69.0563 297.246H67.8083L64.5443 287.934H63.3683V286.566H68.4083V287.934H66.3683L68.6003 294.678H68.7203L71.8883 286.566H73.0163L76.3523 294.678H76.4723L78.4403 287.934H76.4963V286.566H81.2963V287.934ZM92.6935 291.894C92.6935 293.51 92.2135 294.846 91.2535 295.902C90.2935 296.958 88.9895 297.486 87.3415 297.486C85.7255 297.486 84.4535 296.974 83.5255 295.95C82.6135 294.926 82.1575 293.606 82.1575 291.99C82.1575 290.438 82.6055 289.11 83.5015 288.006C84.3975 286.886 85.7095 286.326 87.4375 286.326C89.1815 286.326 90.4935 286.878 91.3735 287.982C92.2535 289.07 92.6935 290.374 92.6935 291.894ZM90.9175 291.87C90.9175 290.654 90.6055 289.67 89.9815 288.918C89.3735 288.15 88.5095 287.766 87.3895 287.766C86.2695 287.766 85.4055 288.158 84.7975 288.942C84.2055 289.726 83.9095 290.71 83.9095 291.894C83.9095 293.062 84.2055 294.046 84.7975 294.846C85.3895 295.646 86.2535 296.046 87.3895 296.046C88.5255 296.046 89.3975 295.654 90.0055 294.87C90.6135 294.07 90.9175 293.07 90.9175 291.87ZM99.4782 297.246H94.0542V295.878H95.9262V282.102H94.0302V280.734H97.6062V295.878H99.4782V297.246ZM106.189 280.494C106.685 280.494 107.125 280.542 107.509 280.638C107.909 280.734 108.293 280.942 108.661 281.262L109.069 283.734L107.701 283.902L107.245 282.078C106.925 281.95 106.517 281.886 106.021 281.886C104.757 281.886 104.125 282.734 104.125 284.43V286.566H106.885V287.91H104.125V295.878H106.549V297.246H100.573V295.878H102.421V287.91H100.885V286.566H102.421V284.574C102.421 283.326 102.789 282.334 103.525 281.598C104.277 280.862 105.165 280.494 106.189 280.494ZM108.533 299.022H118.901V300.246H108.533V299.022ZM121.689 285.75C122.137 285.446 122.721 285.166 123.441 284.91C124.177 284.638 124.945 284.502 125.745 284.502C127.009 284.502 128.049 284.83 128.865 285.486C129.697 286.142 130.113 287.086 130.113 288.318C130.113 289.102 129.889 289.83 129.441 290.502C129.009 291.158 128.233 291.662 127.113 292.014V292.11C128.537 292.35 129.505 292.838 130.017 293.574C130.529 294.31 130.785 295.134 130.785 296.046C130.785 297.438 130.329 298.55 129.417 299.382C128.521 300.214 127.289 300.63 125.721 300.63C124.249 300.63 123.129 300.302 122.361 299.646C121.593 298.99 121.113 298.19 120.921 297.246L122.289 296.766C122.513 297.406 122.881 297.958 123.393 298.422C123.905 298.886 124.665 299.118 125.673 299.118C126.953 299.118 127.809 298.79 128.241 298.134C128.689 297.478 128.913 296.75 128.913 295.95C128.913 295.006 128.577 294.27 127.905 293.742C127.233 293.214 126.057 292.926 124.377 292.878V291.582C125.881 291.518 126.905 291.166 127.449 290.526C127.993 289.87 128.265 289.206 128.265 288.534C128.265 287.75 128.009 287.134 127.497 286.686C127.001 286.238 126.305 286.014 125.409 286.014C124.625 286.014 123.857 286.214 123.105 286.614L122.673 288.558L121.281 288.39L121.689 285.75Z" fill="black"/>
<path d="M66.7802 422.851C66.7802 423.795 66.6122 424.723 66.2762 425.635C65.9562 426.531 65.4362 427.275 64.7162 427.867C64.0122 428.443 63.0762 428.731 61.9082 428.731C60.2922 428.731 59.1162 428.131 58.3802 426.931V432.235H60.8522V433.603H54.8042V432.235H56.7002V419.179H54.7802V417.811H58.3802V420.043C58.7002 419.403 59.1642 418.835 59.7722 418.339C60.3802 417.843 61.1802 417.595 62.1722 417.595C63.5482 417.595 64.6602 418.059 65.5082 418.987C66.3562 419.915 66.7802 421.203 66.7802 422.851ZM65.0042 422.995C65.0042 421.715 64.6922 420.739 64.0682 420.067C63.4442 419.379 62.6682 419.035 61.7402 419.035C60.7802 419.035 59.9882 419.419 59.3642 420.187C58.7402 420.939 58.4122 421.723 58.3802 422.539V424.123C58.3802 425.019 58.6922 425.771 59.3162 426.379C59.9402 426.987 60.6922 427.291 61.5722 427.291C62.7722 427.291 63.6442 426.859 64.1882 425.995C64.7322 425.131 65.0042 424.131 65.0042 422.995ZM73.5915 428.491H68.1675V427.123H70.0395V413.347H68.1435V411.979H71.7195V427.123H73.5915V428.491ZM76.0065 418.627C76.5665 418.259 77.1585 417.995 77.7825 417.835C78.4065 417.675 79.0705 417.595 79.7745 417.595C82.3185 417.595 83.5905 418.787 83.5905 421.171V426.259C83.5905 427.027 83.8945 427.411 84.5025 427.411C84.7745 427.411 85.0145 427.363 85.2225 427.267L85.2465 428.371C84.8145 428.611 84.3505 428.731 83.8545 428.731C82.5905 428.731 81.9425 428.011 81.9105 426.571V426.523C81.5745 427.099 81.0945 427.611 80.4705 428.059C79.8625 428.507 79.1265 428.731 78.2625 428.731C77.5585 428.731 76.8385 428.515 76.1025 428.083C75.3825 427.651 75.0225 426.867 75.0225 425.731C75.0225 424.387 75.5505 423.507 76.6065 423.091C77.6785 422.659 78.8145 422.443 80.0145 422.443C80.3345 422.443 80.6545 422.451 80.9745 422.467C81.3105 422.483 81.6225 422.507 81.9105 422.539V421.579C81.9105 420.811 81.7425 420.187 81.4065 419.707C81.0865 419.227 80.4465 418.987 79.4865 418.987C78.7025 418.987 78.0145 419.131 77.4225 419.419L77.0145 421.267L75.6225 421.099L76.0065 418.627ZM81.9105 424.483V423.667C81.6065 423.651 81.2865 423.627 80.9505 423.595C80.6145 423.563 80.2705 423.547 79.9185 423.547C79.1185 423.547 78.3905 423.675 77.7345 423.931C77.0945 424.171 76.7745 424.707 76.7745 425.539C76.7745 426.227 76.9905 426.699 77.4225 426.955C77.8545 427.211 78.3025 427.339 78.7665 427.339C79.5025 427.339 80.1905 427.083 80.8305 426.571C81.4865 426.059 81.8465 425.363 81.9105 424.483ZM97.1964 419.179H95.9244L92.1564 428.491L90.7164 432.235H92.5404V433.603H87.1164V432.235H89.1084L90.5004 428.467L86.6124 419.179H85.3404V417.811H90.2844V419.179H88.4124L91.4124 426.355H91.5564L94.2204 419.179H92.4924V417.811H97.1964V419.179ZM107.542 425.419C107.398 426.331 106.942 427.115 106.174 427.771C105.406 428.411 104.366 428.731 103.054 428.731C101.55 428.731 100.334 428.259 99.4056 427.315C98.4776 426.371 98.0136 425.035 98.0136 423.307C98.0136 421.643 98.4536 420.275 99.3336 419.203C100.214 418.131 101.406 417.595 102.91 417.595C104.382 417.595 105.502 418.059 106.27 418.987C107.038 419.915 107.43 421.011 107.446 422.275C107.446 422.691 107.398 423.115 107.302 423.547H99.7896C99.8856 426.043 101.014 427.291 103.174 427.291C104.022 427.291 104.686 427.091 105.166 426.691C105.646 426.291 105.966 425.763 106.126 425.107L107.542 425.419ZM105.67 422.299C105.75 421.499 105.558 420.747 105.094 420.043C104.646 419.339 103.902 418.987 102.862 418.987C101.87 418.987 101.142 419.315 100.678 419.971C100.214 420.627 99.9256 421.403 99.8136 422.299H105.67ZM115.191 417.619C115.959 417.619 116.567 417.803 117.015 418.171L117.423 420.859L116.055 421.027L115.647 419.203C115.375 419.107 115.103 419.059 114.831 419.059C114.207 419.059 113.687 419.323 113.271 419.851C112.855 420.363 112.647 421.035 112.647 421.867V427.123H115.119V428.491H109.095V427.123H110.967V419.179H109.047V417.811H112.551V419.731C112.759 419.139 113.095 418.643 113.559 418.243C114.039 417.827 114.583 417.619 115.191 417.619ZM119.701 430.267H130.069V431.491H119.701V430.267ZM140.033 428.491H132.521V426.955H135.449V417.523H132.521V415.987H137.225V426.955H140.033V428.491Z" fill="black"/>
<rect x="740" y="135" width="150" height="339" rx="15" fill="#FFF7CE"/>
<path d="M781.281 362.869H777.753V360.709C777.401 361.349 776.921 361.909 776.313 362.389C775.705 362.869 774.913 363.109 773.937 363.109C772.561 363.109 771.449 362.645 770.601 361.717C769.769 360.773 769.353 359.469 769.353 357.805C769.353 356.381 769.721 355.053 770.457 353.821C771.193 352.589 772.433 351.973 774.177 351.973C775.841 351.973 777.033 352.621 777.753 353.917V347.725H775.161V346.357H779.433V361.501H781.281V362.869ZM777.753 358.141V356.437C777.721 355.541 777.393 354.813 776.769 354.253C776.145 353.693 775.409 353.413 774.561 353.413C773.377 353.413 772.505 353.845 771.945 354.709C771.401 355.573 771.129 356.565 771.129 357.685C771.129 358.997 771.433 359.989 772.041 360.661C772.665 361.333 773.441 361.669 774.369 361.669C775.329 361.669 776.121 361.285 776.745 360.517C777.385 359.733 777.721 358.941 777.753 358.141ZM788.429 351.997C789.197 351.997 789.805 352.181 790.253 352.549L790.661 355.237L789.293 355.405L788.885 353.581C788.613 353.485 788.341 353.437 788.069 353.437C787.445 353.437 786.925 353.701 786.509 354.229C786.093 354.741 785.885 355.413 785.885 356.245V361.501H788.357V362.869H782.333V361.501H784.205V353.557H782.285V352.189H785.789V354.109C785.997 353.517 786.333 353.021 786.797 352.621C787.277 352.205 787.821 351.997 788.429 351.997ZM793.635 353.005C794.195 352.637 794.787 352.373 795.411 352.213C796.035 352.053 796.699 351.973 797.403 351.973C799.947 351.973 801.219 353.165 801.219 355.549V360.637C801.219 361.405 801.523 361.789 802.131 361.789C802.403 361.789 802.643 361.741 802.851 361.645L802.875 362.749C802.443 362.989 801.979 363.109 801.483 363.109C800.219 363.109 799.571 362.389 799.539 360.949V360.901C799.203 361.477 798.723 361.989 798.099 362.437C797.491 362.885 796.755 363.109 795.891 363.109C795.187 363.109 794.467 362.893 793.731 362.461C793.011 362.029 792.651 361.245 792.651 360.109C792.651 358.765 793.179 357.885 794.235 357.469C795.307 357.037 796.443 356.821 797.643 356.821C797.963 356.821 798.283 356.829 798.603 356.845C798.939 356.861 799.251 356.885 799.539 356.917V355.957C799.539 355.189 799.371 354.565 799.035 354.085C798.715 353.605 798.075 353.365 797.115 353.365C796.331 353.365 795.643 353.509 795.051 353.797L794.643 355.645L793.251 355.477L793.635 353.005ZM799.539 358.861V358.045C799.235 358.029 798.915 358.005 798.579 357.973C798.243 357.941 797.899 357.925 797.547 357.925C796.747 357.925 796.019 358.053 795.363 358.309C794.723 358.549 794.403 359.085 794.403 359.917C794.403 360.605 794.619 361.077 795.051 361.333C795.483 361.589 795.931 361.717 796.395 361.717C797.131 361.717 797.819 361.461 798.459 360.949C799.115 360.437 799.475 359.741 799.539 358.861ZM816.037 353.557H814.309V362.725C814.309 364.405 813.845 365.741 812.917 366.733C812.005 367.725 810.717 368.221 809.053 368.221C807.933 368.221 806.925 367.965 806.029 367.453C805.149 366.941 804.565 366.149 804.277 365.077L805.621 364.405C805.893 365.237 806.365 365.837 807.037 366.205C807.709 366.589 808.405 366.781 809.125 366.781C810.149 366.781 810.981 366.421 811.621 365.701C812.277 364.997 812.605 363.981 812.605 362.653V360.685C812.285 361.309 811.821 361.853 811.213 362.317C810.605 362.781 809.797 363.013 808.789 363.013C807.525 363.013 806.445 362.565 805.549 361.669C804.653 360.773 804.205 359.485 804.205 357.805C804.205 356.381 804.589 355.053 805.357 353.821C806.125 352.589 807.333 351.973 808.981 351.973C810.677 351.973 811.885 352.605 812.605 353.869V352.189H816.037V353.557ZM812.605 358.261V356.413C812.605 355.517 812.293 354.797 811.669 354.253C811.061 353.693 810.317 353.413 809.437 353.413C808.237 353.413 807.365 353.845 806.821 354.709C806.293 355.573 806.029 356.565 806.029 357.685C806.029 358.997 806.325 359.973 806.917 360.613C807.525 361.253 808.269 361.573 809.149 361.573C810.173 361.573 810.997 361.221 811.621 360.517C812.245 359.813 812.573 359.061 812.605 358.261ZM827.865 357.517C827.865 359.133 827.385 360.469 826.425 361.525C825.465 362.581 824.161 363.109 822.513 363.109C820.897 363.109 819.625 362.597 818.697 361.573C817.785 360.549 817.329 359.229 817.329 357.613C817.329 356.061 817.777 354.733 818.673 353.629C819.569 352.509 820.881 351.949 822.609 351.949C824.353 351.949 825.665 352.501 826.545 353.605C827.425 354.693 827.865 355.997 827.865 357.517ZM826.089 357.493C826.089 356.277 825.777 355.293 825.153 354.541C824.545 353.773 823.681 353.389 822.561 353.389C821.441 353.389 820.577 353.781 819.969 354.565C819.377 355.349 819.081 356.333 819.081 357.517C819.081 358.685 819.377 359.669 819.969 360.469C820.561 361.269 821.425 361.669 822.561 361.669C823.697 361.669 824.569 361.277 825.177 360.493C825.785 359.693 826.089 358.693 826.089 357.493ZM842.282 362.869H836.882V361.501H838.73V356.533C838.73 355.381 838.498 354.573 838.034 354.109C837.57 353.629 836.978 353.389 836.258 353.389C835.298 353.389 834.522 353.709 833.93 354.349C833.354 354.973 833.05 355.693 833.018 356.509V361.501H834.89V362.869H829.466V361.501H831.338V353.557H829.418V352.189H833.018V354.085C833.786 352.677 835.034 351.973 836.762 351.973C837.802 351.973 838.674 352.293 839.378 352.933C840.082 353.573 840.434 354.605 840.434 356.029V361.501H842.282V362.869ZM843.752 364.645H854.12V365.869H843.752V364.645ZM864.084 362.869H856.572V361.333H859.5V351.901H856.572V350.365H861.276V361.333H864.084V362.869Z" fill="black"/>
<path d="M801.55 156.688H800.326L797.182 166H795.886L792.622 157.84H792.502L789.31 166H788.062L784.798 156.688H783.622V155.32H788.662V156.688H786.622L788.854 163.432H788.974L792.142 155.32H793.27L796.606 163.432H796.726L798.694 156.688H796.75V155.32H801.55V156.688ZM812.947 160.648C812.947 162.264 812.467 163.6 811.507 164.656C810.547 165.712 809.243 166.24 807.595 166.24C805.979 166.24 804.707 165.728 803.779 164.704C802.867 163.68 802.411 162.36 802.411 160.744C802.411 159.192 802.859 157.864 803.755 156.76C804.651 155.64 805.963 155.08 807.691 155.08C809.435 155.08 810.747 155.632 811.627 156.736C812.507 157.824 812.947 159.128 812.947 160.648ZM811.171 160.624C811.171 159.408 810.859 158.424 810.235 157.672C809.627 156.904 808.763 156.52 807.643 156.52C806.523 156.52 805.659 156.912 805.051 157.696C804.459 158.48 804.163 159.464 804.163 160.648C804.163 161.816 804.459 162.8 805.051 163.6C805.643 164.4 806.507 164.8 807.643 164.8C808.779 164.8 809.651 164.408 810.259 163.624C810.867 162.824 811.171 161.824 811.171 160.624ZM819.732 166H814.308V164.632H816.18V150.856H814.284V149.488H817.86V164.632H819.732V166ZM826.443 149.248C826.939 149.248 827.379 149.296 827.763 149.392C828.163 149.488 828.547 149.696 828.915 150.016L829.323 152.488L827.955 152.656L827.499 150.832C827.179 150.704 826.771 150.64 826.275 150.64C825.011 150.64 824.379 151.488 824.379 153.184V155.32H827.139V156.664H824.379V164.632H826.803V166H820.827V164.632H822.675V156.664H821.139V155.32H822.675V153.328C822.675 152.08 823.043 151.088 823.779 150.352C824.531 149.616 825.419 149.248 826.443 149.248ZM828.787 167.776H839.155V169H828.787V167.776ZM849.119 166H841.607V164.464H844.535V155.032H841.607V153.496H846.311V164.464H849.119V166Z" fill="black"/>
<path d="M800.492 222.311H799.268L796.124 231.623H794.828L791.564 223.463H791.444L788.252 231.623H787.004L783.74 222.311H782.564V220.943H787.604V222.311H785.564L787.796 229.055H787.916L791.084 220.943H792.212L795.548 229.055H795.668L797.636 222.311H795.692V220.943H800.492V222.311ZM811.889 226.271C811.889 227.887 811.409 229.223 810.449 230.279C809.489 231.335 808.185 231.863 806.537 231.863C804.921 231.863 803.649 231.351 802.721 230.327C801.809 229.303 801.353 227.983 801.353 226.367C801.353 224.815 801.801 223.487 802.697 222.383C803.593 221.263 804.905 220.703 806.633 220.703C808.377 220.703 809.689 221.255 810.569 222.359C811.449 223.447 811.889 224.751 811.889 226.271ZM810.113 226.247C810.113 225.031 809.801 224.047 809.177 223.295C808.569 222.527 807.705 222.143 806.585 222.143C805.465 222.143 804.601 222.535 803.993 223.319C803.401 224.103 803.105 225.087 803.105 226.271C803.105 227.439 803.401 228.423 803.993 229.223C804.585 230.023 805.449 230.423 806.585 230.423C807.721 230.423 808.593 230.031 809.201 229.247C809.809 228.447 810.113 227.447 810.113 226.247ZM818.674 231.623H813.25V230.255H815.122V216.479H813.226V215.111H816.802V230.255H818.674V231.623ZM825.385 214.871C825.881 214.871 826.321 214.919 826.705 215.015C827.105 215.111 827.489 215.319 827.857 215.639L828.265 218.111L826.897 218.279L826.441 216.455C826.121 216.327 825.713 216.263 825.217 216.263C823.953 216.263 823.321 217.111 823.321 218.807V220.943H826.081V222.287H823.321V230.255H825.745V231.623H819.769V230.255H821.617V222.287H820.081V220.943H821.617V218.951C821.617 217.703 821.985 216.711 822.721 215.975C823.473 215.239 824.361 214.871 825.385 214.871ZM827.728 233.399H838.096V234.623H827.728V233.399ZM841.125 219.935C841.701 219.599 842.381 219.343 843.165 219.167C843.965 218.975 844.717 218.879 845.421 218.879C846.989 218.879 848.101 219.279 848.757 220.079C849.429 220.879 849.765 221.719 849.765 222.599C849.765 223.703 849.357 224.727 848.541 225.671C847.741 226.599 846.789 227.439 845.685 228.191C844.597 228.927 843.613 229.559 842.733 230.087H848.973L849.189 228.167L850.653 228.287L850.389 231.623H840.645L840.453 230.255C842.725 228.719 844.533 227.391 845.877 226.271C847.221 225.135 847.893 223.975 847.893 222.791C847.893 221.191 846.941 220.391 845.037 220.391C844.701 220.391 844.293 220.439 843.813 220.535C843.333 220.631 842.893 220.767 842.493 220.943L842.109 222.743L840.717 222.575L841.125 219.935Z" fill="black"/>
<path d="M799.296 287.934H798.072L794.928 297.246H793.632L790.368 289.086H790.248L787.056 297.246H785.808L782.544 287.934H781.368V286.566H786.408V287.934H784.368L786.6 294.678H786.72L789.888 286.566H791.016L794.352 294.678H794.472L796.44 287.934H794.496V286.566H799.296V287.934ZM810.694 291.894C810.694 293.51 810.214 294.846 809.254 295.902C808.294 296.958 806.99 297.486 805.342 297.486C803.726 297.486 802.454 296.974 801.526 295.95C800.614 294.926 800.158 293.606 800.158 291.99C800.158 290.438 800.606 289.11 801.502 288.006C802.398 286.886 803.71 286.326 805.438 286.326C807.182 286.326 808.494 286.878 809.374 287.982C810.254 289.07 810.694 290.374 810.694 291.894ZM808.918 291.87C808.918 290.654 808.606 289.67 807.982 288.918C807.374 288.15 806.51 287.766 805.39 287.766C804.27 287.766 803.406 288.158 802.798 288.942C802.206 289.726 801.91 290.71 801.91 291.894C801.91 293.062 802.206 294.046 802.798 294.846C803.39 295.646 804.254 296.046 805.39 296.046C806.526 296.046 807.398 295.654 808.006 294.87C808.614 294.07 808.918 293.07 808.918 291.87ZM817.478 297.246H812.054V295.878H813.926V282.102H812.03V280.734H815.606V295.878H817.478V297.246ZM824.189 280.494C824.685 280.494 825.125 280.542 825.509 280.638C825.909 280.734 826.293 280.942 826.661 281.262L827.069 283.734L825.701 283.902L825.245 282.078C824.925 281.95 824.517 281.886 824.021 281.886C822.757 281.886 822.125 282.734 822.125 284.43V286.566H824.885V287.91H822.125V295.878H824.549V297.246H818.573V295.878H820.421V287.91H818.885V286.566H820.421V284.574C820.421 283.326 820.789 282.334 821.525 281.598C822.277 280.862 823.165 280.494 824.189 280.494ZM826.533 299.022H836.901V300.246H826.533V299.022ZM839.689 285.75C840.137 285.446 840.721 285.166 841.441 284.91C842.177 284.638 842.945 284.502 843.745 284.502C845.009 284.502 846.049 284.83 846.865 285.486C847.697 286.142 848.113 287.086 848.113 288.318C848.113 289.102 847.889 289.83 847.441 290.502C847.009 291.158 846.233 291.662 845.113 292.014V292.11C846.537 292.35 847.505 292.838 848.017 293.574C848.529 294.31 848.785 295.134 848.785 296.046C848.785 297.438 848.329 298.55 847.417 299.382C846.521 300.214 845.289 300.63 843.721 300.63C842.249 300.63 841.129 300.302 840.361 299.646C839.593 298.99 839.113 298.19 838.921 297.246L840.289 296.766C840.513 297.406 840.881 297.958 841.393 298.422C841.905 298.886 842.665 299.118 843.673 299.118C844.953 299.118 845.809 298.79 846.241 298.134C846.689 297.478 846.913 296.75 846.913 295.95C846.913 295.006 846.577 294.27 845.905 293.742C845.233 293.214 844.057 292.926 842.377 292.878V291.582C843.881 291.518 844.905 291.166 845.449 290.526C845.993 289.87 846.265 289.206 846.265 288.534C846.265 287.75 846.009 287.134 845.497 286.686C845.001 286.238 844.305 286.014 843.409 286.014C842.625 286.014 841.857 286.214 841.105 286.614L840.673 288.558L839.281 288.39L839.689 285.75Z" fill="black"/>
<path d="M784.78 422.851C784.78 423.795 784.612 424.723 784.276 425.635C783.956 426.531 783.436 427.275 782.716 427.867C782.012 428.443 781.076 428.731 779.908 428.731C778.292 428.731 777.116 428.131 776.38 426.931V432.235H778.852V433.603H772.804V432.235H774.7V419.179H772.78V417.811H776.38V420.043C776.7 419.403 777.164 418.835 777.772 418.339C778.38 417.843 779.18 417.595 780.172 417.595C781.548 417.595 782.66 418.059 783.508 418.987C784.356 419.915 784.78 421.203 784.78 422.851ZM783.004 422.995C783.004 421.715 782.692 420.739 782.068 420.067C781.444 419.379 780.668 419.035 779.74 419.035C778.78 419.035 777.988 419.419 777.364 420.187C776.74 420.939 776.412 421.723 776.38 422.539V424.123C776.38 425.019 776.692 425.771 777.316 426.379C777.94 426.987 778.692 427.291 779.572 427.291C780.772 427.291 781.644 426.859 782.188 425.995C782.732 425.131 783.004 424.131 783.004 422.995ZM791.592 428.491H786.168V427.123H788.04V413.347H786.144V411.979H789.72V427.123H791.592V428.491ZM794.007 418.627C794.567 418.259 795.159 417.995 795.783 417.835C796.407 417.675 797.071 417.595 797.775 417.595C800.319 417.595 801.591 418.787 801.591 421.171V426.259C801.591 427.027 801.895 427.411 802.503 427.411C802.775 427.411 803.015 427.363 803.223 427.267L803.247 428.371C802.815 428.611 802.351 428.731 801.855 428.731C800.591 428.731 799.943 428.011 799.911 426.571V426.523C799.575 427.099 799.095 427.611 798.471 428.059C797.863 428.507 797.127 428.731 796.263 428.731C795.559 428.731 794.839 428.515 794.103 428.083C793.383 427.651 793.023 426.867 793.023 425.731C793.023 424.387 793.551 423.507 794.607 423.091C795.679 422.659 796.815 422.443 798.015 422.443C798.335 422.443 798.655 422.451 798.975 422.467C799.311 422.483 799.623 422.507 799.911 422.539V421.579C799.911 420.811 799.743 420.187 799.407 419.707C799.087 419.227 798.447 418.987 797.487 418.987C796.703 418.987 796.015 419.131 795.423 419.419L795.015 421.267L793.623 421.099L794.007 418.627ZM799.911 424.483V423.667C799.607 423.651 799.287 423.627 798.951 423.595C798.615 423.563 798.271 423.547 797.919 423.547C797.119 423.547 796.391 423.675 795.735 423.931C795.095 424.171 794.775 424.707 794.775 425.539C794.775 426.227 794.991 426.699 795.423 426.955C795.855 427.211 796.303 427.339 796.767 427.339C797.503 427.339 798.191 427.083 798.831 426.571C799.487 426.059 799.847 425.363 799.911 424.483ZM815.196 419.179H813.924L810.156 428.491L808.716 432.235H810.54V433.603H805.116V432.235H807.108L808.5 428.467L804.612 419.179H803.34V417.811H808.284V419.179H806.412L809.412 426.355H809.556L812.22 419.179H810.492V417.811H815.196V419.179ZM825.542 425.419C825.398 426.331 824.942 427.115 824.174 427.771C823.406 428.411 822.366 428.731 821.054 428.731C819.55 428.731 818.334 428.259 817.406 427.315C816.478 426.371 816.014 425.035 816.014 423.307C816.014 421.643 816.454 420.275 817.334 419.203C818.214 418.131 819.406 417.595 820.91 417.595C822.382 417.595 823.502 418.059 824.27 418.987C825.038 419.915 825.43 421.011 825.446 422.275C825.446 422.691 825.398 423.115 825.302 423.547H817.79C817.886 426.043 819.014 427.291 821.174 427.291C822.022 427.291 822.686 427.091 823.166 426.691C823.646 426.291 823.966 425.763 824.126 425.107L825.542 425.419ZM823.67 422.299C823.75 421.499 823.558 420.747 823.094 420.043C822.646 419.339 821.902 418.987 820.862 418.987C819.87 418.987 819.142 419.315 818.678 419.971C818.214 420.627 817.926 421.403 817.814 422.299H823.67ZM833.191 417.619C833.959 417.619 834.567 417.803 835.015 418.171L835.423 420.859L834.055 421.027L833.647 419.203C833.375 419.107 833.103 419.059 832.831 419.059C832.207 419.059 831.687 419.323 831.271 419.851C830.855 420.363 830.647 421.035 830.647 421.867V427.123H833.119V428.491H827.095V427.123H828.967V419.179H827.047V417.811H830.551V419.731C830.759 419.139 831.095 418.643 831.559 418.243C832.039 417.827 832.583 417.619 833.191 417.619ZM837.701 430.267H848.069V431.491H837.701V430.267ZM858.033 428.491H850.521V426.955H853.449V417.523H850.521V415.987H855.225V426.955H858.033V428.491Z" fill="black"/>
<path d="M765.354 161.354C765.549 161.158 765.549 160.842 765.354 160.646L762.172 157.464C761.976 157.269 761.66 157.269 761.464 157.464C761.269 157.66 761.269 157.976 761.464 158.172L764.293 161L761.464 163.828C761.269 164.024 761.269 164.34 761.464 164.536C761.66 164.731 761.976 164.731 762.172 164.536L765.354 161.354ZM154 161.5H765V160.5H154V161.5Z" fill="black"/>
<path d="M765.354 227.354C765.549 227.158 765.549 226.842 765.354 226.646L762.172 223.464C761.976 223.269 761.66 223.269 761.464 223.464C761.269 223.66 761.269 223.976 761.464 224.172L764.293 227L761.464 229.828C761.269 230.024 761.269 230.34 761.464 230.536C761.66 230.731 761.976 230.731 762.172 230.536L765.354 227.354ZM154 227.5H765V226.5H154V227.5Z" fill="black"/>
<path d="M765.354 292.354C765.549 292.158 765.549 291.842 765.354 291.646L762.172 288.464C761.976 288.269 761.66 288.269 761.464 288.464C761.269 288.66 761.269 288.976 761.464 289.172L764.293 292L761.464 294.828C761.269 295.024 761.269 295.34 761.464 295.536C761.66 295.731 761.976 295.731 762.172 295.536L765.354 292.354ZM154 292.5H765V291.5H154V292.5Z" fill="black"/>
<path d="M765.354 358.354C765.549 358.158 765.549 357.842 765.354 357.646L762.172 354.464C761.976 354.269 761.66 354.269 761.464 354.464C761.269 354.66 761.269 354.976 761.464 355.172L764.293 358L761.464 360.828C761.269 361.024 761.269 361.34 761.464 361.536C761.66 361.731 761.976 361.731 762.172 361.536L765.354 358.354ZM154 358.5H765V357.5H154V358.5Z" fill="black"/>
<path d="M765.354 426.354C765.549 426.158 765.549 425.842 765.354 425.646L762.172 422.464C761.976 422.269 761.66 422.269 761.464 422.464C761.269 422.66 761.269 422.976 761.464 423.172L764.293 426L761.464 428.828C761.269 429.024 761.269 429.34 761.464 429.536C761.66 429.731 761.976 429.731 762.172 429.536L765.354 426.354ZM154 426.5H765V425.5H154V426.5Z" fill="black"/>
<line x1="225.5" y1="161" x2="225.5" y2="511" stroke="black"/>
<line x1="245.5" y1="292" x2="245.5" y2="511" stroke="black"/>
<line x1="236.5" y1="227.002" x2="235.5" y2="511.002" stroke="black"/>
<line x1="548.5" y1="161" x2="548.5" y2="511" stroke="black"/>
<line x1="568.5" y1="292" x2="568.5" y2="511" stroke="black"/>
<line x1="559.5" y1="227.002" x2="558.5" y2="511.002" stroke="black"/>
<circle cx="225" cy="161" r="4" fill="#FF6F6F"/>
<circle cx="246" cy="292" r="4" fill="#FF6F6F"/>
<line x1="459.5" y1="358" x2="459.5" y2="511" stroke="black"/>
<line x1="578.5" y1="358" x2="578.5" y2="511" stroke="black"/>
<circle cx="459" cy="358" r="4" fill="#A3FFAC"/>
<circle cx="236" cy="227" r="4" fill="#FF6F6F"/>
<line x1="327.5" y1="161" x2="327.5" y2="511" stroke="black"/>
<line x1="348.5" y1="292" x2="348.5" y2="511" stroke="black"/>
<line x1="338.5" y1="227.002" x2="337.5" y2="511.002" stroke="black"/>
<circle cx="348" cy="292" r="4" fill="#A0BBFF"/>
<line x1="358.5" y1="428" x2="358.5" y2="511" stroke="black"/>
<line x1="588.5" y1="426" x2="588.5" y2="511" stroke="black"/>
<circle cx="358" cy="426" r="4" fill="#A0BBFF"/>
<circle cx="338" cy="227" r="4" fill="#A0BBFF"/>
<circle cx="327" cy="161" r="4" fill="#A0BBFF"/>
<circle cx="548" cy="161" r="4" fill="#D2D46B"/>
<circle cx="559" cy="227" r="4" fill="#D2D46B"/>
<circle cx="568" cy="292" r="4" fill="#D2D46B"/>
<circle cx="578" cy="358" r="4" fill="#D2D46B"/>
<circle cx="588" cy="426" r="4" fill="#D2D46B"/>
<line x1="662.5" y1="161" x2="662.5" y2="511" stroke="black"/>
<line x1="682.5" y1="292" x2="682.5" y2="511" stroke="black"/>
<line x1="673.5" y1="227.002" x2="672.5" y2="511.002" stroke="black"/>
<line x1="692.5" y1="358" x2="692.5" y2="511" stroke="black"/>
<line x1="702.5" y1="426" x2="702.5" y2="511" stroke="black"/>
<circle cx="673" cy="227" r="4" fill="#88F8FF"/>
<circle cx="682" cy="292" r="4" fill="#88F8FF"/>
<circle cx="692" cy="358" r="4" fill="#88F8FF"/>
<circle cx="702" cy="426" r="4" fill="#88F8FF"/>
<circle cx="662" cy="161" r="4" fill="#88F8FF"/>
</svg>
